0
SECTION
2
HEADER
9
$INSUNITS
70
4
9
$ACADVER
1
AC1014
9
$HANDSEED
5
FFFF
0
ENDSEC
0
SECTION
2
TABLES
0
TABLE
2
VPORT
5
8
100
AcDbSymbolTable
0
ENDTAB
0
TABLE
2
LTYPE
5
5
100
AcDbSymbolTable
0
LTYPE
5
14
100
AcDbSymbolTableRecord
100
AcDbLinetypeTableRecord
2
BYBLOCK
70
0
0
LTYPE
5
15
100
AcDbSymbolTableRecord
100
AcDbLinetypeTableRecord
2
BYLAYER
70
0
0
LTYPE
5
16
100
AcDbSymbolTableRecord
100
AcDbLinetypeTableRecord
2
DASHED
70
0
3
Dashed __ __ __ __ __ __ __ __ __ __ __ __ __ _
72
65
73
2
40
0.75
49
0.5
74
0
49
-0.25
74
0
0
ENDTAB
0
TABLE
2
LAYER
5
2
100
AcDbSymbolTable
70
2
0
LAYER
5
50
100
AcDbSymbolTableRecord
100
AcDbLayerTableRecord
2
0
70
0
62
7
6
CONTINUOUS
0
ENDTAB
0
TABLE
2
STYLE
5
3
100
AcDbSymbolTable
70
1
0
STYLE
5
11
100
AcDbSymbolTableRecord
100
AcDbTextStyleTableRecord
2
STANDARD
70
0
0
ENDTAB
0
TABLE
2
VIEW
5
6
100
AcDbSymbolTable
70
0
0
ENDTAB
0
TABLE
2
UCS
5
7
100
AcDbSymbolTable
70
0
0
ENDTAB
0
TABLE
2
APPID
5
9
100
AcDbSymbolTable
70
2
0
APPID
5
12
100
AcDbSymbolTableRecord
100
AcDbRegAppTableRecord
2
ACAD
70
0
0
ENDTAB
0
TABLE
2
DIMSTYLE
5
A
100
AcDbSymbolTable
70
1
0
ENDTAB
0
TABLE
2
BLOCK_RECORD
5
1
100
AcDbSymbolTable
70
1
0
BLOCK_RECORD
5
1F
100
AcDbSymbolTableRecord
100
AcDbBlockTableRecord
2
*MODEL_SPACE
0
BLOCK_RECORD
5
1B
100
AcDbSymbolTableRecord
100
AcDbBlockTableRecord
2
*PAPER_SPACE
0
ENDTAB
0
ENDSEC
0
SECTION
2
BLOCKS
0
BLOCK
5
20
100
AcDbEntity
100
AcDbBlockBegin
2
*MODEL_SPACE
0
ENDBLK
5
21
100
AcDbEntity
100
AcDbBlockEnd
0
BLOCK
5
1C
100
AcDbEntity
100
AcDbBlockBegin
2
*PAPER_SPACE
0
ENDBLK
5
1D
100
AcDbEntity
100
AcDbBlockEnd
0
ENDSEC
0
SECTION
2
ENTITIES
0
LINE
5
100
100
AcDbEntity
8
0
100
AcDbLine
10
-143.39832688569285
20
58.765344990760575
30
0
11
-143.42127608574307
21
80.794217450961256
31
0
0
LINE
5
101
100
AcDbEntity
8
0
100
AcDbLine
10
-143.42127608574307
20
80.794217450961256
30
0
11
-201.13586927307949
21
80.734091643466272
31
0
0
LINE
5
102
100
AcDbEntity
8
0
100
AcDbLine
10
-201.13586927307949
20
80.734091643466272
30
0
11
-207.87341166046622
21
80.734091643466314
31
0
0
LINE
5
103
100
AcDbEntity
8
0
100
AcDbLine
10
-207.87341166046622
20
80.734091643466314
30
0
11
-207.87341166046639
21
64.502203542066326
31
0
0
LINE
5
104
100
AcDbEntity
8
0
100
AcDbLine
10
-207.87341166046639
20
64.502203542066326
30
0
11
-207.91032713457895
21
64.502203542066326
31
0
0
LINE
5
105
100
AcDbEntity
8
0
100
AcDbLine
10
-207.91032713457895
20
64.502203542066326
30
0
11
-207.91032713457898
21
60.375316343397493
31
0
0
SPLINE
5
106
100
AcDbEntity
8
0
100
AcDbSpline
70
0
71
3
72
16
73
12
74
0
42
0.000000001
43
0.0000000001
44
0.0000000001
40
0
40
0
40
0
40
0
40
0.25097080972069735
40
0.25097080972069735
40
0.44015955349906483
40
0.44015955349906483
40
0.63191683733868442
40
0.63191683733868442
40
0.8265914187245853
40
0.8265914187245853
40
1.0478902821980809
40
1.0478902821980809
40
1.0478902821980809
40
1.0478902821980809
10
-207.91032713457898
20
60.375316343397493
30
0
10
-207.92536460948588
20
59.538882139149614
30
0
10
-208.01958928719202
20
58.631924271506236
30
0
10
-208.47097894667655
20
57.232887813343126
30
0
10
-208.72042883127796
20
56.804642874702523
30
0
10
-209.25616826267589
20
56.154709603001976
30
0
10
-209.57747388724826
20
55.896643190474919
30
0
10
-210.32805064898577
20
55.49306823096466
30
0
10
-210.74192803918137
20
55.358672533808154
30
0
10
-211.63855498385846
20
55.173660878169734
30
0
10
-212.13760401533625
20
55.133981129077043
30
0
10
-212.62477151827687
20
55.132193943811018
30
0
0
LINE
5
107
100
AcDbEntity
8
0
100
AcDbLine
10
-212.62477151827687
20
55.132193943811004
30
0
11
-235.06106971295608
21
55.132193943811231
31
0
0
ARC
5
108
100
AcDbEntity
8
0
100
AcDbCircle
10
-238.04544112538031
20
49.357808498354302
30
0
40
6.4999999999999893
210
0
220
-0
230
1
100
AcDbArc
50
62.668755695412202
51
175.61948747647787
0
LINE
5
109
100
AcDbEntity
8
0
100
AcDbLine
10
-244.52645324919934
20
49.854277884027397
30
0
11
-322.30384391582572
21
5.3885971790477072
31
0
0
ARC
5
110
100
AcDbEntity
8
0
100
AcDbCircle
10
-326.81695202621762
20
0.71079265299968164
30
0
40
6.5000000000000107
210
0
220
-0
230
1
100
AcDbArc
50
46.026600953630115
51
193.48699080491338
0
LINE
5
111
100
AcDbEntity
8
0
100
AcDbLine
10
-333.1377008753733
20
-0.80516710434795191
30
0
11
-361.63095287002312
21
-17.094886193423445
31
0
0
ARC
5
112
100
AcDbEntity
8
0
100
AcDbCircle
10
-366.18747967958967
20
-21.730408109421873
30
0
40
6.5000000000000266
210
0
220
-0
230
1
100
AcDbArc
50
45.492379328827063
51
194.02121242971663
0
LINE
5
113
100
AcDbEntity
8
0
100
AcDbLine
10
-372.49381928945161
20
-23.305235314256247
30
0
11
-417.26516355476997
21
-48.901212265545261
31
0
0
ARC
5
114
100
AcDbEntity
8
0
100
AcDbCircle
10
-400.83682263903347
20
-77.636931398168073
30
0
40
33.1003314078975
210
0
220
0
230
1
100
AcDbArc
50
119.75679931121049
51
269.99999867275648
0
LINE
5
115
100
AcDbEntity
8
0
100
AcDbLine
10
-400.83682340579503
20
-110.73726280606567
30
0
11
118.56508409287294
21
-110.73726280606805
31
0
0
ARC
5
116
100
AcDbEntity
8
0
100
AcDbCircle
10
118.56508409287294
20
-77.636931398170447
30
0
40
33.100331407897592
210
-0
220
0
230
1
100
AcDbArc
50
-90
51
60.243170707024248
0
LINE
5
117
100
AcDbEntity
8
0
100
AcDbLine
10
134.99344004544926
20
-48.901220862182271
30
0
11
90.222080743291514
21
-23.305235314258415
31
0
0
ARC
5
118
100
AcDbEntity
8
0
100
AcDbCircle
10
83.915741133429577
20
-21.730408109424005
30
0
40
6.500000000000008
210
0
220
0
230
1
100
AcDbArc
50
-14.021212429716957
51
134.50762067117208
0
LINE
5
119
100
AcDbEntity
8
0
100
AcDbLine
10
79.359214323863114
20
-17.094886193425527
30
0
11
50.865962329213446
21
-0.80516710434976879
31
0
0
ARC
5
120
100
AcDbEntity
8
0
100
AcDbCircle
10
44.545213480057797
20
0.71079265299792249
30
0
40
6.5000000000000115
210
0
220
0
230
1
100
AcDbArc
50
-13.486990804913896
51
133.97339904636911
0
LINE
5
121
100
AcDbEntity
8
0
100
AcDbLine
10
40.032105369665985
20
5.3885971790459859
30
0
11
-37.745285296959992
21
49.854277884026402
31
0
0
ARC
5
122
100
AcDbEntity
8
0
100
AcDbCircle
10
-44.226297420779034
20
49.357808498353386
30
0
40
6.5
210
0
220
-0
230
1
100
AcDbArc
50
4.3805125235214524
51
117.33124430458761
0
LINE
5
123
100
AcDbEntity
8
0
100
AcDbLine
10
-47.210668833203243
20
55.132193943810336
30
0
11
-69.646967027882425
21
55.132193943810336
31
0
0
SPLINE
5
124
100
AcDbEntity
8
0
100
AcDbSpline
70
0
71
3
72
16
73
12
74
0
42
0.000000001
43
0.0000000001
44
0.0000000001
40
0
40
0
40
0
40
0
40
0.25097080972069735
40
0.25097080972069735
40
0.44015955349906483
40
0.44015955349906483
40
0.63191683733868442
40
0.63191683733868442
40
0.8265914187245853
40
0.8265914187245853
40
1.0478902821980809
40
1.0478902821980809
40
1.0478902821980809
40
1.0478902821980809
10
-74.361411411580278
20
60.375316343396861
30
0
10
-74.346373936673359
20
59.538882139148981
30
0
10
-74.252149258967279
20
58.631924271505611
30
0
10
-73.800759599482731
20
57.232887813342501
30
0
10
-73.551309714881327
20
56.804642874701884
30
0
10
-73.015570283483399
20
56.154709603001336
30
0
10
-72.694264658911024
20
55.896643190474265
30
0
10
-71.943687897173561
20
55.493068230964013
30
0
10
-71.529810506977924
20
55.3586725338075
30
0
10
-70.633183562300857
20
55.173660878169066
30
0
10
-70.134134530823047
20
55.133981129076375
30
0
10
-69.646967027882425
20
55.132193943810336
30
0
0
LINE
5
125
100
AcDbEntity
8
0
100
AcDbLine
10
-74.361411411580278
20
60.375316343396861
30
0
11
-74.361411411580292
21
64.502203542065701
31
0
0
LINE
5
126
100
AcDbEntity
8
0
100
AcDbLine
10
-74.361411411580292
20
64.502203542065701
30
0
11
-74.398326885692853
21
64.502203542065701
31
0
0
LINE
5
127
100
AcDbEntity
8
0
100
AcDbLine
10
-74.398326885692853
20
64.502203542065701
30
0
11
-74.398326885692853
21
80.734091643465703
31
0
0
LINE
5
128
100
AcDbEntity
8
0
100
AcDbLine
10
-74.398326885692853
20
80.734091643465703
30
0
11
-81.135869273079607
21
80.734091643465703
31
0
0
LINE
5
129
100
AcDbEntity
8
0
100
AcDbLine
10
-81.135869273079607
20
80.734091643465703
30
0
11
-113.37540533377052
21
80.767678090703356
31
0
0
LINE
5
130
100
AcDbEntity
8
0
100
AcDbLine
10
-113.37540533377052
20
80.767678090703356
30
0
11
-113.39832688569285
21
58.765344990760575
31
0
0
LINE
5
131
100
AcDbEntity
8
0
100
AcDbLine
10
-113.39832688569285
20
58.765344990760575
30
0
11
-143.39832688569285
21
58.765344990760575
31
0
0
CIRCLE
5
132
100
AcDbEntity
8
0
100
AcDbCircle
10
-238.04544112538031
20
49.357808498354302
30
0
40
2.6499999999999968
210
0
220
-0
230
1
0
CIRCLE
5
133
100
AcDbEntity
8
0
100
AcDbCircle
10
-366.18747967958967
20
-21.730408109421873
30
0
40
2.6500000000000057
210
0
220
-0
230
1
0
CIRCLE
5
134
100
AcDbEntity
8
0
100
AcDbCircle
10
-326.81695202621762
20
0.71079265299968164
30
0
40
2.6499999999999968
210
0
220
-0
230
1
0
CIRCLE
5
135
100
AcDbEntity
8
0
100
AcDbCircle
10
-415.90703361790349
20
-73.898244859391141
30
0
40
2.5
210
0
220
-0
230
1
0
CIRCLE
5
136
100
AcDbEntity
8
0
100
AcDbCircle
10
133.63529507174295
20
-73.898244859393728
30
0
40
2.5
210
-0
220
0
230
1
0
CIRCLE
5
137
100
AcDbEntity
8
0
100
AcDbCircle
10
44.545213480057797
20
0.71079265299792249
30
0
40
2.6499999999999968
210
-0
220
0
230
1
0
CIRCLE
5
138
100
AcDbEntity
8
0
100
AcDbCircle
10
83.915741133429577
20
-21.730408109424005
30
0
40
2.6500000000000057
210
-0
220
0
230
1
0
CIRCLE
5
139
100
AcDbEntity
8
0
100
AcDbCircle
10
-44.226297420779034
20
49.357808498353386
30
0
40
2.6499999999999968
210
-0
220
0
230
1
0
ENDSEC
0
SECTION
2
OBJECTS
0
DICTIONARY
5
C
100
AcDbDictionary
3
ACAD_GROUP
350
D
3
ACAD_MLINESTYLE
350
17
0
DICTIONARY
5
D
100
AcDbDictionary
0
DICTIONARY
5
1A
330
C
100
AcDbDictionary
0
DICTIONARY
5
17
100
AcDbDictionary
0
ENDSEC
0
EOF
