%TF.GenerationSoftware,KiCad,Pcbnew,(5.0.0-3-g5ebb6b6)*%
%TF.CreationDate,2018-10-09T22:59:36+02:00*%
%TF.ProjectId,CNC_Control_Panel,434E435F436F6E74726F6C5F50616E65,rev?*%
%TF.SameCoordinates,Original*%
%TF.FileFunction,Copper,L2,Bot,Signal*%
%TF.FilePolarity,Positive*%
%FSLAX46Y46*%
G04 Gerber Fmt 4.6, Leading zero omitted, Abs format (unit mm)*
G04 Created by KiCad (PCBNEW (5.0.0-3-g5ebb6b6)) date 2018 October 09, Tuesday 22:59:36*
%MOMM*%
%LPD*%
G01*
G04 APERTURE LIST*
%ADD10R,1.700000X1.700000*%
%ADD11O,1.700000X1.700000*%
%ADD12C,2.000000*%
%ADD13C,0.900000*%
%ADD14C,0.400000*%
%ADD15C,0.200000*%
%ADD16C,0.250000*%
%ADD17C,0.254000*%
G04 APERTURE END LIST*
D10*
X39176000Y-134005000D03*
D11*
X36636000Y-134005000D03*
X39176000Y-131465000D03*
X36636000Y-131465000D03*
X39176000Y-128925000D03*
X36636000Y-128925000D03*
X39176000Y-126385000D03*
X36636000Y-126385000D03*
X39176000Y-123845000D03*
X36636000Y-123845000D03*
X39176000Y-121305000D03*
X36636000Y-121305000D03*
X39176000Y-118765000D03*
X36636000Y-118765000D03*
X39176000Y-116225000D03*
X36636000Y-116225000D03*
X39176000Y-113685000D03*
X36636000Y-113685000D03*
X39176000Y-111145000D03*
X36636000Y-111145000D03*
X39176000Y-108605000D03*
X36636000Y-108605000D03*
X39176000Y-106065000D03*
X36636000Y-106065000D03*
X39176000Y-103525000D03*
X36636000Y-103525000D03*
X39176000Y-100985000D03*
X36636000Y-100985000D03*
X39176000Y-98445000D03*
X36636000Y-98445000D03*
X39176000Y-95905000D03*
X36636000Y-95905000D03*
X39176000Y-93365000D03*
X36636000Y-93365000D03*
X39176000Y-90825000D03*
X36636000Y-90825000D03*
X39176000Y-88285000D03*
X36636000Y-88285000D03*
X39176000Y-85745000D03*
X36636000Y-85745000D03*
D12*
X120272000Y-164978000D03*
X120272000Y-160478000D03*
X126772000Y-164978000D03*
X126772000Y-160478000D03*
X86772000Y-160478000D03*
X86772000Y-164978000D03*
X80272000Y-160478000D03*
X80272000Y-164978000D03*
X60272000Y-164978000D03*
X60272000Y-160478000D03*
X66772000Y-164978000D03*
X66772000Y-160478000D03*
X44772000Y-148478000D03*
X44772000Y-152978000D03*
X38272000Y-148478000D03*
X38272000Y-152978000D03*
X106772000Y-160478000D03*
X106772000Y-164978000D03*
X100272000Y-160478000D03*
X100272000Y-164978000D03*
X120272000Y-114978000D03*
X120272000Y-110478000D03*
X126772000Y-114978000D03*
X126772000Y-110478000D03*
X49772000Y-110478000D03*
X49772000Y-114978000D03*
X43272000Y-110478000D03*
X43272000Y-114978000D03*
X89772000Y-110478000D03*
X89772000Y-114978000D03*
X83272000Y-110478000D03*
X83272000Y-114978000D03*
X126772000Y-125478000D03*
X126772000Y-129978000D03*
X120272000Y-125478000D03*
X120272000Y-129978000D03*
X63272000Y-134978000D03*
X63272000Y-130478000D03*
X69772000Y-134978000D03*
X69772000Y-130478000D03*
X63272000Y-94978000D03*
X63272000Y-90478000D03*
X69772000Y-94978000D03*
X69772000Y-90478000D03*
X120272000Y-144978000D03*
X120272000Y-140478000D03*
X126772000Y-144978000D03*
X126772000Y-140478000D03*
X98272000Y-129978000D03*
X98272000Y-125478000D03*
X104772000Y-129978000D03*
X104772000Y-125478000D03*
X104772000Y-95478000D03*
X104772000Y-99978000D03*
X98272000Y-95478000D03*
X98272000Y-99978000D03*
D10*
X95272000Y-119478000D03*
D11*
X95272000Y-116938000D03*
X95272000Y-114398000D03*
X95272000Y-111858000D03*
X95272000Y-109318000D03*
X95272000Y-106778000D03*
X95272000Y-104238000D03*
D10*
X56956000Y-91587000D03*
D11*
X54416000Y-91587000D03*
X51876000Y-91587000D03*
D10*
X57210000Y-154579000D03*
D11*
X57210000Y-152039000D03*
X57210000Y-149499000D03*
X57210000Y-146959000D03*
X57210000Y-144419000D03*
X57210000Y-141879000D03*
X57210000Y-139339000D03*
D13*
X43670000Y-133612000D03*
X43942000Y-117610000D03*
X45272000Y-86863000D03*
X51724000Y-86863000D03*
X40954000Y-151023000D03*
X58480000Y-90317000D03*
X40953990Y-154833000D03*
X53400000Y-154578996D03*
X48828000Y-95143000D03*
X56448000Y-95143000D03*
X45018000Y-80919000D03*
X58226000Y-80919000D03*
X77276000Y-80665000D03*
X98104000Y-80665000D03*
X122742000Y-80665000D03*
X131124000Y-89809000D03*
X131378000Y-111145000D03*
X105724000Y-88285000D03*
X104200000Y-110129000D03*
X131378000Y-122067000D03*
X131124000Y-139593000D03*
X131124000Y-153055000D03*
X131378000Y-166771000D03*
X118932000Y-173629000D03*
X106994000Y-173629000D03*
X93024000Y-173883000D03*
X81340000Y-173883000D03*
X63814000Y-173883000D03*
X46796000Y-174137000D03*
X37906000Y-162199000D03*
X66608000Y-153309000D03*
X89722000Y-152547000D03*
X107756000Y-152293000D03*
X41892000Y-95766000D03*
X90152000Y-97290000D03*
X41892000Y-93734000D03*
X91168000Y-94242000D03*
X41892000Y-87638000D03*
X93454000Y-87892000D03*
X48320000Y-132735000D03*
X48320000Y-143911000D03*
X44002000Y-137435000D03*
X41892000Y-129802000D03*
X95740000Y-129548000D03*
X47304000Y-131973000D03*
X47304000Y-148737004D03*
X46288000Y-131211000D03*
X46288000Y-146197000D03*
X41892000Y-123706000D03*
X45448000Y-123452000D03*
X41892000Y-121674000D03*
X114028000Y-121674000D03*
X114523000Y-109990000D03*
X41892000Y-119642000D03*
X41892000Y-125738000D03*
X61450000Y-126246000D03*
X41892000Y-117610000D03*
X41892000Y-105926000D03*
X41892000Y-127770000D03*
X66022000Y-127770000D03*
X41874000Y-107958000D03*
X84818000Y-108212000D03*
X85072000Y-135644000D03*
X41892000Y-103894000D03*
X85834000Y-101100000D03*
X86342000Y-118118000D03*
X41892000Y-99830000D03*
X86850000Y-98814000D03*
X86850000Y-116848000D03*
X41874000Y-101862000D03*
X95232000Y-99830000D03*
X41883000Y-97798000D03*
X88628000Y-98306000D03*
X88628000Y-124722000D03*
X50098000Y-92857000D03*
X41892000Y-89670000D03*
X92386841Y-88413000D03*
X41874000Y-91702000D03*
X59418000Y-89416000D03*
X41874000Y-85606000D03*
X77706000Y-84349000D03*
X41892000Y-83574000D03*
X115298000Y-83574000D03*
X115298000Y-99969000D03*
D14*
X39569000Y-133612000D02*
X39176000Y-134005000D01*
X43670000Y-133612000D02*
X39569000Y-133612000D01*
D15*
X45272000Y-86863000D02*
X51724000Y-86863000D01*
D16*
X56194000Y-151023000D02*
X57210000Y-152039000D01*
X40954000Y-151023000D02*
X56194000Y-151023000D01*
D15*
X53146000Y-90317000D02*
X51876000Y-91587000D01*
X58480000Y-90317000D02*
X53146000Y-90317000D01*
D14*
X57210000Y-154579000D02*
X53400004Y-154579000D01*
X40953990Y-154833000D02*
X53145996Y-154833000D01*
X53145996Y-154833000D02*
X53400000Y-154578996D01*
X53400004Y-154579000D02*
X53400000Y-154578996D01*
D15*
X39213000Y-98445000D02*
X39176000Y-98445000D01*
X41892000Y-95766000D02*
X39213000Y-98445000D01*
D16*
X89644000Y-96782000D02*
X90152000Y-97290000D01*
X42908000Y-96782000D02*
X89644000Y-96782000D01*
X41892000Y-95766000D02*
X42908000Y-96782000D01*
D15*
X39721000Y-95905000D02*
X39176000Y-95905000D01*
X41892000Y-93734000D02*
X39721000Y-95905000D01*
D16*
X90578999Y-93652999D02*
X91168000Y-94242000D01*
X42648001Y-93652999D02*
X90578999Y-93652999D01*
X42567000Y-93734000D02*
X42648001Y-93652999D01*
X41892000Y-93734000D02*
X42567000Y-93734000D01*
D15*
X39823000Y-87638000D02*
X39176000Y-88285000D01*
X41892000Y-87638000D02*
X39823000Y-87638000D01*
D16*
X41892000Y-87638000D02*
X93200000Y-87638000D01*
X93200000Y-87638000D02*
X93454000Y-87892000D01*
X48306999Y-132748001D02*
X48320000Y-132735000D01*
X40459001Y-132748001D02*
X48306999Y-132748001D01*
X39176000Y-131465000D02*
X40459001Y-132748001D01*
X48828000Y-144419000D02*
X57210000Y-144419000D01*
X48320000Y-143911000D02*
X48828000Y-144419000D01*
X44152000Y-137435000D02*
X48596000Y-141879000D01*
X44002000Y-137435000D02*
X44152000Y-137435000D01*
X48596000Y-141879000D02*
X57210000Y-141879000D01*
D15*
X41892000Y-129101000D02*
X39176000Y-126385000D01*
X41892000Y-129802000D02*
X41892000Y-129101000D01*
D16*
X95344999Y-129152999D02*
X95740000Y-129548000D01*
X42541001Y-129152999D02*
X95344999Y-129152999D01*
X41892000Y-129802000D02*
X42541001Y-129152999D01*
X100272000Y-160478000D02*
X106772000Y-160478000D01*
X38801997Y-130289999D02*
X40032999Y-130289999D01*
X38000999Y-129489001D02*
X38801997Y-130289999D01*
X36800588Y-126385000D02*
X38000999Y-127585411D01*
X38000999Y-127585411D02*
X38000999Y-129489001D01*
X36636000Y-126385000D02*
X36800588Y-126385000D01*
X47290999Y-131986001D02*
X47304000Y-131973000D01*
X41729001Y-131986001D02*
X47290999Y-131986001D01*
X40032999Y-130289999D02*
X41729001Y-131986001D01*
X56448004Y-148737004D02*
X57210000Y-149499000D01*
X47304000Y-148737004D02*
X56448004Y-148737004D01*
X38801997Y-127749999D02*
X39778999Y-127749999D01*
X37360991Y-124569991D02*
X37360991Y-125370989D01*
X38000999Y-126010997D02*
X38000999Y-126949001D01*
X37360991Y-125370989D02*
X38000999Y-126010997D01*
X38000999Y-126949001D02*
X38801997Y-127749999D01*
X36636000Y-123845000D02*
X37360991Y-124569991D01*
X42153998Y-131211000D02*
X46288000Y-131211000D01*
X41116999Y-130174001D02*
X42153998Y-131211000D01*
X41116999Y-129087999D02*
X41116999Y-130174001D01*
X39778999Y-127749999D02*
X41116999Y-129087999D01*
X56448000Y-146197000D02*
X57210000Y-146959000D01*
X46288000Y-146197000D02*
X56448000Y-146197000D01*
D15*
X39491000Y-121305000D02*
X39176000Y-121305000D01*
X41892000Y-123706000D02*
X39491000Y-121305000D01*
D16*
X45194000Y-123706000D02*
X45448000Y-123452000D01*
X41892000Y-123706000D02*
X45194000Y-123706000D01*
X43772001Y-147478001D02*
X39271999Y-147478001D01*
X39271999Y-147478001D02*
X38272000Y-148478000D01*
X44772000Y-148478000D02*
X43772001Y-147478001D01*
D15*
X39176000Y-118958000D02*
X39176000Y-118765000D01*
X41892000Y-121674000D02*
X39176000Y-118958000D01*
D16*
X41892000Y-121674000D02*
X114028000Y-121674000D01*
X115011000Y-110478000D02*
X120272000Y-110478000D01*
X114523000Y-109990000D02*
X115011000Y-110478000D01*
X121686213Y-110478000D02*
X126772000Y-110478000D01*
X120272000Y-110478000D02*
X121686213Y-110478000D01*
D15*
X41892000Y-118941000D02*
X39176000Y-116225000D01*
X41892000Y-119642000D02*
X41892000Y-118941000D01*
D16*
X41892000Y-119642000D02*
X83548000Y-119642000D01*
X115447001Y-120653001D02*
X119272001Y-124478001D01*
X119272001Y-124478001D02*
X120272000Y-125478000D01*
X84559001Y-120653001D02*
X115447001Y-120653001D01*
X83548000Y-119642000D02*
X84559001Y-120653001D01*
X120272000Y-125478000D02*
X126772000Y-125478000D01*
D15*
X37786001Y-117375001D02*
X37485999Y-117074999D01*
X37786001Y-121617003D02*
X37786001Y-117375001D01*
X38623999Y-122455001D02*
X37786001Y-121617003D01*
X41141999Y-123868999D02*
X39728001Y-122455001D01*
X41141999Y-124987999D02*
X41141999Y-123868999D01*
X37485999Y-117074999D02*
X36636000Y-116225000D01*
X39728001Y-122455001D02*
X38623999Y-122455001D01*
X41892000Y-125738000D02*
X41141999Y-124987999D01*
D16*
X60942000Y-125738000D02*
X61450000Y-126246000D01*
X41892000Y-125738000D02*
X60942000Y-125738000D01*
X64686213Y-130478000D02*
X69772000Y-130478000D01*
X63272000Y-130478000D02*
X64686213Y-130478000D01*
D15*
X37485999Y-114534999D02*
X36636000Y-113685000D01*
X39917001Y-114835001D02*
X37786001Y-114835001D01*
X37786001Y-114835001D02*
X37485999Y-114534999D01*
X41892000Y-116810000D02*
X39917001Y-114835001D01*
X41892000Y-117610000D02*
X41892000Y-116810000D01*
D16*
X82272001Y-115977999D02*
X83272000Y-114978000D01*
X42667001Y-118385001D02*
X79864999Y-118385001D01*
X79864999Y-118385001D02*
X82272001Y-115977999D01*
X41892000Y-117610000D02*
X42667001Y-118385001D01*
X83272000Y-114978000D02*
X89772000Y-114978000D01*
D15*
X37485999Y-109454999D02*
X36636000Y-108605000D01*
X37786001Y-109755001D02*
X37485999Y-109454999D01*
X39728001Y-109755001D02*
X37786001Y-109755001D01*
X40326001Y-109157001D02*
X39728001Y-109755001D01*
X40326001Y-108020697D02*
X40326001Y-109157001D01*
X41892000Y-106454698D02*
X40326001Y-108020697D01*
X41892000Y-105926000D02*
X41892000Y-106454698D01*
D16*
X43272000Y-110478000D02*
X49772000Y-110478000D01*
D15*
X37786001Y-122455001D02*
X37485999Y-122154999D01*
X37786001Y-124397001D02*
X37786001Y-122455001D01*
X38384001Y-124995001D02*
X37786001Y-124397001D01*
X37485999Y-122154999D02*
X36636000Y-121305000D01*
X39753397Y-124995001D02*
X38384001Y-124995001D01*
X41892000Y-127133604D02*
X39753397Y-124995001D01*
X41892000Y-127770000D02*
X41892000Y-127133604D01*
D16*
X41892000Y-127770000D02*
X66022000Y-127770000D01*
X69772000Y-90478000D02*
X63272000Y-90478000D01*
D15*
X40025999Y-110295001D02*
X39176000Y-111145000D01*
X41250628Y-109070372D02*
X40025999Y-110295001D01*
X41250628Y-108581372D02*
X41250628Y-109070372D01*
X41874000Y-107958000D02*
X41250628Y-108581372D01*
D16*
X84564000Y-107958000D02*
X84818000Y-108212000D01*
X41874000Y-107958000D02*
X84564000Y-107958000D01*
X115438000Y-135644000D02*
X120272000Y-140478000D01*
X85072000Y-135644000D02*
X115438000Y-135644000D01*
X120272000Y-140478000D02*
X126772000Y-140478000D01*
D15*
X40025999Y-107755001D02*
X39176000Y-108605000D01*
X40876000Y-106905000D02*
X40025999Y-107755001D01*
X40876000Y-104910000D02*
X40876000Y-106905000D01*
X41892000Y-103894000D02*
X40876000Y-104910000D01*
D16*
X44052410Y-103894000D02*
X47100410Y-100846000D01*
X41892000Y-103894000D02*
X44052410Y-103894000D01*
X85580000Y-100846000D02*
X85834000Y-101100000D01*
X47100410Y-100846000D02*
X85580000Y-100846000D01*
X87702000Y-119478000D02*
X95272000Y-119478000D01*
X86342000Y-118118000D02*
X87702000Y-119478000D01*
D15*
X40326001Y-104328599D02*
X40025999Y-104628601D01*
X41892000Y-99830000D02*
X40326001Y-101395999D01*
X40326001Y-101395999D02*
X40326001Y-104328599D01*
X40025999Y-105215001D02*
X39176000Y-106065000D01*
X40025999Y-104628601D02*
X40025999Y-105215001D01*
D16*
X41892000Y-99830000D02*
X44686000Y-99830000D01*
X45702000Y-98814000D02*
X86850000Y-98814000D01*
X44686000Y-99830000D02*
X45702000Y-98814000D01*
X95182000Y-116848000D02*
X95272000Y-116938000D01*
X86850000Y-116848000D02*
X95182000Y-116848000D01*
D15*
X40475989Y-104744311D02*
X40475989Y-106467013D01*
X37485999Y-106914999D02*
X36636000Y-106065000D01*
X40726011Y-104494289D02*
X40475989Y-104744311D01*
X39728001Y-107215001D02*
X37786001Y-107215001D01*
X41874000Y-101862000D02*
X40726011Y-103009989D01*
X40726011Y-103009989D02*
X40726011Y-104494289D01*
X37786001Y-107215001D02*
X37485999Y-106914999D01*
X40475989Y-106467013D02*
X39728001Y-107215001D01*
D16*
X41874000Y-101862000D02*
X45448000Y-101862000D01*
X47480000Y-99830000D02*
X95232000Y-99830000D01*
X45448000Y-101862000D02*
X47480000Y-99830000D01*
X98272000Y-95478000D02*
X104772000Y-95478000D01*
D15*
X37786001Y-102374999D02*
X37485999Y-102675001D01*
X37786001Y-100432999D02*
X37786001Y-102374999D01*
X38384001Y-99834999D02*
X37786001Y-100432999D01*
X39488003Y-99834999D02*
X38384001Y-99834999D01*
X37485999Y-102675001D02*
X36636000Y-103525000D01*
X41525002Y-97798000D02*
X39488003Y-99834999D01*
X41883000Y-97798000D02*
X41525002Y-97798000D01*
D16*
X88120000Y-97798000D02*
X88628000Y-98306000D01*
X41883000Y-97798000D02*
X88120000Y-97798000D01*
X89384000Y-125478000D02*
X98272000Y-125478000D01*
X88628000Y-124722000D02*
X89384000Y-125478000D01*
X98272000Y-125478000D02*
X104772000Y-125478000D01*
X37485999Y-95055001D02*
X36636000Y-95905000D01*
X37811001Y-94729999D02*
X37485999Y-95055001D01*
X39550003Y-94729999D02*
X37811001Y-94729999D01*
X41462000Y-92857000D02*
X39550003Y-94729999D01*
X50098000Y-92857000D02*
X41462000Y-92857000D01*
D15*
X40331000Y-89670000D02*
X39176000Y-90825000D01*
X41892000Y-89670000D02*
X40331000Y-89670000D01*
D16*
X43149000Y-88413000D02*
X92386841Y-88413000D01*
X41892000Y-89670000D02*
X43149000Y-88413000D01*
D15*
X41874000Y-91702000D02*
X40368000Y-91702000D01*
X37485999Y-91674999D02*
X36636000Y-90825000D01*
X37786001Y-91975001D02*
X37485999Y-91674999D01*
X40094999Y-91975001D02*
X37786001Y-91975001D01*
X40368000Y-91702000D02*
X40094999Y-91975001D01*
D16*
X54714998Y-89416000D02*
X59418000Y-89416000D01*
X44160000Y-89416000D02*
X54714998Y-89416000D01*
X41874000Y-91702000D02*
X44160000Y-89416000D01*
X60272000Y-160478000D02*
X66772000Y-160478000D01*
D15*
X37485999Y-87435001D02*
X36636000Y-88285000D01*
X38025999Y-86895001D02*
X37485999Y-87435001D01*
X40584999Y-86895001D02*
X38025999Y-86895001D01*
X41874000Y-85606000D02*
X40584999Y-86895001D01*
D16*
X80272000Y-160478000D02*
X86772000Y-160478000D01*
X77085000Y-84475000D02*
X77211000Y-84349000D01*
X43005000Y-84475000D02*
X77085000Y-84475000D01*
X77211000Y-84349000D02*
X77706000Y-84349000D01*
X41874000Y-85606000D02*
X43005000Y-84475000D01*
D15*
X38807000Y-83574000D02*
X36636000Y-85745000D01*
X41892000Y-83574000D02*
X38807000Y-83574000D01*
D16*
X41892000Y-83574000D02*
X115298000Y-83574000D01*
X120272000Y-160478000D02*
X126772000Y-160478000D01*
D17*
G36*
X131803494Y-78229605D02*
X132306485Y-78412182D01*
X132753979Y-78705572D01*
X133121977Y-79094039D01*
X133390738Y-79556745D01*
X133548565Y-80077847D01*
X133587001Y-80508517D01*
X133587000Y-174438206D01*
X133520395Y-175009494D01*
X133337819Y-175512483D01*
X133044427Y-175959980D01*
X132655961Y-176327977D01*
X132193253Y-176596739D01*
X131672153Y-176754565D01*
X131241495Y-176793000D01*
X37311794Y-176793000D01*
X36740506Y-176726395D01*
X36237517Y-176543819D01*
X35790020Y-176250427D01*
X35422023Y-175861961D01*
X35153261Y-175399253D01*
X34995435Y-174878153D01*
X34957000Y-174447495D01*
X34957000Y-171033431D01*
X38037000Y-171033431D01*
X38037000Y-171922569D01*
X38377259Y-172744026D01*
X39005974Y-173372741D01*
X39827431Y-173713000D01*
X40716569Y-173713000D01*
X41538026Y-173372741D01*
X42166741Y-172744026D01*
X42507000Y-171922569D01*
X42507000Y-171033431D01*
X126037000Y-171033431D01*
X126037000Y-171922569D01*
X126377259Y-172744026D01*
X127005974Y-173372741D01*
X127827431Y-173713000D01*
X128716569Y-173713000D01*
X129538026Y-173372741D01*
X130166741Y-172744026D01*
X130507000Y-171922569D01*
X130507000Y-171033431D01*
X130166741Y-170211974D01*
X129538026Y-169583259D01*
X128716569Y-169243000D01*
X127827431Y-169243000D01*
X127005974Y-169583259D01*
X126377259Y-170211974D01*
X126037000Y-171033431D01*
X42507000Y-171033431D01*
X42166741Y-170211974D01*
X41538026Y-169583259D01*
X40716569Y-169243000D01*
X39827431Y-169243000D01*
X39005974Y-169583259D01*
X38377259Y-170211974D01*
X38037000Y-171033431D01*
X34957000Y-171033431D01*
X34957000Y-166130532D01*
X59299073Y-166130532D01*
X59397736Y-166397387D01*
X60007461Y-166623908D01*
X60657460Y-166599856D01*
X61146264Y-166397387D01*
X61244927Y-166130532D01*
X65799073Y-166130532D01*
X65897736Y-166397387D01*
X66507461Y-166623908D01*
X67157460Y-166599856D01*
X67646264Y-166397387D01*
X67744927Y-166130532D01*
X79299073Y-166130532D01*
X79397736Y-166397387D01*
X80007461Y-166623908D01*
X80657460Y-166599856D01*
X81146264Y-166397387D01*
X81244927Y-166130532D01*
X85799073Y-166130532D01*
X85897736Y-166397387D01*
X86507461Y-166623908D01*
X87157460Y-166599856D01*
X87646264Y-166397387D01*
X87744927Y-166130532D01*
X99299073Y-166130532D01*
X99397736Y-166397387D01*
X100007461Y-166623908D01*
X100657460Y-166599856D01*
X101146264Y-166397387D01*
X101244927Y-166130532D01*
X105799073Y-166130532D01*
X105897736Y-166397387D01*
X106507461Y-166623908D01*
X107157460Y-166599856D01*
X107646264Y-166397387D01*
X107744927Y-166130532D01*
X119299073Y-166130532D01*
X119397736Y-166397387D01*
X120007461Y-166623908D01*
X120657460Y-166599856D01*
X121146264Y-166397387D01*
X121244927Y-166130532D01*
X125799073Y-166130532D01*
X125897736Y-166397387D01*
X126507461Y-166623908D01*
X127157460Y-166599856D01*
X127646264Y-166397387D01*
X127744927Y-166130532D01*
X126772000Y-165157605D01*
X125799073Y-166130532D01*
X121244927Y-166130532D01*
X120272000Y-165157605D01*
X119299073Y-166130532D01*
X107744927Y-166130532D01*
X106772000Y-165157605D01*
X105799073Y-166130532D01*
X101244927Y-166130532D01*
X100272000Y-165157605D01*
X99299073Y-166130532D01*
X87744927Y-166130532D01*
X86772000Y-165157605D01*
X85799073Y-166130532D01*
X81244927Y-166130532D01*
X80272000Y-165157605D01*
X79299073Y-166130532D01*
X67744927Y-166130532D01*
X66772000Y-165157605D01*
X65799073Y-166130532D01*
X61244927Y-166130532D01*
X60272000Y-165157605D01*
X59299073Y-166130532D01*
X34957000Y-166130532D01*
X34957000Y-164713461D01*
X58626092Y-164713461D01*
X58650144Y-165363460D01*
X58852613Y-165852264D01*
X59119468Y-165950927D01*
X60092395Y-164978000D01*
X60451605Y-164978000D01*
X61424532Y-165950927D01*
X61691387Y-165852264D01*
X61917908Y-165242539D01*
X61898331Y-164713461D01*
X65126092Y-164713461D01*
X65150144Y-165363460D01*
X65352613Y-165852264D01*
X65619468Y-165950927D01*
X66592395Y-164978000D01*
X66951605Y-164978000D01*
X67924532Y-165950927D01*
X68191387Y-165852264D01*
X68417908Y-165242539D01*
X68398331Y-164713461D01*
X78626092Y-164713461D01*
X78650144Y-165363460D01*
X78852613Y-165852264D01*
X79119468Y-165950927D01*
X80092395Y-164978000D01*
X80451605Y-164978000D01*
X81424532Y-165950927D01*
X81691387Y-165852264D01*
X81917908Y-165242539D01*
X81898331Y-164713461D01*
X85126092Y-164713461D01*
X85150144Y-165363460D01*
X85352613Y-165852264D01*
X85619468Y-165950927D01*
X86592395Y-164978000D01*
X86951605Y-164978000D01*
X87924532Y-165950927D01*
X88191387Y-165852264D01*
X88417908Y-165242539D01*
X88398331Y-164713461D01*
X98626092Y-164713461D01*
X98650144Y-165363460D01*
X98852613Y-165852264D01*
X99119468Y-165950927D01*
X100092395Y-164978000D01*
X100451605Y-164978000D01*
X101424532Y-165950927D01*
X101691387Y-165852264D01*
X101917908Y-165242539D01*
X101898331Y-164713461D01*
X105126092Y-164713461D01*
X105150144Y-165363460D01*
X105352613Y-165852264D01*
X105619468Y-165950927D01*
X106592395Y-164978000D01*
X106951605Y-164978000D01*
X107924532Y-165950927D01*
X108191387Y-165852264D01*
X108417908Y-165242539D01*
X108398331Y-164713461D01*
X118626092Y-164713461D01*
X118650144Y-165363460D01*
X118852613Y-165852264D01*
X119119468Y-165950927D01*
X120092395Y-164978000D01*
X120451605Y-164978000D01*
X121424532Y-165950927D01*
X121691387Y-165852264D01*
X121917908Y-165242539D01*
X121898331Y-164713461D01*
X125126092Y-164713461D01*
X125150144Y-165363460D01*
X125352613Y-165852264D01*
X125619468Y-165950927D01*
X126592395Y-164978000D01*
X126951605Y-164978000D01*
X127924532Y-165950927D01*
X128191387Y-165852264D01*
X128417908Y-165242539D01*
X128393856Y-164592540D01*
X128191387Y-164103736D01*
X127924532Y-164005073D01*
X126951605Y-164978000D01*
X126592395Y-164978000D01*
X125619468Y-164005073D01*
X125352613Y-164103736D01*
X125126092Y-164713461D01*
X121898331Y-164713461D01*
X121893856Y-164592540D01*
X121691387Y-164103736D01*
X121424532Y-164005073D01*
X120451605Y-164978000D01*
X120092395Y-164978000D01*
X119119468Y-164005073D01*
X118852613Y-164103736D01*
X118626092Y-164713461D01*
X108398331Y-164713461D01*
X108393856Y-164592540D01*
X108191387Y-164103736D01*
X107924532Y-164005073D01*
X106951605Y-164978000D01*
X106592395Y-164978000D01*
X105619468Y-164005073D01*
X105352613Y-164103736D01*
X105126092Y-164713461D01*
X101898331Y-164713461D01*
X101893856Y-164592540D01*
X101691387Y-164103736D01*
X101424532Y-164005073D01*
X100451605Y-164978000D01*
X100092395Y-164978000D01*
X99119468Y-164005073D01*
X98852613Y-164103736D01*
X98626092Y-164713461D01*
X88398331Y-164713461D01*
X88393856Y-164592540D01*
X88191387Y-164103736D01*
X87924532Y-164005073D01*
X86951605Y-164978000D01*
X86592395Y-164978000D01*
X85619468Y-164005073D01*
X85352613Y-164103736D01*
X85126092Y-164713461D01*
X81898331Y-164713461D01*
X81893856Y-164592540D01*
X81691387Y-164103736D01*
X81424532Y-164005073D01*
X80451605Y-164978000D01*
X80092395Y-164978000D01*
X79119468Y-164005073D01*
X78852613Y-164103736D01*
X78626092Y-164713461D01*
X68398331Y-164713461D01*
X68393856Y-164592540D01*
X68191387Y-164103736D01*
X67924532Y-164005073D01*
X66951605Y-164978000D01*
X66592395Y-164978000D01*
X65619468Y-164005073D01*
X65352613Y-164103736D01*
X65126092Y-164713461D01*
X61898331Y-164713461D01*
X61893856Y-164592540D01*
X61691387Y-164103736D01*
X61424532Y-164005073D01*
X60451605Y-164978000D01*
X60092395Y-164978000D01*
X59119468Y-164005073D01*
X58852613Y-164103736D01*
X58626092Y-164713461D01*
X34957000Y-164713461D01*
X34957000Y-163825468D01*
X59299073Y-163825468D01*
X60272000Y-164798395D01*
X61244927Y-163825468D01*
X65799073Y-163825468D01*
X66772000Y-164798395D01*
X67744927Y-163825468D01*
X79299073Y-163825468D01*
X80272000Y-164798395D01*
X81244927Y-163825468D01*
X85799073Y-163825468D01*
X86772000Y-164798395D01*
X87744927Y-163825468D01*
X99299073Y-163825468D01*
X100272000Y-164798395D01*
X101244927Y-163825468D01*
X105799073Y-163825468D01*
X106772000Y-164798395D01*
X107744927Y-163825468D01*
X119299073Y-163825468D01*
X120272000Y-164798395D01*
X121244927Y-163825468D01*
X125799073Y-163825468D01*
X126772000Y-164798395D01*
X127744927Y-163825468D01*
X127646264Y-163558613D01*
X127036539Y-163332092D01*
X126386540Y-163356144D01*
X125897736Y-163558613D01*
X125799073Y-163825468D01*
X121244927Y-163825468D01*
X121146264Y-163558613D01*
X120536539Y-163332092D01*
X119886540Y-163356144D01*
X119397736Y-163558613D01*
X119299073Y-163825468D01*
X107744927Y-163825468D01*
X107646264Y-163558613D01*
X107036539Y-163332092D01*
X106386540Y-163356144D01*
X105897736Y-163558613D01*
X105799073Y-163825468D01*
X101244927Y-163825468D01*
X101146264Y-163558613D01*
X100536539Y-163332092D01*
X99886540Y-163356144D01*
X99397736Y-163558613D01*
X99299073Y-163825468D01*
X87744927Y-163825468D01*
X87646264Y-163558613D01*
X87036539Y-163332092D01*
X86386540Y-163356144D01*
X85897736Y-163558613D01*
X85799073Y-163825468D01*
X81244927Y-163825468D01*
X81146264Y-163558613D01*
X80536539Y-163332092D01*
X79886540Y-163356144D01*
X79397736Y-163558613D01*
X79299073Y-163825468D01*
X67744927Y-163825468D01*
X67646264Y-163558613D01*
X67036539Y-163332092D01*
X66386540Y-163356144D01*
X65897736Y-163558613D01*
X65799073Y-163825468D01*
X61244927Y-163825468D01*
X61146264Y-163558613D01*
X60536539Y-163332092D01*
X59886540Y-163356144D01*
X59397736Y-163558613D01*
X59299073Y-163825468D01*
X34957000Y-163825468D01*
X34957000Y-160152778D01*
X58637000Y-160152778D01*
X58637000Y-160803222D01*
X58885914Y-161404153D01*
X59345847Y-161864086D01*
X59946778Y-162113000D01*
X60597222Y-162113000D01*
X61198153Y-161864086D01*
X61658086Y-161404153D01*
X61726909Y-161238000D01*
X65317091Y-161238000D01*
X65385914Y-161404153D01*
X65845847Y-161864086D01*
X66446778Y-162113000D01*
X67097222Y-162113000D01*
X67698153Y-161864086D01*
X68158086Y-161404153D01*
X68407000Y-160803222D01*
X68407000Y-160152778D01*
X78637000Y-160152778D01*
X78637000Y-160803222D01*
X78885914Y-161404153D01*
X79345847Y-161864086D01*
X79946778Y-162113000D01*
X80597222Y-162113000D01*
X81198153Y-161864086D01*
X81658086Y-161404153D01*
X81726909Y-161238000D01*
X85317091Y-161238000D01*
X85385914Y-161404153D01*
X85845847Y-161864086D01*
X86446778Y-162113000D01*
X87097222Y-162113000D01*
X87698153Y-161864086D01*
X88158086Y-161404153D01*
X88407000Y-160803222D01*
X88407000Y-160152778D01*
X98637000Y-160152778D01*
X98637000Y-160803222D01*
X98885914Y-161404153D01*
X99345847Y-161864086D01*
X99946778Y-162113000D01*
X100597222Y-162113000D01*
X101198153Y-161864086D01*
X101658086Y-161404153D01*
X101726909Y-161238000D01*
X105317091Y-161238000D01*
X105385914Y-161404153D01*
X105845847Y-161864086D01*
X106446778Y-162113000D01*
X107097222Y-162113000D01*
X107698153Y-161864086D01*
X108158086Y-161404153D01*
X108407000Y-160803222D01*
X108407000Y-160152778D01*
X118637000Y-160152778D01*
X118637000Y-160803222D01*
X118885914Y-161404153D01*
X119345847Y-161864086D01*
X119946778Y-162113000D01*
X120597222Y-162113000D01*
X121198153Y-161864086D01*
X121658086Y-161404153D01*
X121726909Y-161238000D01*
X125317091Y-161238000D01*
X125385914Y-161404153D01*
X125845847Y-161864086D01*
X126446778Y-162113000D01*
X127097222Y-162113000D01*
X127698153Y-161864086D01*
X128158086Y-161404153D01*
X128407000Y-160803222D01*
X128407000Y-160152778D01*
X128158086Y-159551847D01*
X127698153Y-159091914D01*
X127097222Y-158843000D01*
X126446778Y-158843000D01*
X125845847Y-159091914D01*
X125385914Y-159551847D01*
X125317091Y-159718000D01*
X121726909Y-159718000D01*
X121658086Y-159551847D01*
X121198153Y-159091914D01*
X120597222Y-158843000D01*
X119946778Y-158843000D01*
X119345847Y-159091914D01*
X118885914Y-159551847D01*
X118637000Y-160152778D01*
X108407000Y-160152778D01*
X108158086Y-159551847D01*
X107698153Y-159091914D01*
X107097222Y-158843000D01*
X106446778Y-158843000D01*
X105845847Y-159091914D01*
X105385914Y-159551847D01*
X105317091Y-159718000D01*
X101726909Y-159718000D01*
X101658086Y-159551847D01*
X101198153Y-159091914D01*
X100597222Y-158843000D01*
X99946778Y-158843000D01*
X99345847Y-159091914D01*
X98885914Y-159551847D01*
X98637000Y-160152778D01*
X88407000Y-160152778D01*
X88158086Y-159551847D01*
X87698153Y-159091914D01*
X87097222Y-158843000D01*
X86446778Y-158843000D01*
X85845847Y-159091914D01*
X85385914Y-159551847D01*
X85317091Y-159718000D01*
X81726909Y-159718000D01*
X81658086Y-159551847D01*
X81198153Y-159091914D01*
X80597222Y-158843000D01*
X79946778Y-158843000D01*
X79345847Y-159091914D01*
X78885914Y-159551847D01*
X78637000Y-160152778D01*
X68407000Y-160152778D01*
X68158086Y-159551847D01*
X67698153Y-159091914D01*
X67097222Y-158843000D01*
X66446778Y-158843000D01*
X65845847Y-159091914D01*
X65385914Y-159551847D01*
X65317091Y-159718000D01*
X61726909Y-159718000D01*
X61658086Y-159551847D01*
X61198153Y-159091914D01*
X60597222Y-158843000D01*
X59946778Y-158843000D01*
X59345847Y-159091914D01*
X58885914Y-159551847D01*
X58637000Y-160152778D01*
X34957000Y-160152778D01*
X34957000Y-154130532D01*
X37299073Y-154130532D01*
X37397736Y-154397387D01*
X38007461Y-154623908D01*
X38657460Y-154599856D01*
X39146264Y-154397387D01*
X39244927Y-154130532D01*
X38272000Y-153157605D01*
X37299073Y-154130532D01*
X34957000Y-154130532D01*
X34957000Y-152713461D01*
X36626092Y-152713461D01*
X36650144Y-153363460D01*
X36852613Y-153852264D01*
X37119468Y-153950927D01*
X38092395Y-152978000D01*
X38451605Y-152978000D01*
X39424532Y-153950927D01*
X39691387Y-153852264D01*
X39917908Y-153242539D01*
X39893856Y-152592540D01*
X39691387Y-152103736D01*
X39424532Y-152005073D01*
X38451605Y-152978000D01*
X38092395Y-152978000D01*
X37119468Y-152005073D01*
X36852613Y-152103736D01*
X36626092Y-152713461D01*
X34957000Y-152713461D01*
X34957000Y-151825468D01*
X37299073Y-151825468D01*
X38272000Y-152798395D01*
X39244927Y-151825468D01*
X39146264Y-151558613D01*
X38536539Y-151332092D01*
X37886540Y-151356144D01*
X37397736Y-151558613D01*
X37299073Y-151825468D01*
X34957000Y-151825468D01*
X34957000Y-148152778D01*
X36637000Y-148152778D01*
X36637000Y-148803222D01*
X36885914Y-149404153D01*
X37345847Y-149864086D01*
X37946778Y-150113000D01*
X38597222Y-150113000D01*
X39198153Y-149864086D01*
X39658086Y-149404153D01*
X39907000Y-148803222D01*
X39907000Y-148238001D01*
X43137000Y-148238001D01*
X43137000Y-148803222D01*
X43385914Y-149404153D01*
X43845847Y-149864086D01*
X44446778Y-150113000D01*
X45097222Y-150113000D01*
X45698153Y-149864086D01*
X46158086Y-149404153D01*
X46282016Y-149104959D01*
X46384182Y-149351607D01*
X46689397Y-149656822D01*
X47088180Y-149822004D01*
X47519820Y-149822004D01*
X47918603Y-149656822D01*
X48078421Y-149497004D01*
X55696305Y-149497004D01*
X55695908Y-149499000D01*
X55811161Y-150078418D01*
X55934495Y-150263000D01*
X41728421Y-150263000D01*
X41568603Y-150103182D01*
X41169820Y-149938000D01*
X40738180Y-149938000D01*
X40339397Y-150103182D01*
X40034182Y-150408397D01*
X39869000Y-150807180D01*
X39869000Y-151238820D01*
X40034182Y-151637603D01*
X40339397Y-151942818D01*
X40738180Y-152108000D01*
X41169820Y-152108000D01*
X41568603Y-151942818D01*
X41728421Y-151783000D01*
X43814774Y-151783000D01*
X43799073Y-151825468D01*
X44772000Y-152798395D01*
X45744927Y-151825468D01*
X45729226Y-151783000D01*
X55746829Y-151783000D01*
X55695908Y-152039000D01*
X55811161Y-152618418D01*
X56139375Y-153109625D01*
X56157619Y-153121816D01*
X56112235Y-153130843D01*
X55902191Y-153271191D01*
X55761843Y-153481235D01*
X55712560Y-153729000D01*
X55712560Y-153744000D01*
X54099425Y-153744000D01*
X54014603Y-153659178D01*
X53615820Y-153493996D01*
X53184180Y-153493996D01*
X52785397Y-153659178D01*
X52480182Y-153964393D01*
X52466261Y-153998000D01*
X45971608Y-153998000D01*
X45924534Y-153950926D01*
X46191387Y-153852264D01*
X46417908Y-153242539D01*
X46393856Y-152592540D01*
X46191387Y-152103736D01*
X45924532Y-152005073D01*
X44951605Y-152978000D01*
X44965748Y-152992143D01*
X44786143Y-153171748D01*
X44772000Y-153157605D01*
X44757858Y-153171748D01*
X44578253Y-152992143D01*
X44592395Y-152978000D01*
X43619468Y-152005073D01*
X43352613Y-152103736D01*
X43126092Y-152713461D01*
X43150144Y-153363460D01*
X43352613Y-153852264D01*
X43619466Y-153950926D01*
X43572392Y-153998000D01*
X41653411Y-153998000D01*
X41568593Y-153913182D01*
X41169810Y-153748000D01*
X40738170Y-153748000D01*
X40339387Y-153913182D01*
X40034172Y-154218397D01*
X39868990Y-154617180D01*
X39868990Y-155048820D01*
X40034172Y-155447603D01*
X40339387Y-155752818D01*
X40738170Y-155918000D01*
X41169810Y-155918000D01*
X41568593Y-155752818D01*
X41653411Y-155668000D01*
X53063763Y-155668000D01*
X53145996Y-155684357D01*
X53228229Y-155668000D01*
X53228233Y-155668000D01*
X53248362Y-155663996D01*
X53615820Y-155663996D01*
X54014603Y-155498814D01*
X54099417Y-155414000D01*
X55712560Y-155414000D01*
X55712560Y-155429000D01*
X55761843Y-155676765D01*
X55902191Y-155886809D01*
X56112235Y-156027157D01*
X56360000Y-156076440D01*
X58060000Y-156076440D01*
X58307765Y-156027157D01*
X58517809Y-155886809D01*
X58658157Y-155676765D01*
X58707440Y-155429000D01*
X58707440Y-153729000D01*
X58658157Y-153481235D01*
X58517809Y-153271191D01*
X58307765Y-153130843D01*
X58262381Y-153121816D01*
X58280625Y-153109625D01*
X58608839Y-152618418D01*
X58724092Y-152039000D01*
X58608839Y-151459582D01*
X58280625Y-150968375D01*
X57982239Y-150769000D01*
X58280625Y-150569625D01*
X58608839Y-150078418D01*
X58724092Y-149499000D01*
X58608839Y-148919582D01*
X58280625Y-148428375D01*
X57982239Y-148229000D01*
X58280625Y-148029625D01*
X58608839Y-147538418D01*
X58724092Y-146959000D01*
X58608839Y-146379582D01*
X58442430Y-146130532D01*
X119299073Y-146130532D01*
X119397736Y-146397387D01*
X120007461Y-146623908D01*
X120657460Y-146599856D01*
X121146264Y-146397387D01*
X121244927Y-146130532D01*
X125799073Y-146130532D01*
X125897736Y-146397387D01*
X126507461Y-146623908D01*
X127157460Y-146599856D01*
X127646264Y-146397387D01*
X127744927Y-146130532D01*
X126772000Y-145157605D01*
X125799073Y-146130532D01*
X121244927Y-146130532D01*
X120272000Y-145157605D01*
X119299073Y-146130532D01*
X58442430Y-146130532D01*
X58280625Y-145888375D01*
X57982239Y-145689000D01*
X58280625Y-145489625D01*
X58608839Y-144998418D01*
X58665520Y-144713461D01*
X118626092Y-144713461D01*
X118650144Y-145363460D01*
X118852613Y-145852264D01*
X119119468Y-145950927D01*
X120092395Y-144978000D01*
X120451605Y-144978000D01*
X121424532Y-145950927D01*
X121691387Y-145852264D01*
X121917908Y-145242539D01*
X121898331Y-144713461D01*
X125126092Y-144713461D01*
X125150144Y-145363460D01*
X125352613Y-145852264D01*
X125619468Y-145950927D01*
X126592395Y-144978000D01*
X126951605Y-144978000D01*
X127924532Y-145950927D01*
X128191387Y-145852264D01*
X128417908Y-145242539D01*
X128393856Y-144592540D01*
X128191387Y-144103736D01*
X127924532Y-144005073D01*
X126951605Y-144978000D01*
X126592395Y-144978000D01*
X125619468Y-144005073D01*
X125352613Y-144103736D01*
X125126092Y-144713461D01*
X121898331Y-144713461D01*
X121893856Y-144592540D01*
X121691387Y-144103736D01*
X121424532Y-144005073D01*
X120451605Y-144978000D01*
X120092395Y-144978000D01*
X119119468Y-144005073D01*
X118852613Y-144103736D01*
X118626092Y-144713461D01*
X58665520Y-144713461D01*
X58724092Y-144419000D01*
X58608839Y-143839582D01*
X58599409Y-143825468D01*
X119299073Y-143825468D01*
X120272000Y-144798395D01*
X121244927Y-143825468D01*
X125799073Y-143825468D01*
X126772000Y-144798395D01*
X127744927Y-143825468D01*
X127646264Y-143558613D01*
X127036539Y-143332092D01*
X126386540Y-143356144D01*
X125897736Y-143558613D01*
X125799073Y-143825468D01*
X121244927Y-143825468D01*
X121146264Y-143558613D01*
X120536539Y-143332092D01*
X119886540Y-143356144D01*
X119397736Y-143558613D01*
X119299073Y-143825468D01*
X58599409Y-143825468D01*
X58280625Y-143348375D01*
X57982239Y-143149000D01*
X58280625Y-142949625D01*
X58608839Y-142458418D01*
X58724092Y-141879000D01*
X58608839Y-141299582D01*
X58280625Y-140808375D01*
X57961522Y-140595157D01*
X58091358Y-140534183D01*
X58481645Y-140105924D01*
X58651476Y-139695890D01*
X58530155Y-139466000D01*
X57337000Y-139466000D01*
X57337000Y-139486000D01*
X57083000Y-139486000D01*
X57083000Y-139466000D01*
X55889845Y-139466000D01*
X55768524Y-139695890D01*
X55938355Y-140105924D01*
X56328642Y-140534183D01*
X56458478Y-140595157D01*
X56139375Y-140808375D01*
X55931822Y-141119000D01*
X48910802Y-141119000D01*
X46773912Y-138982110D01*
X55768524Y-138982110D01*
X55889845Y-139212000D01*
X57083000Y-139212000D01*
X57083000Y-138018181D01*
X57337000Y-138018181D01*
X57337000Y-139212000D01*
X58530155Y-139212000D01*
X58651476Y-138982110D01*
X58481645Y-138572076D01*
X58397878Y-138480159D01*
X84921000Y-138480159D01*
X84921000Y-139269841D01*
X85223199Y-139999412D01*
X85781588Y-140557801D01*
X86511159Y-140860000D01*
X87300841Y-140860000D01*
X88030412Y-140557801D01*
X88588801Y-139999412D01*
X88891000Y-139269841D01*
X88891000Y-138480159D01*
X88588801Y-137750588D01*
X88030412Y-137192199D01*
X87300841Y-136890000D01*
X86511159Y-136890000D01*
X85781588Y-137192199D01*
X85223199Y-137750588D01*
X84921000Y-138480159D01*
X58397878Y-138480159D01*
X58091358Y-138143817D01*
X57566892Y-137897514D01*
X57337000Y-138018181D01*
X57083000Y-138018181D01*
X56853108Y-137897514D01*
X56328642Y-138143817D01*
X55938355Y-138572076D01*
X55768524Y-138982110D01*
X46773912Y-138982110D01*
X45087000Y-137295199D01*
X45087000Y-137219180D01*
X44921818Y-136820397D01*
X44616603Y-136515182D01*
X44217820Y-136350000D01*
X43786180Y-136350000D01*
X43387397Y-136515182D01*
X43082182Y-136820397D01*
X42917000Y-137219180D01*
X42917000Y-137650820D01*
X43082182Y-138049603D01*
X43387397Y-138354818D01*
X43786180Y-138520000D01*
X44162199Y-138520000D01*
X48005671Y-142363473D01*
X48048071Y-142426929D01*
X48299463Y-142594904D01*
X48521148Y-142639000D01*
X48521152Y-142639000D01*
X48595999Y-142653888D01*
X48670846Y-142639000D01*
X55931822Y-142639000D01*
X56139375Y-142949625D01*
X56437761Y-143149000D01*
X56139375Y-143348375D01*
X55931822Y-143659000D01*
X49390014Y-143659000D01*
X49239818Y-143296397D01*
X48934603Y-142991182D01*
X48535820Y-142826000D01*
X48104180Y-142826000D01*
X47705397Y-142991182D01*
X47400182Y-143296397D01*
X47235000Y-143695180D01*
X47235000Y-144126820D01*
X47400182Y-144525603D01*
X47705397Y-144830818D01*
X48104180Y-144996000D01*
X48323579Y-144996000D01*
X48343524Y-145009327D01*
X48343526Y-145009329D01*
X48468902Y-145093102D01*
X48531463Y-145134904D01*
X48753148Y-145179000D01*
X48753152Y-145179000D01*
X48827999Y-145193888D01*
X48902846Y-145179000D01*
X55931822Y-145179000D01*
X56104212Y-145437000D01*
X47062421Y-145437000D01*
X46902603Y-145277182D01*
X46503820Y-145112000D01*
X46072180Y-145112000D01*
X45673397Y-145277182D01*
X45368182Y-145582397D01*
X45203000Y-145981180D01*
X45203000Y-146412820D01*
X45368182Y-146811603D01*
X45613378Y-147056799D01*
X45097222Y-146843000D01*
X44446778Y-146843000D01*
X44288029Y-146908756D01*
X44068538Y-146762097D01*
X43846853Y-146718001D01*
X43846848Y-146718001D01*
X43772001Y-146703113D01*
X43697154Y-146718001D01*
X39346845Y-146718001D01*
X39271998Y-146703113D01*
X39197151Y-146718001D01*
X39197147Y-146718001D01*
X38975462Y-146762097D01*
X38755971Y-146908756D01*
X38597222Y-146843000D01*
X37946778Y-146843000D01*
X37345847Y-147091914D01*
X36885914Y-147551847D01*
X36637000Y-148152778D01*
X34957000Y-148152778D01*
X34957000Y-138480159D01*
X35921000Y-138480159D01*
X35921000Y-139269841D01*
X36223199Y-139999412D01*
X36781588Y-140557801D01*
X37511159Y-140860000D01*
X38300841Y-140860000D01*
X39030412Y-140557801D01*
X39588801Y-139999412D01*
X39891000Y-139269841D01*
X39891000Y-138480159D01*
X39588801Y-137750588D01*
X39030412Y-137192199D01*
X38300841Y-136890000D01*
X37511159Y-136890000D01*
X36781588Y-137192199D01*
X36223199Y-137750588D01*
X35921000Y-138480159D01*
X34957000Y-138480159D01*
X34957000Y-136130532D01*
X62299073Y-136130532D01*
X62397736Y-136397387D01*
X63007461Y-136623908D01*
X63657460Y-136599856D01*
X64146264Y-136397387D01*
X64244927Y-136130532D01*
X68799073Y-136130532D01*
X68897736Y-136397387D01*
X69507461Y-136623908D01*
X70157460Y-136599856D01*
X70646264Y-136397387D01*
X70744927Y-136130532D01*
X69772000Y-135157605D01*
X68799073Y-136130532D01*
X64244927Y-136130532D01*
X63272000Y-135157605D01*
X62299073Y-136130532D01*
X34957000Y-136130532D01*
X34957000Y-85745000D01*
X35121908Y-85745000D01*
X35237161Y-86324418D01*
X35565375Y-86815625D01*
X35863761Y-87015000D01*
X35565375Y-87214375D01*
X35237161Y-87705582D01*
X35121908Y-88285000D01*
X35237161Y-88864418D01*
X35565375Y-89355625D01*
X35863761Y-89555000D01*
X35565375Y-89754375D01*
X35237161Y-90245582D01*
X35121908Y-90825000D01*
X35237161Y-91404418D01*
X35565375Y-91895625D01*
X35884478Y-92108843D01*
X35754642Y-92169817D01*
X35364355Y-92598076D01*
X35194524Y-93008110D01*
X35315845Y-93238000D01*
X36509000Y-93238000D01*
X36509000Y-93218000D01*
X36763000Y-93218000D01*
X36763000Y-93238000D01*
X36783000Y-93238000D01*
X36783000Y-93492000D01*
X36763000Y-93492000D01*
X36763000Y-93512000D01*
X36509000Y-93512000D01*
X36509000Y-93492000D01*
X35315845Y-93492000D01*
X35194524Y-93721890D01*
X35364355Y-94131924D01*
X35754642Y-94560183D01*
X35884478Y-94621157D01*
X35565375Y-94834375D01*
X35237161Y-95325582D01*
X35121908Y-95905000D01*
X35237161Y-96484418D01*
X35565375Y-96975625D01*
X35884478Y-97188843D01*
X35754642Y-97249817D01*
X35364355Y-97678076D01*
X35194524Y-98088110D01*
X35315845Y-98318000D01*
X36509000Y-98318000D01*
X36509000Y-98298000D01*
X36763000Y-98298000D01*
X36763000Y-98318000D01*
X36783000Y-98318000D01*
X36783000Y-98572000D01*
X36763000Y-98572000D01*
X36763000Y-98592000D01*
X36509000Y-98592000D01*
X36509000Y-98572000D01*
X35315845Y-98572000D01*
X35194524Y-98801890D01*
X35364355Y-99211924D01*
X35754642Y-99640183D01*
X35884478Y-99701157D01*
X35565375Y-99914375D01*
X35237161Y-100405582D01*
X35121908Y-100985000D01*
X35237161Y-101564418D01*
X35565375Y-102055625D01*
X35863761Y-102255000D01*
X35565375Y-102454375D01*
X35237161Y-102945582D01*
X35121908Y-103525000D01*
X35237161Y-104104418D01*
X35565375Y-104595625D01*
X35863761Y-104795000D01*
X35565375Y-104994375D01*
X35237161Y-105485582D01*
X35121908Y-106065000D01*
X35237161Y-106644418D01*
X35565375Y-107135625D01*
X35863761Y-107335000D01*
X35565375Y-107534375D01*
X35237161Y-108025582D01*
X35121908Y-108605000D01*
X35237161Y-109184418D01*
X35565375Y-109675625D01*
X35884478Y-109888843D01*
X35754642Y-109949817D01*
X35364355Y-110378076D01*
X35194524Y-110788110D01*
X35315845Y-111018000D01*
X36509000Y-111018000D01*
X36509000Y-110998000D01*
X36763000Y-110998000D01*
X36763000Y-111018000D01*
X36783000Y-111018000D01*
X36783000Y-111272000D01*
X36763000Y-111272000D01*
X36763000Y-111292000D01*
X36509000Y-111292000D01*
X36509000Y-111272000D01*
X35315845Y-111272000D01*
X35194524Y-111501890D01*
X35364355Y-111911924D01*
X35754642Y-112340183D01*
X35884478Y-112401157D01*
X35565375Y-112614375D01*
X35237161Y-113105582D01*
X35121908Y-113685000D01*
X35237161Y-114264418D01*
X35565375Y-114755625D01*
X35863761Y-114955000D01*
X35565375Y-115154375D01*
X35237161Y-115645582D01*
X35121908Y-116225000D01*
X35237161Y-116804418D01*
X35565375Y-117295625D01*
X35884478Y-117508843D01*
X35754642Y-117569817D01*
X35364355Y-117998076D01*
X35194524Y-118408110D01*
X35315845Y-118638000D01*
X36509000Y-118638000D01*
X36509000Y-118618000D01*
X36763000Y-118618000D01*
X36763000Y-118638000D01*
X36783000Y-118638000D01*
X36783000Y-118892000D01*
X36763000Y-118892000D01*
X36763000Y-118912000D01*
X36509000Y-118912000D01*
X36509000Y-118892000D01*
X35315845Y-118892000D01*
X35194524Y-119121890D01*
X35364355Y-119531924D01*
X35754642Y-119960183D01*
X35884478Y-120021157D01*
X35565375Y-120234375D01*
X35237161Y-120725582D01*
X35121908Y-121305000D01*
X35237161Y-121884418D01*
X35565375Y-122375625D01*
X35863761Y-122575000D01*
X35565375Y-122774375D01*
X35237161Y-123265582D01*
X35121908Y-123845000D01*
X35237161Y-124424418D01*
X35565375Y-124915625D01*
X35863761Y-125115000D01*
X35565375Y-125314375D01*
X35237161Y-125805582D01*
X35121908Y-126385000D01*
X35237161Y-126964418D01*
X35565375Y-127455625D01*
X35884478Y-127668843D01*
X35754642Y-127729817D01*
X35364355Y-128158076D01*
X35194524Y-128568110D01*
X35315845Y-128798000D01*
X36509000Y-128798000D01*
X36509000Y-128778000D01*
X36763000Y-128778000D01*
X36763000Y-128798000D01*
X36783000Y-128798000D01*
X36783000Y-129052000D01*
X36763000Y-129052000D01*
X36763000Y-129072000D01*
X36509000Y-129072000D01*
X36509000Y-129052000D01*
X35315845Y-129052000D01*
X35194524Y-129281890D01*
X35364355Y-129691924D01*
X35754642Y-130120183D01*
X35884478Y-130181157D01*
X35565375Y-130394375D01*
X35237161Y-130885582D01*
X35121908Y-131465000D01*
X35237161Y-132044418D01*
X35565375Y-132535625D01*
X35863761Y-132735000D01*
X35565375Y-132934375D01*
X35237161Y-133425582D01*
X35121908Y-134005000D01*
X35237161Y-134584418D01*
X35565375Y-135075625D01*
X36056582Y-135403839D01*
X36489744Y-135490000D01*
X36782256Y-135490000D01*
X37215418Y-135403839D01*
X37706625Y-135075625D01*
X37718816Y-135057381D01*
X37727843Y-135102765D01*
X37868191Y-135312809D01*
X38078235Y-135453157D01*
X38326000Y-135502440D01*
X40026000Y-135502440D01*
X40273765Y-135453157D01*
X40483809Y-135312809D01*
X40624157Y-135102765D01*
X40673440Y-134855000D01*
X40673440Y-134713461D01*
X61626092Y-134713461D01*
X61650144Y-135363460D01*
X61852613Y-135852264D01*
X62119468Y-135950927D01*
X63092395Y-134978000D01*
X63451605Y-134978000D01*
X64424532Y-135950927D01*
X64691387Y-135852264D01*
X64917908Y-135242539D01*
X64898331Y-134713461D01*
X68126092Y-134713461D01*
X68150144Y-135363460D01*
X68352613Y-135852264D01*
X68619468Y-135950927D01*
X69592395Y-134978000D01*
X69951605Y-134978000D01*
X70924532Y-135950927D01*
X71191387Y-135852264D01*
X71348939Y-135428180D01*
X83987000Y-135428180D01*
X83987000Y-135859820D01*
X84152182Y-136258603D01*
X84457397Y-136563818D01*
X84856180Y-136729000D01*
X85287820Y-136729000D01*
X85686603Y-136563818D01*
X85846421Y-136404000D01*
X115123199Y-136404000D01*
X118705823Y-139986625D01*
X118637000Y-140152778D01*
X118637000Y-140803222D01*
X118885914Y-141404153D01*
X119345847Y-141864086D01*
X119946778Y-142113000D01*
X120597222Y-142113000D01*
X121198153Y-141864086D01*
X121658086Y-141404153D01*
X121726909Y-141238000D01*
X125317091Y-141238000D01*
X125385914Y-141404153D01*
X125845847Y-141864086D01*
X126446778Y-142113000D01*
X127097222Y-142113000D01*
X127698153Y-141864086D01*
X128158086Y-141404153D01*
X128407000Y-140803222D01*
X128407000Y-140152778D01*
X128158086Y-139551847D01*
X127698153Y-139091914D01*
X127097222Y-138843000D01*
X126446778Y-138843000D01*
X125845847Y-139091914D01*
X125385914Y-139551847D01*
X125317091Y-139718000D01*
X121726909Y-139718000D01*
X121658086Y-139551847D01*
X121198153Y-139091914D01*
X120597222Y-138843000D01*
X119946778Y-138843000D01*
X119780625Y-138911823D01*
X116028331Y-135159530D01*
X115985929Y-135096071D01*
X115734537Y-134928096D01*
X115512852Y-134884000D01*
X115512847Y-134884000D01*
X115438000Y-134869112D01*
X115363153Y-134884000D01*
X85846421Y-134884000D01*
X85686603Y-134724182D01*
X85287820Y-134559000D01*
X84856180Y-134559000D01*
X84457397Y-134724182D01*
X84152182Y-135029397D01*
X83987000Y-135428180D01*
X71348939Y-135428180D01*
X71417908Y-135242539D01*
X71393856Y-134592540D01*
X71191387Y-134103736D01*
X70924532Y-134005073D01*
X69951605Y-134978000D01*
X69592395Y-134978000D01*
X68619468Y-134005073D01*
X68352613Y-134103736D01*
X68126092Y-134713461D01*
X64898331Y-134713461D01*
X64893856Y-134592540D01*
X64691387Y-134103736D01*
X64424532Y-134005073D01*
X63451605Y-134978000D01*
X63092395Y-134978000D01*
X62119468Y-134005073D01*
X61852613Y-134103736D01*
X61626092Y-134713461D01*
X40673440Y-134713461D01*
X40673440Y-134447000D01*
X42970579Y-134447000D01*
X43055397Y-134531818D01*
X43454180Y-134697000D01*
X43885820Y-134697000D01*
X44284603Y-134531818D01*
X44589818Y-134226603D01*
X44755000Y-133827820D01*
X44755000Y-133825468D01*
X62299073Y-133825468D01*
X63272000Y-134798395D01*
X64244927Y-133825468D01*
X68799073Y-133825468D01*
X69772000Y-134798395D01*
X70744927Y-133825468D01*
X70646264Y-133558613D01*
X70036539Y-133332092D01*
X69386540Y-133356144D01*
X68897736Y-133558613D01*
X68799073Y-133825468D01*
X64244927Y-133825468D01*
X64146264Y-133558613D01*
X63536539Y-133332092D01*
X62886540Y-133356144D01*
X62397736Y-133558613D01*
X62299073Y-133825468D01*
X44755000Y-133825468D01*
X44755000Y-133508001D01*
X47558580Y-133508001D01*
X47705397Y-133654818D01*
X48104180Y-133820000D01*
X48535820Y-133820000D01*
X48934603Y-133654818D01*
X49239818Y-133349603D01*
X49405000Y-132950820D01*
X49405000Y-132519180D01*
X49239818Y-132120397D01*
X48934603Y-131815182D01*
X48535820Y-131650000D01*
X48344604Y-131650000D01*
X48223818Y-131358397D01*
X47918603Y-131053182D01*
X47519820Y-130888000D01*
X47328604Y-130888000D01*
X47207818Y-130596397D01*
X46902603Y-130291182D01*
X46503820Y-130126000D01*
X46072180Y-130126000D01*
X45673397Y-130291182D01*
X45513579Y-130451000D01*
X42777421Y-130451000D01*
X42811818Y-130416603D01*
X42977000Y-130017820D01*
X42977000Y-129912999D01*
X61736320Y-129912999D01*
X61637000Y-130152778D01*
X61637000Y-130803222D01*
X61885914Y-131404153D01*
X62345847Y-131864086D01*
X62946778Y-132113000D01*
X63597222Y-132113000D01*
X64198153Y-131864086D01*
X64658086Y-131404153D01*
X64726909Y-131238000D01*
X68317091Y-131238000D01*
X68385914Y-131404153D01*
X68845847Y-131864086D01*
X69446778Y-132113000D01*
X70097222Y-132113000D01*
X70698153Y-131864086D01*
X71158086Y-131404153D01*
X71271423Y-131130532D01*
X97299073Y-131130532D01*
X97397736Y-131397387D01*
X98007461Y-131623908D01*
X98657460Y-131599856D01*
X99146264Y-131397387D01*
X99244927Y-131130532D01*
X103799073Y-131130532D01*
X103897736Y-131397387D01*
X104507461Y-131623908D01*
X105157460Y-131599856D01*
X105646264Y-131397387D01*
X105744927Y-131130532D01*
X119299073Y-131130532D01*
X119397736Y-131397387D01*
X120007461Y-131623908D01*
X120657460Y-131599856D01*
X121146264Y-131397387D01*
X121244927Y-131130532D01*
X125799073Y-131130532D01*
X125897736Y-131397387D01*
X126507461Y-131623908D01*
X127157460Y-131599856D01*
X127646264Y-131397387D01*
X127744927Y-131130532D01*
X126772000Y-130157605D01*
X125799073Y-131130532D01*
X121244927Y-131130532D01*
X120272000Y-130157605D01*
X119299073Y-131130532D01*
X105744927Y-131130532D01*
X104772000Y-130157605D01*
X103799073Y-131130532D01*
X99244927Y-131130532D01*
X98272000Y-130157605D01*
X97299073Y-131130532D01*
X71271423Y-131130532D01*
X71407000Y-130803222D01*
X71407000Y-130152778D01*
X71307680Y-129912999D01*
X94716792Y-129912999D01*
X94820182Y-130162603D01*
X95125397Y-130467818D01*
X95524180Y-130633000D01*
X95955820Y-130633000D01*
X96354603Y-130467818D01*
X96643322Y-130179099D01*
X96650144Y-130363460D01*
X96852613Y-130852264D01*
X97119468Y-130950927D01*
X98092395Y-129978000D01*
X98451605Y-129978000D01*
X99424532Y-130950927D01*
X99691387Y-130852264D01*
X99917908Y-130242539D01*
X99898331Y-129713461D01*
X103126092Y-129713461D01*
X103150144Y-130363460D01*
X103352613Y-130852264D01*
X103619468Y-130950927D01*
X104592395Y-129978000D01*
X104951605Y-129978000D01*
X105924532Y-130950927D01*
X106191387Y-130852264D01*
X106417908Y-130242539D01*
X106398331Y-129713461D01*
X118626092Y-129713461D01*
X118650144Y-130363460D01*
X118852613Y-130852264D01*
X119119468Y-130950927D01*
X120092395Y-129978000D01*
X120451605Y-129978000D01*
X121424532Y-130950927D01*
X121691387Y-130852264D01*
X121917908Y-130242539D01*
X121898331Y-129713461D01*
X125126092Y-129713461D01*
X125150144Y-130363460D01*
X125352613Y-130852264D01*
X125619468Y-130950927D01*
X126592395Y-129978000D01*
X126951605Y-129978000D01*
X127924532Y-130950927D01*
X128191387Y-130852264D01*
X128417908Y-130242539D01*
X128393856Y-129592540D01*
X128191387Y-129103736D01*
X127924532Y-129005073D01*
X126951605Y-129978000D01*
X126592395Y-129978000D01*
X125619468Y-129005073D01*
X125352613Y-129103736D01*
X125126092Y-129713461D01*
X121898331Y-129713461D01*
X121893856Y-129592540D01*
X121691387Y-129103736D01*
X121424532Y-129005073D01*
X120451605Y-129978000D01*
X120092395Y-129978000D01*
X119119468Y-129005073D01*
X118852613Y-129103736D01*
X118626092Y-129713461D01*
X106398331Y-129713461D01*
X106393856Y-129592540D01*
X106191387Y-129103736D01*
X105924532Y-129005073D01*
X104951605Y-129978000D01*
X104592395Y-129978000D01*
X103619468Y-129005073D01*
X103352613Y-129103736D01*
X103126092Y-129713461D01*
X99898331Y-129713461D01*
X99893856Y-129592540D01*
X99691387Y-129103736D01*
X99424532Y-129005073D01*
X98451605Y-129978000D01*
X98092395Y-129978000D01*
X97119468Y-129005073D01*
X96852613Y-129103736D01*
X96794816Y-129259309D01*
X96659818Y-128933397D01*
X96551889Y-128825468D01*
X97299073Y-128825468D01*
X98272000Y-129798395D01*
X99244927Y-128825468D01*
X103799073Y-128825468D01*
X104772000Y-129798395D01*
X105744927Y-128825468D01*
X119299073Y-128825468D01*
X120272000Y-129798395D01*
X121244927Y-128825468D01*
X125799073Y-128825468D01*
X126772000Y-129798395D01*
X127744927Y-128825468D01*
X127646264Y-128558613D01*
X127036539Y-128332092D01*
X126386540Y-128356144D01*
X125897736Y-128558613D01*
X125799073Y-128825468D01*
X121244927Y-128825468D01*
X121146264Y-128558613D01*
X120536539Y-128332092D01*
X119886540Y-128356144D01*
X119397736Y-128558613D01*
X119299073Y-128825468D01*
X105744927Y-128825468D01*
X105646264Y-128558613D01*
X105036539Y-128332092D01*
X104386540Y-128356144D01*
X103897736Y-128558613D01*
X103799073Y-128825468D01*
X99244927Y-128825468D01*
X99146264Y-128558613D01*
X98536539Y-128332092D01*
X97886540Y-128356144D01*
X97397736Y-128558613D01*
X97299073Y-128825468D01*
X96551889Y-128825468D01*
X96354603Y-128628182D01*
X95955820Y-128463000D01*
X95680306Y-128463000D01*
X95641536Y-128437095D01*
X95419851Y-128392999D01*
X95419846Y-128392999D01*
X95344999Y-128378111D01*
X95270152Y-128392999D01*
X66933422Y-128392999D01*
X66941818Y-128384603D01*
X67107000Y-127985820D01*
X67107000Y-127554180D01*
X66941818Y-127155397D01*
X66636603Y-126850182D01*
X66237820Y-126685000D01*
X65806180Y-126685000D01*
X65407397Y-126850182D01*
X65247579Y-127010000D01*
X62220421Y-127010000D01*
X62369818Y-126860603D01*
X62535000Y-126461820D01*
X62535000Y-126030180D01*
X62369818Y-125631397D01*
X62064603Y-125326182D01*
X61665820Y-125161000D01*
X61446421Y-125161000D01*
X61238537Y-125022096D01*
X61016852Y-124978000D01*
X61016847Y-124978000D01*
X60942000Y-124963112D01*
X60867153Y-124978000D01*
X42666421Y-124978000D01*
X42506603Y-124818182D01*
X42274400Y-124722000D01*
X42506603Y-124625818D01*
X42666421Y-124466000D01*
X45060772Y-124466000D01*
X45232180Y-124537000D01*
X45663820Y-124537000D01*
X45738225Y-124506180D01*
X87543000Y-124506180D01*
X87543000Y-124937820D01*
X87708182Y-125336603D01*
X88013397Y-125641818D01*
X88412180Y-125807000D01*
X88638198Y-125807000D01*
X88793673Y-125962475D01*
X88836071Y-126025929D01*
X88899524Y-126068327D01*
X88899526Y-126068329D01*
X89015587Y-126145878D01*
X89087463Y-126193904D01*
X89309148Y-126238000D01*
X89309152Y-126238000D01*
X89383999Y-126252888D01*
X89458846Y-126238000D01*
X96817091Y-126238000D01*
X96885914Y-126404153D01*
X97345847Y-126864086D01*
X97946778Y-127113000D01*
X98597222Y-127113000D01*
X99198153Y-126864086D01*
X99658086Y-126404153D01*
X99726909Y-126238000D01*
X103317091Y-126238000D01*
X103385914Y-126404153D01*
X103845847Y-126864086D01*
X104446778Y-127113000D01*
X105097222Y-127113000D01*
X105698153Y-126864086D01*
X106158086Y-126404153D01*
X106407000Y-125803222D01*
X106407000Y-125152778D01*
X106158086Y-124551847D01*
X105698153Y-124091914D01*
X105097222Y-123843000D01*
X104446778Y-123843000D01*
X103845847Y-124091914D01*
X103385914Y-124551847D01*
X103317091Y-124718000D01*
X99726909Y-124718000D01*
X99658086Y-124551847D01*
X99198153Y-124091914D01*
X98597222Y-123843000D01*
X97946778Y-123843000D01*
X97345847Y-124091914D01*
X96885914Y-124551847D01*
X96817091Y-124718000D01*
X89713000Y-124718000D01*
X89713000Y-124506180D01*
X89547818Y-124107397D01*
X89242603Y-123802182D01*
X88843820Y-123637000D01*
X88412180Y-123637000D01*
X88013397Y-123802182D01*
X87708182Y-124107397D01*
X87543000Y-124506180D01*
X45738225Y-124506180D01*
X46062603Y-124371818D01*
X46367818Y-124066603D01*
X46533000Y-123667820D01*
X46533000Y-123236180D01*
X46367818Y-122837397D01*
X46062603Y-122532182D01*
X45825572Y-122434000D01*
X113253579Y-122434000D01*
X113413397Y-122593818D01*
X113812180Y-122759000D01*
X114243820Y-122759000D01*
X114642603Y-122593818D01*
X114947818Y-122288603D01*
X115113000Y-121889820D01*
X115113000Y-121458180D01*
X115094286Y-121413001D01*
X115132200Y-121413001D01*
X118705823Y-124986625D01*
X118637000Y-125152778D01*
X118637000Y-125803222D01*
X118885914Y-126404153D01*
X119345847Y-126864086D01*
X119946778Y-127113000D01*
X120597222Y-127113000D01*
X121198153Y-126864086D01*
X121658086Y-126404153D01*
X121726909Y-126238000D01*
X125317091Y-126238000D01*
X125385914Y-126404153D01*
X125845847Y-126864086D01*
X126446778Y-127113000D01*
X127097222Y-127113000D01*
X127698153Y-126864086D01*
X128158086Y-126404153D01*
X128407000Y-125803222D01*
X128407000Y-125152778D01*
X128158086Y-124551847D01*
X127698153Y-124091914D01*
X127097222Y-123843000D01*
X126446778Y-123843000D01*
X125845847Y-124091914D01*
X125385914Y-124551847D01*
X125317091Y-124718000D01*
X121726909Y-124718000D01*
X121658086Y-124551847D01*
X121198153Y-124091914D01*
X120597222Y-123843000D01*
X119946778Y-123843000D01*
X119780625Y-123911823D01*
X116037332Y-120168531D01*
X115994930Y-120105072D01*
X115743538Y-119937097D01*
X115521853Y-119893001D01*
X115521848Y-119893001D01*
X115447001Y-119878113D01*
X115372154Y-119893001D01*
X96769440Y-119893001D01*
X96769440Y-118628000D01*
X96720157Y-118380235D01*
X96579809Y-118170191D01*
X96369765Y-118029843D01*
X96324381Y-118020816D01*
X96342625Y-118008625D01*
X96670839Y-117517418D01*
X96786092Y-116938000D01*
X96670839Y-116358582D01*
X96518461Y-116130532D01*
X119299073Y-116130532D01*
X119397736Y-116397387D01*
X120007461Y-116623908D01*
X120657460Y-116599856D01*
X121146264Y-116397387D01*
X121244927Y-116130532D01*
X125799073Y-116130532D01*
X125897736Y-116397387D01*
X126507461Y-116623908D01*
X127157460Y-116599856D01*
X127646264Y-116397387D01*
X127744927Y-116130532D01*
X126772000Y-115157605D01*
X125799073Y-116130532D01*
X121244927Y-116130532D01*
X120272000Y-115157605D01*
X119299073Y-116130532D01*
X96518461Y-116130532D01*
X96342625Y-115867375D01*
X96044239Y-115668000D01*
X96342625Y-115468625D01*
X96670839Y-114977418D01*
X96723343Y-114713461D01*
X118626092Y-114713461D01*
X118650144Y-115363460D01*
X118852613Y-115852264D01*
X119119468Y-115950927D01*
X120092395Y-114978000D01*
X120451605Y-114978000D01*
X121424532Y-115950927D01*
X121691387Y-115852264D01*
X121917908Y-115242539D01*
X121898331Y-114713461D01*
X125126092Y-114713461D01*
X125150144Y-115363460D01*
X125352613Y-115852264D01*
X125619468Y-115950927D01*
X126592395Y-114978000D01*
X126951605Y-114978000D01*
X127924532Y-115950927D01*
X128191387Y-115852264D01*
X128417908Y-115242539D01*
X128393856Y-114592540D01*
X128191387Y-114103736D01*
X127924532Y-114005073D01*
X126951605Y-114978000D01*
X126592395Y-114978000D01*
X125619468Y-114005073D01*
X125352613Y-114103736D01*
X125126092Y-114713461D01*
X121898331Y-114713461D01*
X121893856Y-114592540D01*
X121691387Y-114103736D01*
X121424532Y-114005073D01*
X120451605Y-114978000D01*
X120092395Y-114978000D01*
X119119468Y-114005073D01*
X118852613Y-114103736D01*
X118626092Y-114713461D01*
X96723343Y-114713461D01*
X96786092Y-114398000D01*
X96672209Y-113825468D01*
X119299073Y-113825468D01*
X120272000Y-114798395D01*
X121244927Y-113825468D01*
X125799073Y-113825468D01*
X126772000Y-114798395D01*
X127744927Y-113825468D01*
X127646264Y-113558613D01*
X127036539Y-113332092D01*
X126386540Y-113356144D01*
X125897736Y-113558613D01*
X125799073Y-113825468D01*
X121244927Y-113825468D01*
X121146264Y-113558613D01*
X120536539Y-113332092D01*
X119886540Y-113356144D01*
X119397736Y-113558613D01*
X119299073Y-113825468D01*
X96672209Y-113825468D01*
X96670839Y-113818582D01*
X96342625Y-113327375D01*
X96044239Y-113128000D01*
X96342625Y-112928625D01*
X96670839Y-112437418D01*
X96786092Y-111858000D01*
X96670839Y-111278582D01*
X96342625Y-110787375D01*
X96044239Y-110588000D01*
X96342625Y-110388625D01*
X96670839Y-109897418D01*
X96695352Y-109774180D01*
X113438000Y-109774180D01*
X113438000Y-110205820D01*
X113603182Y-110604603D01*
X113908397Y-110909818D01*
X114307180Y-111075000D01*
X114536511Y-111075000D01*
X114714463Y-111193904D01*
X114936148Y-111238000D01*
X114936152Y-111238000D01*
X115010999Y-111252888D01*
X115085846Y-111238000D01*
X118817091Y-111238000D01*
X118885914Y-111404153D01*
X119345847Y-111864086D01*
X119946778Y-112113000D01*
X120597222Y-112113000D01*
X121198153Y-111864086D01*
X121658086Y-111404153D01*
X121726909Y-111238000D01*
X125317091Y-111238000D01*
X125385914Y-111404153D01*
X125845847Y-111864086D01*
X126446778Y-112113000D01*
X127097222Y-112113000D01*
X127698153Y-111864086D01*
X128158086Y-111404153D01*
X128407000Y-110803222D01*
X128407000Y-110152778D01*
X128158086Y-109551847D01*
X127698153Y-109091914D01*
X127097222Y-108843000D01*
X126446778Y-108843000D01*
X125845847Y-109091914D01*
X125385914Y-109551847D01*
X125317091Y-109718000D01*
X121726909Y-109718000D01*
X121658086Y-109551847D01*
X121198153Y-109091914D01*
X120597222Y-108843000D01*
X119946778Y-108843000D01*
X119345847Y-109091914D01*
X118885914Y-109551847D01*
X118817091Y-109718000D01*
X115584729Y-109718000D01*
X115442818Y-109375397D01*
X115137603Y-109070182D01*
X114738820Y-108905000D01*
X114307180Y-108905000D01*
X113908397Y-109070182D01*
X113603182Y-109375397D01*
X113438000Y-109774180D01*
X96695352Y-109774180D01*
X96786092Y-109318000D01*
X96670839Y-108738582D01*
X96342625Y-108247375D01*
X96044239Y-108048000D01*
X96342625Y-107848625D01*
X96670839Y-107357418D01*
X96786092Y-106778000D01*
X96670839Y-106198582D01*
X96342625Y-105707375D01*
X96023522Y-105494157D01*
X96153358Y-105433183D01*
X96543645Y-105004924D01*
X96713476Y-104594890D01*
X96592155Y-104365000D01*
X95399000Y-104365000D01*
X95399000Y-104385000D01*
X95145000Y-104385000D01*
X95145000Y-104365000D01*
X93951845Y-104365000D01*
X93830524Y-104594890D01*
X94000355Y-105004924D01*
X94390642Y-105433183D01*
X94520478Y-105494157D01*
X94201375Y-105707375D01*
X93873161Y-106198582D01*
X93757908Y-106778000D01*
X93873161Y-107357418D01*
X94201375Y-107848625D01*
X94499761Y-108048000D01*
X94201375Y-108247375D01*
X93873161Y-108738582D01*
X93757908Y-109318000D01*
X93873161Y-109897418D01*
X94201375Y-110388625D01*
X94499761Y-110588000D01*
X94201375Y-110787375D01*
X93873161Y-111278582D01*
X93757908Y-111858000D01*
X93873161Y-112437418D01*
X94201375Y-112928625D01*
X94499761Y-113128000D01*
X94201375Y-113327375D01*
X93873161Y-113818582D01*
X93757908Y-114398000D01*
X93873161Y-114977418D01*
X94201375Y-115468625D01*
X94499761Y-115668000D01*
X94201375Y-115867375D01*
X94053958Y-116088000D01*
X90974239Y-116088000D01*
X91158086Y-115904153D01*
X91407000Y-115303222D01*
X91407000Y-114652778D01*
X91158086Y-114051847D01*
X90698153Y-113591914D01*
X90097222Y-113343000D01*
X89446778Y-113343000D01*
X88845847Y-113591914D01*
X88385914Y-114051847D01*
X88317091Y-114218000D01*
X84726909Y-114218000D01*
X84658086Y-114051847D01*
X84198153Y-113591914D01*
X83597222Y-113343000D01*
X82946778Y-113343000D01*
X82345847Y-113591914D01*
X81885914Y-114051847D01*
X81637000Y-114652778D01*
X81637000Y-115303222D01*
X81705823Y-115469375D01*
X79550198Y-117625001D01*
X45027000Y-117625001D01*
X45027000Y-117394180D01*
X44861818Y-116995397D01*
X44556603Y-116690182D01*
X44157820Y-116525000D01*
X43838179Y-116525000D01*
X44146264Y-116397387D01*
X44244927Y-116130532D01*
X48799073Y-116130532D01*
X48897736Y-116397387D01*
X49507461Y-116623908D01*
X50157460Y-116599856D01*
X50646264Y-116397387D01*
X50744927Y-116130532D01*
X49772000Y-115157605D01*
X48799073Y-116130532D01*
X44244927Y-116130532D01*
X43272000Y-115157605D01*
X43257858Y-115171748D01*
X43078253Y-114992143D01*
X43092395Y-114978000D01*
X43451605Y-114978000D01*
X44424532Y-115950927D01*
X44691387Y-115852264D01*
X44917908Y-115242539D01*
X44898331Y-114713461D01*
X48126092Y-114713461D01*
X48150144Y-115363460D01*
X48352613Y-115852264D01*
X48619468Y-115950927D01*
X49592395Y-114978000D01*
X49951605Y-114978000D01*
X50924532Y-115950927D01*
X51191387Y-115852264D01*
X51417908Y-115242539D01*
X51393856Y-114592540D01*
X51191387Y-114103736D01*
X50924532Y-114005073D01*
X49951605Y-114978000D01*
X49592395Y-114978000D01*
X48619468Y-114005073D01*
X48352613Y-114103736D01*
X48126092Y-114713461D01*
X44898331Y-114713461D01*
X44893856Y-114592540D01*
X44691387Y-114103736D01*
X44424532Y-114005073D01*
X43451605Y-114978000D01*
X43092395Y-114978000D01*
X42119468Y-114005073D01*
X41852613Y-114103736D01*
X41626092Y-114713461D01*
X41650144Y-115363460D01*
X41766984Y-115645538D01*
X40499146Y-114377700D01*
X40574839Y-114264418D01*
X40662151Y-113825468D01*
X42299073Y-113825468D01*
X43272000Y-114798395D01*
X44244927Y-113825468D01*
X48799073Y-113825468D01*
X49772000Y-114798395D01*
X50744927Y-113825468D01*
X50646264Y-113558613D01*
X50036539Y-113332092D01*
X49386540Y-113356144D01*
X48897736Y-113558613D01*
X48799073Y-113825468D01*
X44244927Y-113825468D01*
X44146264Y-113558613D01*
X43536539Y-113332092D01*
X42886540Y-113356144D01*
X42397736Y-113558613D01*
X42299073Y-113825468D01*
X40662151Y-113825468D01*
X40690092Y-113685000D01*
X40574839Y-113105582D01*
X40246625Y-112614375D01*
X39948239Y-112415000D01*
X40246625Y-112215625D01*
X40574839Y-111724418D01*
X40690092Y-111145000D01*
X40611343Y-110749103D01*
X41207668Y-110152778D01*
X41637000Y-110152778D01*
X41637000Y-110803222D01*
X41885914Y-111404153D01*
X42345847Y-111864086D01*
X42946778Y-112113000D01*
X43597222Y-112113000D01*
X44198153Y-111864086D01*
X44658086Y-111404153D01*
X44726909Y-111238000D01*
X48317091Y-111238000D01*
X48385914Y-111404153D01*
X48845847Y-111864086D01*
X49446778Y-112113000D01*
X50097222Y-112113000D01*
X50698153Y-111864086D01*
X50931707Y-111630532D01*
X82299073Y-111630532D01*
X82397736Y-111897387D01*
X83007461Y-112123908D01*
X83657460Y-112099856D01*
X84146264Y-111897387D01*
X84244927Y-111630532D01*
X88799073Y-111630532D01*
X88897736Y-111897387D01*
X89507461Y-112123908D01*
X90157460Y-112099856D01*
X90646264Y-111897387D01*
X90744927Y-111630532D01*
X89772000Y-110657605D01*
X88799073Y-111630532D01*
X84244927Y-111630532D01*
X83272000Y-110657605D01*
X82299073Y-111630532D01*
X50931707Y-111630532D01*
X51158086Y-111404153D01*
X51407000Y-110803222D01*
X51407000Y-110213461D01*
X81626092Y-110213461D01*
X81650144Y-110863460D01*
X81852613Y-111352264D01*
X82119468Y-111450927D01*
X83092395Y-110478000D01*
X83451605Y-110478000D01*
X84424532Y-111450927D01*
X84691387Y-111352264D01*
X84917908Y-110742539D01*
X84898331Y-110213461D01*
X88126092Y-110213461D01*
X88150144Y-110863460D01*
X88352613Y-111352264D01*
X88619468Y-111450927D01*
X89592395Y-110478000D01*
X89951605Y-110478000D01*
X90924532Y-111450927D01*
X91191387Y-111352264D01*
X91417908Y-110742539D01*
X91393856Y-110092540D01*
X91191387Y-109603736D01*
X90924532Y-109505073D01*
X89951605Y-110478000D01*
X89592395Y-110478000D01*
X88619468Y-109505073D01*
X88352613Y-109603736D01*
X88126092Y-110213461D01*
X84898331Y-110213461D01*
X84893856Y-110092540D01*
X84691387Y-109603736D01*
X84424532Y-109505073D01*
X83451605Y-110478000D01*
X83092395Y-110478000D01*
X82119468Y-109505073D01*
X81852613Y-109603736D01*
X81626092Y-110213461D01*
X51407000Y-110213461D01*
X51407000Y-110152778D01*
X51158086Y-109551847D01*
X50698153Y-109091914D01*
X50097222Y-108843000D01*
X49446778Y-108843000D01*
X48845847Y-109091914D01*
X48385914Y-109551847D01*
X48317091Y-109718000D01*
X44726909Y-109718000D01*
X44658086Y-109551847D01*
X44198153Y-109091914D01*
X43597222Y-108843000D01*
X42946778Y-108843000D01*
X42345847Y-109091914D01*
X41885914Y-109551847D01*
X41637000Y-110152778D01*
X41207668Y-110152778D01*
X41719165Y-109641282D01*
X41780533Y-109600277D01*
X41942982Y-109357155D01*
X41985628Y-109142760D01*
X41985628Y-109142756D01*
X42000026Y-109070372D01*
X41994581Y-109043000D01*
X42089820Y-109043000D01*
X42488603Y-108877818D01*
X42648421Y-108718000D01*
X83853197Y-108718000D01*
X83898182Y-108826603D01*
X84120691Y-109049112D01*
X83536539Y-108832092D01*
X82886540Y-108856144D01*
X82397736Y-109058613D01*
X82299073Y-109325468D01*
X83272000Y-110298395D01*
X84244927Y-109325468D01*
X88799073Y-109325468D01*
X89772000Y-110298395D01*
X90744927Y-109325468D01*
X90646264Y-109058613D01*
X90036539Y-108832092D01*
X89386540Y-108856144D01*
X88897736Y-109058613D01*
X88799073Y-109325468D01*
X84244927Y-109325468D01*
X84155692Y-109084113D01*
X84203397Y-109131818D01*
X84602180Y-109297000D01*
X85033820Y-109297000D01*
X85432603Y-109131818D01*
X85737818Y-108826603D01*
X85903000Y-108427820D01*
X85903000Y-107996180D01*
X85737818Y-107597397D01*
X85432603Y-107292182D01*
X85033820Y-107127000D01*
X84602180Y-107127000D01*
X84430772Y-107198000D01*
X42648421Y-107198000D01*
X42488603Y-107038182D01*
X42397929Y-107000623D01*
X42421905Y-106984603D01*
X42530819Y-106821602D01*
X42811818Y-106540603D01*
X42977000Y-106141820D01*
X42977000Y-105710180D01*
X42811818Y-105311397D01*
X42506603Y-105006182D01*
X42274400Y-104910000D01*
X42506603Y-104813818D01*
X42666421Y-104654000D01*
X43977563Y-104654000D01*
X44052410Y-104668888D01*
X44127257Y-104654000D01*
X44127262Y-104654000D01*
X44348947Y-104609904D01*
X44600339Y-104441929D01*
X44642741Y-104378470D01*
X45140101Y-103881110D01*
X93830524Y-103881110D01*
X93951845Y-104111000D01*
X95145000Y-104111000D01*
X95145000Y-102917181D01*
X95399000Y-102917181D01*
X95399000Y-104111000D01*
X96592155Y-104111000D01*
X96713476Y-103881110D01*
X96543645Y-103471076D01*
X96153358Y-103042817D01*
X95628892Y-102796514D01*
X95399000Y-102917181D01*
X95145000Y-102917181D01*
X94915108Y-102796514D01*
X94390642Y-103042817D01*
X94000355Y-103471076D01*
X93830524Y-103881110D01*
X45140101Y-103881110D01*
X47415212Y-101606000D01*
X84869197Y-101606000D01*
X84914182Y-101714603D01*
X85219397Y-102019818D01*
X85618180Y-102185000D01*
X86049820Y-102185000D01*
X86448603Y-102019818D01*
X86753818Y-101714603D01*
X86919000Y-101315820D01*
X86919000Y-101130532D01*
X97299073Y-101130532D01*
X97397736Y-101397387D01*
X98007461Y-101623908D01*
X98657460Y-101599856D01*
X99146264Y-101397387D01*
X99244927Y-101130532D01*
X103799073Y-101130532D01*
X103897736Y-101397387D01*
X104507461Y-101623908D01*
X105157460Y-101599856D01*
X105646264Y-101397387D01*
X105744927Y-101130532D01*
X104772000Y-100157605D01*
X103799073Y-101130532D01*
X99244927Y-101130532D01*
X98272000Y-100157605D01*
X97299073Y-101130532D01*
X86919000Y-101130532D01*
X86919000Y-100884180D01*
X86797146Y-100590000D01*
X94457579Y-100590000D01*
X94617397Y-100749818D01*
X95016180Y-100915000D01*
X95447820Y-100915000D01*
X95846603Y-100749818D01*
X96151818Y-100444603D01*
X96317000Y-100045820D01*
X96317000Y-99713461D01*
X96626092Y-99713461D01*
X96650144Y-100363460D01*
X96852613Y-100852264D01*
X97119468Y-100950927D01*
X98092395Y-99978000D01*
X98451605Y-99978000D01*
X99424532Y-100950927D01*
X99691387Y-100852264D01*
X99917908Y-100242539D01*
X99898331Y-99713461D01*
X103126092Y-99713461D01*
X103150144Y-100363460D01*
X103352613Y-100852264D01*
X103619468Y-100950927D01*
X104592395Y-99978000D01*
X104951605Y-99978000D01*
X105924532Y-100950927D01*
X106191387Y-100852264D01*
X106417908Y-100242539D01*
X106399801Y-99753180D01*
X114213000Y-99753180D01*
X114213000Y-100184820D01*
X114378182Y-100583603D01*
X114683397Y-100888818D01*
X115082180Y-101054000D01*
X115513820Y-101054000D01*
X115563477Y-101033431D01*
X126037000Y-101033431D01*
X126037000Y-101922569D01*
X126377259Y-102744026D01*
X127005974Y-103372741D01*
X127827431Y-103713000D01*
X128716569Y-103713000D01*
X129538026Y-103372741D01*
X130166741Y-102744026D01*
X130507000Y-101922569D01*
X130507000Y-101033431D01*
X130166741Y-100211974D01*
X129538026Y-99583259D01*
X128716569Y-99243000D01*
X127827431Y-99243000D01*
X127005974Y-99583259D01*
X126377259Y-100211974D01*
X126037000Y-101033431D01*
X115563477Y-101033431D01*
X115912603Y-100888818D01*
X116217818Y-100583603D01*
X116383000Y-100184820D01*
X116383000Y-99753180D01*
X116217818Y-99354397D01*
X115912603Y-99049182D01*
X115513820Y-98884000D01*
X115082180Y-98884000D01*
X114683397Y-99049182D01*
X114378182Y-99354397D01*
X114213000Y-99753180D01*
X106399801Y-99753180D01*
X106393856Y-99592540D01*
X106191387Y-99103736D01*
X105924532Y-99005073D01*
X104951605Y-99978000D01*
X104592395Y-99978000D01*
X103619468Y-99005073D01*
X103352613Y-99103736D01*
X103126092Y-99713461D01*
X99898331Y-99713461D01*
X99893856Y-99592540D01*
X99691387Y-99103736D01*
X99424532Y-99005073D01*
X98451605Y-99978000D01*
X98092395Y-99978000D01*
X97119468Y-99005073D01*
X96852613Y-99103736D01*
X96626092Y-99713461D01*
X96317000Y-99713461D01*
X96317000Y-99614180D01*
X96151818Y-99215397D01*
X95846603Y-98910182D01*
X95642087Y-98825468D01*
X97299073Y-98825468D01*
X98272000Y-99798395D01*
X99244927Y-98825468D01*
X103799073Y-98825468D01*
X104772000Y-99798395D01*
X105744927Y-98825468D01*
X105646264Y-98558613D01*
X105036539Y-98332092D01*
X104386540Y-98356144D01*
X103897736Y-98558613D01*
X103799073Y-98825468D01*
X99244927Y-98825468D01*
X99146264Y-98558613D01*
X98536539Y-98332092D01*
X97886540Y-98356144D01*
X97397736Y-98558613D01*
X97299073Y-98825468D01*
X95642087Y-98825468D01*
X95447820Y-98745000D01*
X95016180Y-98745000D01*
X94617397Y-98910182D01*
X94457579Y-99070000D01*
X89398421Y-99070000D01*
X89547818Y-98920603D01*
X89713000Y-98521820D01*
X89713000Y-98282555D01*
X89936180Y-98375000D01*
X90367820Y-98375000D01*
X90766603Y-98209818D01*
X91071818Y-97904603D01*
X91237000Y-97505820D01*
X91237000Y-97074180D01*
X91071818Y-96675397D01*
X90766603Y-96370182D01*
X90367820Y-96205000D01*
X90148421Y-96205000D01*
X89940537Y-96066096D01*
X89718852Y-96022000D01*
X89718847Y-96022000D01*
X89644000Y-96007112D01*
X89569153Y-96022000D01*
X70995608Y-96022000D01*
X70924534Y-95950926D01*
X71191387Y-95852264D01*
X71417908Y-95242539D01*
X71393856Y-94592540D01*
X71319488Y-94412999D01*
X90083000Y-94412999D01*
X90083000Y-94457820D01*
X90248182Y-94856603D01*
X90553397Y-95161818D01*
X90952180Y-95327000D01*
X91383820Y-95327000D01*
X91782603Y-95161818D01*
X91791643Y-95152778D01*
X96637000Y-95152778D01*
X96637000Y-95803222D01*
X96885914Y-96404153D01*
X97345847Y-96864086D01*
X97946778Y-97113000D01*
X98597222Y-97113000D01*
X99198153Y-96864086D01*
X99658086Y-96404153D01*
X99726909Y-96238000D01*
X103317091Y-96238000D01*
X103385914Y-96404153D01*
X103845847Y-96864086D01*
X104446778Y-97113000D01*
X105097222Y-97113000D01*
X105698153Y-96864086D01*
X106158086Y-96404153D01*
X106407000Y-95803222D01*
X106407000Y-95152778D01*
X106158086Y-94551847D01*
X105698153Y-94091914D01*
X105097222Y-93843000D01*
X104446778Y-93843000D01*
X103845847Y-94091914D01*
X103385914Y-94551847D01*
X103317091Y-94718000D01*
X99726909Y-94718000D01*
X99658086Y-94551847D01*
X99198153Y-94091914D01*
X98597222Y-93843000D01*
X97946778Y-93843000D01*
X97345847Y-94091914D01*
X96885914Y-94551847D01*
X96637000Y-95152778D01*
X91791643Y-95152778D01*
X92087818Y-94856603D01*
X92253000Y-94457820D01*
X92253000Y-94026180D01*
X92087818Y-93627397D01*
X91782603Y-93322182D01*
X91383820Y-93157000D01*
X91161627Y-93157000D01*
X91126928Y-93105070D01*
X90875536Y-92937095D01*
X90653851Y-92892999D01*
X90653846Y-92892999D01*
X90578999Y-92878111D01*
X90504152Y-92892999D01*
X58248027Y-92892999D01*
X58344327Y-92796698D01*
X58441000Y-92563309D01*
X58441000Y-91872750D01*
X58282250Y-91714000D01*
X57083000Y-91714000D01*
X57083000Y-91734000D01*
X56829000Y-91734000D01*
X56829000Y-91714000D01*
X56809000Y-91714000D01*
X56809000Y-91460000D01*
X56829000Y-91460000D01*
X56829000Y-91440000D01*
X57083000Y-91440000D01*
X57083000Y-91460000D01*
X58282250Y-91460000D01*
X58340250Y-91402000D01*
X58695820Y-91402000D01*
X59094603Y-91236818D01*
X59399818Y-90931603D01*
X59565000Y-90532820D01*
X59565000Y-90501000D01*
X59633820Y-90501000D01*
X60032603Y-90335818D01*
X60337818Y-90030603D01*
X60503000Y-89631820D01*
X60503000Y-89200180D01*
X60491742Y-89173000D01*
X62264761Y-89173000D01*
X61885914Y-89551847D01*
X61637000Y-90152778D01*
X61637000Y-90803222D01*
X61885914Y-91404153D01*
X62345847Y-91864086D01*
X62946778Y-92113000D01*
X63597222Y-92113000D01*
X64198153Y-91864086D01*
X64658086Y-91404153D01*
X64726909Y-91238000D01*
X68317091Y-91238000D01*
X68385914Y-91404153D01*
X68845847Y-91864086D01*
X69446778Y-92113000D01*
X70097222Y-92113000D01*
X70698153Y-91864086D01*
X71158086Y-91404153D01*
X71407000Y-90803222D01*
X71407000Y-90152778D01*
X71158086Y-89551847D01*
X70779239Y-89173000D01*
X91612420Y-89173000D01*
X91772238Y-89332818D01*
X92171021Y-89498000D01*
X92602661Y-89498000D01*
X93001444Y-89332818D01*
X93306659Y-89027603D01*
X93327620Y-88977000D01*
X93669820Y-88977000D01*
X94068603Y-88811818D01*
X94373818Y-88506603D01*
X94536646Y-88113501D01*
X117478455Y-88113501D01*
X117505471Y-89145210D01*
X117714760Y-90155830D01*
X118099707Y-91113415D01*
X118648144Y-91987698D01*
X119342735Y-92751044D01*
X120161525Y-93379324D01*
X121078634Y-93852679D01*
X122065073Y-94156147D01*
X123089661Y-94280136D01*
X124120012Y-94220726D01*
X125123559Y-93979796D01*
X126068580Y-93564960D01*
X126925205Y-92989332D01*
X127666356Y-92271107D01*
X128268607Y-91432985D01*
X128712922Y-90501461D01*
X128985256Y-89505977D01*
X129077000Y-88478000D01*
X129069044Y-88174190D01*
X128923626Y-87152423D01*
X128599566Y-86172556D01*
X128107108Y-85265562D01*
X127461818Y-84460109D01*
X126684093Y-83781656D01*
X125798517Y-83251650D01*
X124833080Y-82886841D01*
X123818299Y-82698763D01*
X122786250Y-82693359D01*
X121769555Y-82870801D01*
X120800351Y-83225479D01*
X119909273Y-83746183D01*
X119124486Y-84416454D01*
X118470797Y-85215106D01*
X117968869Y-86116894D01*
X117634566Y-87093313D01*
X117478455Y-88113501D01*
X94536646Y-88113501D01*
X94539000Y-88107820D01*
X94539000Y-87676180D01*
X94373818Y-87277397D01*
X94068603Y-86972182D01*
X93669820Y-86807000D01*
X93238180Y-86807000D01*
X93066772Y-86878000D01*
X52809000Y-86878000D01*
X52809000Y-86647180D01*
X52643818Y-86248397D01*
X52338603Y-85943182D01*
X51939820Y-85778000D01*
X51508180Y-85778000D01*
X51109397Y-85943182D01*
X50924579Y-86128000D01*
X46071421Y-86128000D01*
X45886603Y-85943182D01*
X45487820Y-85778000D01*
X45056180Y-85778000D01*
X44657397Y-85943182D01*
X44352182Y-86248397D01*
X44187000Y-86647180D01*
X44187000Y-86878000D01*
X42666421Y-86878000D01*
X42506603Y-86718182D01*
X42265400Y-86618272D01*
X42488603Y-86525818D01*
X42793818Y-86220603D01*
X42959000Y-85821820D01*
X42959000Y-85595801D01*
X43319802Y-85235000D01*
X77010153Y-85235000D01*
X77069355Y-85246776D01*
X77091397Y-85268818D01*
X77490180Y-85434000D01*
X77921820Y-85434000D01*
X78320603Y-85268818D01*
X78625818Y-84963603D01*
X78791000Y-84564820D01*
X78791000Y-84334000D01*
X114523579Y-84334000D01*
X114683397Y-84493818D01*
X115082180Y-84659000D01*
X115513820Y-84659000D01*
X115912603Y-84493818D01*
X116217818Y-84188603D01*
X116383000Y-83789820D01*
X116383000Y-83358180D01*
X116217818Y-82959397D01*
X115912603Y-82654182D01*
X115513820Y-82489000D01*
X115082180Y-82489000D01*
X114683397Y-82654182D01*
X114523579Y-82814000D01*
X87411895Y-82814000D01*
X88030412Y-82557801D01*
X88588801Y-81999412D01*
X88891000Y-81269841D01*
X88891000Y-80480159D01*
X88588801Y-79750588D01*
X88030412Y-79192199D01*
X87300841Y-78890000D01*
X86511159Y-78890000D01*
X85781588Y-79192199D01*
X85223199Y-79750588D01*
X84921000Y-80480159D01*
X84921000Y-81269841D01*
X85223199Y-81999412D01*
X85781588Y-82557801D01*
X86400105Y-82814000D01*
X42666421Y-82814000D01*
X42506603Y-82654182D01*
X42107820Y-82489000D01*
X41676180Y-82489000D01*
X41277397Y-82654182D01*
X41092579Y-82839000D01*
X38879388Y-82839000D01*
X38807000Y-82824601D01*
X38734612Y-82839000D01*
X38520217Y-82881646D01*
X38277095Y-83044095D01*
X38236090Y-83105463D01*
X37031897Y-84309657D01*
X36782256Y-84260000D01*
X36489744Y-84260000D01*
X36056582Y-84346161D01*
X35565375Y-84674375D01*
X35237161Y-85165582D01*
X35121908Y-85745000D01*
X34957000Y-85745000D01*
X34957000Y-80517793D01*
X34961387Y-80480159D01*
X35921000Y-80480159D01*
X35921000Y-81269841D01*
X36223199Y-81999412D01*
X36781588Y-82557801D01*
X37511159Y-82860000D01*
X38300841Y-82860000D01*
X39030412Y-82557801D01*
X39588801Y-81999412D01*
X39891000Y-81269841D01*
X39891000Y-80480159D01*
X39588801Y-79750588D01*
X39030412Y-79192199D01*
X38300841Y-78890000D01*
X37511159Y-78890000D01*
X36781588Y-79192199D01*
X36223199Y-79750588D01*
X35921000Y-80480159D01*
X34961387Y-80480159D01*
X35023605Y-79946506D01*
X35206182Y-79443515D01*
X35499572Y-78996021D01*
X35888039Y-78628023D01*
X36350745Y-78359262D01*
X36871847Y-78201435D01*
X37302505Y-78163000D01*
X131232207Y-78163000D01*
X131803494Y-78229605D01*
X131803494Y-78229605D01*
G37*
X131803494Y-78229605D02*
X132306485Y-78412182D01*
X132753979Y-78705572D01*
X133121977Y-79094039D01*
X133390738Y-79556745D01*
X133548565Y-80077847D01*
X133587001Y-80508517D01*
X133587000Y-174438206D01*
X133520395Y-175009494D01*
X133337819Y-175512483D01*
X133044427Y-175959980D01*
X132655961Y-176327977D01*
X132193253Y-176596739D01*
X131672153Y-176754565D01*
X131241495Y-176793000D01*
X37311794Y-176793000D01*
X36740506Y-176726395D01*
X36237517Y-176543819D01*
X35790020Y-176250427D01*
X35422023Y-175861961D01*
X35153261Y-175399253D01*
X34995435Y-174878153D01*
X34957000Y-174447495D01*
X34957000Y-171033431D01*
X38037000Y-171033431D01*
X38037000Y-171922569D01*
X38377259Y-172744026D01*
X39005974Y-173372741D01*
X39827431Y-173713000D01*
X40716569Y-173713000D01*
X41538026Y-173372741D01*
X42166741Y-172744026D01*
X42507000Y-171922569D01*
X42507000Y-171033431D01*
X126037000Y-171033431D01*
X126037000Y-171922569D01*
X126377259Y-172744026D01*
X127005974Y-173372741D01*
X127827431Y-173713000D01*
X128716569Y-173713000D01*
X129538026Y-173372741D01*
X130166741Y-172744026D01*
X130507000Y-171922569D01*
X130507000Y-171033431D01*
X130166741Y-170211974D01*
X129538026Y-169583259D01*
X128716569Y-169243000D01*
X127827431Y-169243000D01*
X127005974Y-169583259D01*
X126377259Y-170211974D01*
X126037000Y-171033431D01*
X42507000Y-171033431D01*
X42166741Y-170211974D01*
X41538026Y-169583259D01*
X40716569Y-169243000D01*
X39827431Y-169243000D01*
X39005974Y-169583259D01*
X38377259Y-170211974D01*
X38037000Y-171033431D01*
X34957000Y-171033431D01*
X34957000Y-166130532D01*
X59299073Y-166130532D01*
X59397736Y-166397387D01*
X60007461Y-166623908D01*
X60657460Y-166599856D01*
X61146264Y-166397387D01*
X61244927Y-166130532D01*
X65799073Y-166130532D01*
X65897736Y-166397387D01*
X66507461Y-166623908D01*
X67157460Y-166599856D01*
X67646264Y-166397387D01*
X67744927Y-166130532D01*
X79299073Y-166130532D01*
X79397736Y-166397387D01*
X80007461Y-166623908D01*
X80657460Y-166599856D01*
X81146264Y-166397387D01*
X81244927Y-166130532D01*
X85799073Y-166130532D01*
X85897736Y-166397387D01*
X86507461Y-166623908D01*
X87157460Y-166599856D01*
X87646264Y-166397387D01*
X87744927Y-166130532D01*
X99299073Y-166130532D01*
X99397736Y-166397387D01*
X100007461Y-166623908D01*
X100657460Y-166599856D01*
X101146264Y-166397387D01*
X101244927Y-166130532D01*
X105799073Y-166130532D01*
X105897736Y-166397387D01*
X106507461Y-166623908D01*
X107157460Y-166599856D01*
X107646264Y-166397387D01*
X107744927Y-166130532D01*
X119299073Y-166130532D01*
X119397736Y-166397387D01*
X120007461Y-166623908D01*
X120657460Y-166599856D01*
X121146264Y-166397387D01*
X121244927Y-166130532D01*
X125799073Y-166130532D01*
X125897736Y-166397387D01*
X126507461Y-166623908D01*
X127157460Y-166599856D01*
X127646264Y-166397387D01*
X127744927Y-166130532D01*
X126772000Y-165157605D01*
X125799073Y-166130532D01*
X121244927Y-166130532D01*
X120272000Y-165157605D01*
X119299073Y-166130532D01*
X107744927Y-166130532D01*
X106772000Y-165157605D01*
X105799073Y-166130532D01*
X101244927Y-166130532D01*
X100272000Y-165157605D01*
X99299073Y-166130532D01*
X87744927Y-166130532D01*
X86772000Y-165157605D01*
X85799073Y-166130532D01*
X81244927Y-166130532D01*
X80272000Y-165157605D01*
X79299073Y-166130532D01*
X67744927Y-166130532D01*
X66772000Y-165157605D01*
X65799073Y-166130532D01*
X61244927Y-166130532D01*
X60272000Y-165157605D01*
X59299073Y-166130532D01*
X34957000Y-166130532D01*
X34957000Y-164713461D01*
X58626092Y-164713461D01*
X58650144Y-165363460D01*
X58852613Y-165852264D01*
X59119468Y-165950927D01*
X60092395Y-164978000D01*
X60451605Y-164978000D01*
X61424532Y-165950927D01*
X61691387Y-165852264D01*
X61917908Y-165242539D01*
X61898331Y-164713461D01*
X65126092Y-164713461D01*
X65150144Y-165363460D01*
X65352613Y-165852264D01*
X65619468Y-165950927D01*
X66592395Y-164978000D01*
X66951605Y-164978000D01*
X67924532Y-165950927D01*
X68191387Y-165852264D01*
X68417908Y-165242539D01*
X68398331Y-164713461D01*
X78626092Y-164713461D01*
X78650144Y-165363460D01*
X78852613Y-165852264D01*
X79119468Y-165950927D01*
X80092395Y-164978000D01*
X80451605Y-164978000D01*
X81424532Y-165950927D01*
X81691387Y-165852264D01*
X81917908Y-165242539D01*
X81898331Y-164713461D01*
X85126092Y-164713461D01*
X85150144Y-165363460D01*
X85352613Y-165852264D01*
X85619468Y-165950927D01*
X86592395Y-164978000D01*
X86951605Y-164978000D01*
X87924532Y-165950927D01*
X88191387Y-165852264D01*
X88417908Y-165242539D01*
X88398331Y-164713461D01*
X98626092Y-164713461D01*
X98650144Y-165363460D01*
X98852613Y-165852264D01*
X99119468Y-165950927D01*
X100092395Y-164978000D01*
X100451605Y-164978000D01*
X101424532Y-165950927D01*
X101691387Y-165852264D01*
X101917908Y-165242539D01*
X101898331Y-164713461D01*
X105126092Y-164713461D01*
X105150144Y-165363460D01*
X105352613Y-165852264D01*
X105619468Y-165950927D01*
X106592395Y-164978000D01*
X106951605Y-164978000D01*
X107924532Y-165950927D01*
X108191387Y-165852264D01*
X108417908Y-165242539D01*
X108398331Y-164713461D01*
X118626092Y-164713461D01*
X118650144Y-165363460D01*
X118852613Y-165852264D01*
X119119468Y-165950927D01*
X120092395Y-164978000D01*
X120451605Y-164978000D01*
X121424532Y-165950927D01*
X121691387Y-165852264D01*
X121917908Y-165242539D01*
X121898331Y-164713461D01*
X125126092Y-164713461D01*
X125150144Y-165363460D01*
X125352613Y-165852264D01*
X125619468Y-165950927D01*
X126592395Y-164978000D01*
X126951605Y-164978000D01*
X127924532Y-165950927D01*
X128191387Y-165852264D01*
X128417908Y-165242539D01*
X128393856Y-164592540D01*
X128191387Y-164103736D01*
X127924532Y-164005073D01*
X126951605Y-164978000D01*
X126592395Y-164978000D01*
X125619468Y-164005073D01*
X125352613Y-164103736D01*
X125126092Y-164713461D01*
X121898331Y-164713461D01*
X121893856Y-164592540D01*
X121691387Y-164103736D01*
X121424532Y-164005073D01*
X120451605Y-164978000D01*
X120092395Y-164978000D01*
X119119468Y-164005073D01*
X118852613Y-164103736D01*
X118626092Y-164713461D01*
X108398331Y-164713461D01*
X108393856Y-164592540D01*
X108191387Y-164103736D01*
X107924532Y-164005073D01*
X106951605Y-164978000D01*
X106592395Y-164978000D01*
X105619468Y-164005073D01*
X105352613Y-164103736D01*
X105126092Y-164713461D01*
X101898331Y-164713461D01*
X101893856Y-164592540D01*
X101691387Y-164103736D01*
X101424532Y-164005073D01*
X100451605Y-164978000D01*
X100092395Y-164978000D01*
X99119468Y-164005073D01*
X98852613Y-164103736D01*
X98626092Y-164713461D01*
X88398331Y-164713461D01*
X88393856Y-164592540D01*
X88191387Y-164103736D01*
X87924532Y-164005073D01*
X86951605Y-164978000D01*
X86592395Y-164978000D01*
X85619468Y-164005073D01*
X85352613Y-164103736D01*
X85126092Y-164713461D01*
X81898331Y-164713461D01*
X81893856Y-164592540D01*
X81691387Y-164103736D01*
X81424532Y-164005073D01*
X80451605Y-164978000D01*
X80092395Y-164978000D01*
X79119468Y-164005073D01*
X78852613Y-164103736D01*
X78626092Y-164713461D01*
X68398331Y-164713461D01*
X68393856Y-164592540D01*
X68191387Y-164103736D01*
X67924532Y-164005073D01*
X66951605Y-164978000D01*
X66592395Y-164978000D01*
X65619468Y-164005073D01*
X65352613Y-164103736D01*
X65126092Y-164713461D01*
X61898331Y-164713461D01*
X61893856Y-164592540D01*
X61691387Y-164103736D01*
X61424532Y-164005073D01*
X60451605Y-164978000D01*
X60092395Y-164978000D01*
X59119468Y-164005073D01*
X58852613Y-164103736D01*
X58626092Y-164713461D01*
X34957000Y-164713461D01*
X34957000Y-163825468D01*
X59299073Y-163825468D01*
X60272000Y-164798395D01*
X61244927Y-163825468D01*
X65799073Y-163825468D01*
X66772000Y-164798395D01*
X67744927Y-163825468D01*
X79299073Y-163825468D01*
X80272000Y-164798395D01*
X81244927Y-163825468D01*
X85799073Y-163825468D01*
X86772000Y-164798395D01*
X87744927Y-163825468D01*
X99299073Y-163825468D01*
X100272000Y-164798395D01*
X101244927Y-163825468D01*
X105799073Y-163825468D01*
X106772000Y-164798395D01*
X107744927Y-163825468D01*
X119299073Y-163825468D01*
X120272000Y-164798395D01*
X121244927Y-163825468D01*
X125799073Y-163825468D01*
X126772000Y-164798395D01*
X127744927Y-163825468D01*
X127646264Y-163558613D01*
X127036539Y-163332092D01*
X126386540Y-163356144D01*
X125897736Y-163558613D01*
X125799073Y-163825468D01*
X121244927Y-163825468D01*
X121146264Y-163558613D01*
X120536539Y-163332092D01*
X119886540Y-163356144D01*
X119397736Y-163558613D01*
X119299073Y-163825468D01*
X107744927Y-163825468D01*
X107646264Y-163558613D01*
X107036539Y-163332092D01*
X106386540Y-163356144D01*
X105897736Y-163558613D01*
X105799073Y-163825468D01*
X101244927Y-163825468D01*
X101146264Y-163558613D01*
X100536539Y-163332092D01*
X99886540Y-163356144D01*
X99397736Y-163558613D01*
X99299073Y-163825468D01*
X87744927Y-163825468D01*
X87646264Y-163558613D01*
X87036539Y-163332092D01*
X86386540Y-163356144D01*
X85897736Y-163558613D01*
X85799073Y-163825468D01*
X81244927Y-163825468D01*
X81146264Y-163558613D01*
X80536539Y-163332092D01*
X79886540Y-163356144D01*
X79397736Y-163558613D01*
X79299073Y-163825468D01*
X67744927Y-163825468D01*
X67646264Y-163558613D01*
X67036539Y-163332092D01*
X66386540Y-163356144D01*
X65897736Y-163558613D01*
X65799073Y-163825468D01*
X61244927Y-163825468D01*
X61146264Y-163558613D01*
X60536539Y-163332092D01*
X59886540Y-163356144D01*
X59397736Y-163558613D01*
X59299073Y-163825468D01*
X34957000Y-163825468D01*
X34957000Y-160152778D01*
X58637000Y-160152778D01*
X58637000Y-160803222D01*
X58885914Y-161404153D01*
X59345847Y-161864086D01*
X59946778Y-162113000D01*
X60597222Y-162113000D01*
X61198153Y-161864086D01*
X61658086Y-161404153D01*
X61726909Y-161238000D01*
X65317091Y-161238000D01*
X65385914Y-161404153D01*
X65845847Y-161864086D01*
X66446778Y-162113000D01*
X67097222Y-162113000D01*
X67698153Y-161864086D01*
X68158086Y-161404153D01*
X68407000Y-160803222D01*
X68407000Y-160152778D01*
X78637000Y-160152778D01*
X78637000Y-160803222D01*
X78885914Y-161404153D01*
X79345847Y-161864086D01*
X79946778Y-162113000D01*
X80597222Y-162113000D01*
X81198153Y-161864086D01*
X81658086Y-161404153D01*
X81726909Y-161238000D01*
X85317091Y-161238000D01*
X85385914Y-161404153D01*
X85845847Y-161864086D01*
X86446778Y-162113000D01*
X87097222Y-162113000D01*
X87698153Y-161864086D01*
X88158086Y-161404153D01*
X88407000Y-160803222D01*
X88407000Y-160152778D01*
X98637000Y-160152778D01*
X98637000Y-160803222D01*
X98885914Y-161404153D01*
X99345847Y-161864086D01*
X99946778Y-162113000D01*
X100597222Y-162113000D01*
X101198153Y-161864086D01*
X101658086Y-161404153D01*
X101726909Y-161238000D01*
X105317091Y-161238000D01*
X105385914Y-161404153D01*
X105845847Y-161864086D01*
X106446778Y-162113000D01*
X107097222Y-162113000D01*
X107698153Y-161864086D01*
X108158086Y-161404153D01*
X108407000Y-160803222D01*
X108407000Y-160152778D01*
X118637000Y-160152778D01*
X118637000Y-160803222D01*
X118885914Y-161404153D01*
X119345847Y-161864086D01*
X119946778Y-162113000D01*
X120597222Y-162113000D01*
X121198153Y-161864086D01*
X121658086Y-161404153D01*
X121726909Y-161238000D01*
X125317091Y-161238000D01*
X125385914Y-161404153D01*
X125845847Y-161864086D01*
X126446778Y-162113000D01*
X127097222Y-162113000D01*
X127698153Y-161864086D01*
X128158086Y-161404153D01*
X128407000Y-160803222D01*
X128407000Y-160152778D01*
X128158086Y-159551847D01*
X127698153Y-159091914D01*
X127097222Y-158843000D01*
X126446778Y-158843000D01*
X125845847Y-159091914D01*
X125385914Y-159551847D01*
X125317091Y-159718000D01*
X121726909Y-159718000D01*
X121658086Y-159551847D01*
X121198153Y-159091914D01*
X120597222Y-158843000D01*
X119946778Y-158843000D01*
X119345847Y-159091914D01*
X118885914Y-159551847D01*
X118637000Y-160152778D01*
X108407000Y-160152778D01*
X108158086Y-159551847D01*
X107698153Y-159091914D01*
X107097222Y-158843000D01*
X106446778Y-158843000D01*
X105845847Y-159091914D01*
X105385914Y-159551847D01*
X105317091Y-159718000D01*
X101726909Y-159718000D01*
X101658086Y-159551847D01*
X101198153Y-159091914D01*
X100597222Y-158843000D01*
X99946778Y-158843000D01*
X99345847Y-159091914D01*
X98885914Y-159551847D01*
X98637000Y-160152778D01*
X88407000Y-160152778D01*
X88158086Y-159551847D01*
X87698153Y-159091914D01*
X87097222Y-158843000D01*
X86446778Y-158843000D01*
X85845847Y-159091914D01*
X85385914Y-159551847D01*
X85317091Y-159718000D01*
X81726909Y-159718000D01*
X81658086Y-159551847D01*
X81198153Y-159091914D01*
X80597222Y-158843000D01*
X79946778Y-158843000D01*
X79345847Y-159091914D01*
X78885914Y-159551847D01*
X78637000Y-160152778D01*
X68407000Y-160152778D01*
X68158086Y-159551847D01*
X67698153Y-159091914D01*
X67097222Y-158843000D01*
X66446778Y-158843000D01*
X65845847Y-159091914D01*
X65385914Y-159551847D01*
X65317091Y-159718000D01*
X61726909Y-159718000D01*
X61658086Y-159551847D01*
X61198153Y-159091914D01*
X60597222Y-158843000D01*
X59946778Y-158843000D01*
X59345847Y-159091914D01*
X58885914Y-159551847D01*
X58637000Y-160152778D01*
X34957000Y-160152778D01*
X34957000Y-154130532D01*
X37299073Y-154130532D01*
X37397736Y-154397387D01*
X38007461Y-154623908D01*
X38657460Y-154599856D01*
X39146264Y-154397387D01*
X39244927Y-154130532D01*
X38272000Y-153157605D01*
X37299073Y-154130532D01*
X34957000Y-154130532D01*
X34957000Y-152713461D01*
X36626092Y-152713461D01*
X36650144Y-153363460D01*
X36852613Y-153852264D01*
X37119468Y-153950927D01*
X38092395Y-152978000D01*
X38451605Y-152978000D01*
X39424532Y-153950927D01*
X39691387Y-153852264D01*
X39917908Y-153242539D01*
X39893856Y-152592540D01*
X39691387Y-152103736D01*
X39424532Y-152005073D01*
X38451605Y-152978000D01*
X38092395Y-152978000D01*
X37119468Y-152005073D01*
X36852613Y-152103736D01*
X36626092Y-152713461D01*
X34957000Y-152713461D01*
X34957000Y-151825468D01*
X37299073Y-151825468D01*
X38272000Y-152798395D01*
X39244927Y-151825468D01*
X39146264Y-151558613D01*
X38536539Y-151332092D01*
X37886540Y-151356144D01*
X37397736Y-151558613D01*
X37299073Y-151825468D01*
X34957000Y-151825468D01*
X34957000Y-148152778D01*
X36637000Y-148152778D01*
X36637000Y-148803222D01*
X36885914Y-149404153D01*
X37345847Y-149864086D01*
X37946778Y-150113000D01*
X38597222Y-150113000D01*
X39198153Y-149864086D01*
X39658086Y-149404153D01*
X39907000Y-148803222D01*
X39907000Y-148238001D01*
X43137000Y-148238001D01*
X43137000Y-148803222D01*
X43385914Y-149404153D01*
X43845847Y-149864086D01*
X44446778Y-150113000D01*
X45097222Y-150113000D01*
X45698153Y-149864086D01*
X46158086Y-149404153D01*
X46282016Y-149104959D01*
X46384182Y-149351607D01*
X46689397Y-149656822D01*
X47088180Y-149822004D01*
X47519820Y-149822004D01*
X47918603Y-149656822D01*
X48078421Y-149497004D01*
X55696305Y-149497004D01*
X55695908Y-149499000D01*
X55811161Y-150078418D01*
X55934495Y-150263000D01*
X41728421Y-150263000D01*
X41568603Y-150103182D01*
X41169820Y-149938000D01*
X40738180Y-149938000D01*
X40339397Y-150103182D01*
X40034182Y-150408397D01*
X39869000Y-150807180D01*
X39869000Y-151238820D01*
X40034182Y-151637603D01*
X40339397Y-151942818D01*
X40738180Y-152108000D01*
X41169820Y-152108000D01*
X41568603Y-151942818D01*
X41728421Y-151783000D01*
X43814774Y-151783000D01*
X43799073Y-151825468D01*
X44772000Y-152798395D01*
X45744927Y-151825468D01*
X45729226Y-151783000D01*
X55746829Y-151783000D01*
X55695908Y-152039000D01*
X55811161Y-152618418D01*
X56139375Y-153109625D01*
X56157619Y-153121816D01*
X56112235Y-153130843D01*
X55902191Y-153271191D01*
X55761843Y-153481235D01*
X55712560Y-153729000D01*
X55712560Y-153744000D01*
X54099425Y-153744000D01*
X54014603Y-153659178D01*
X53615820Y-153493996D01*
X53184180Y-153493996D01*
X52785397Y-153659178D01*
X52480182Y-153964393D01*
X52466261Y-153998000D01*
X45971608Y-153998000D01*
X45924534Y-153950926D01*
X46191387Y-153852264D01*
X46417908Y-153242539D01*
X46393856Y-152592540D01*
X46191387Y-152103736D01*
X45924532Y-152005073D01*
X44951605Y-152978000D01*
X44965748Y-152992143D01*
X44786143Y-153171748D01*
X44772000Y-153157605D01*
X44757858Y-153171748D01*
X44578253Y-152992143D01*
X44592395Y-152978000D01*
X43619468Y-152005073D01*
X43352613Y-152103736D01*
X43126092Y-152713461D01*
X43150144Y-153363460D01*
X43352613Y-153852264D01*
X43619466Y-153950926D01*
X43572392Y-153998000D01*
X41653411Y-153998000D01*
X41568593Y-153913182D01*
X41169810Y-153748000D01*
X40738170Y-153748000D01*
X40339387Y-153913182D01*
X40034172Y-154218397D01*
X39868990Y-154617180D01*
X39868990Y-155048820D01*
X40034172Y-155447603D01*
X40339387Y-155752818D01*
X40738170Y-155918000D01*
X41169810Y-155918000D01*
X41568593Y-155752818D01*
X41653411Y-155668000D01*
X53063763Y-155668000D01*
X53145996Y-155684357D01*
X53228229Y-155668000D01*
X53228233Y-155668000D01*
X53248362Y-155663996D01*
X53615820Y-155663996D01*
X54014603Y-155498814D01*
X54099417Y-155414000D01*
X55712560Y-155414000D01*
X55712560Y-155429000D01*
X55761843Y-155676765D01*
X55902191Y-155886809D01*
X56112235Y-156027157D01*
X56360000Y-156076440D01*
X58060000Y-156076440D01*
X58307765Y-156027157D01*
X58517809Y-155886809D01*
X58658157Y-155676765D01*
X58707440Y-155429000D01*
X58707440Y-153729000D01*
X58658157Y-153481235D01*
X58517809Y-153271191D01*
X58307765Y-153130843D01*
X58262381Y-153121816D01*
X58280625Y-153109625D01*
X58608839Y-152618418D01*
X58724092Y-152039000D01*
X58608839Y-151459582D01*
X58280625Y-150968375D01*
X57982239Y-150769000D01*
X58280625Y-150569625D01*
X58608839Y-150078418D01*
X58724092Y-149499000D01*
X58608839Y-148919582D01*
X58280625Y-148428375D01*
X57982239Y-148229000D01*
X58280625Y-148029625D01*
X58608839Y-147538418D01*
X58724092Y-146959000D01*
X58608839Y-146379582D01*
X58442430Y-146130532D01*
X119299073Y-146130532D01*
X119397736Y-146397387D01*
X120007461Y-146623908D01*
X120657460Y-146599856D01*
X121146264Y-146397387D01*
X121244927Y-146130532D01*
X125799073Y-146130532D01*
X125897736Y-146397387D01*
X126507461Y-146623908D01*
X127157460Y-146599856D01*
X127646264Y-146397387D01*
X127744927Y-146130532D01*
X126772000Y-145157605D01*
X125799073Y-146130532D01*
X121244927Y-146130532D01*
X120272000Y-145157605D01*
X119299073Y-146130532D01*
X58442430Y-146130532D01*
X58280625Y-145888375D01*
X57982239Y-145689000D01*
X58280625Y-145489625D01*
X58608839Y-144998418D01*
X58665520Y-144713461D01*
X118626092Y-144713461D01*
X118650144Y-145363460D01*
X118852613Y-145852264D01*
X119119468Y-145950927D01*
X120092395Y-144978000D01*
X120451605Y-144978000D01*
X121424532Y-145950927D01*
X121691387Y-145852264D01*
X121917908Y-145242539D01*
X121898331Y-144713461D01*
X125126092Y-144713461D01*
X125150144Y-145363460D01*
X125352613Y-145852264D01*
X125619468Y-145950927D01*
X126592395Y-144978000D01*
X126951605Y-144978000D01*
X127924532Y-145950927D01*
X128191387Y-145852264D01*
X128417908Y-145242539D01*
X128393856Y-144592540D01*
X128191387Y-144103736D01*
X127924532Y-144005073D01*
X126951605Y-144978000D01*
X126592395Y-144978000D01*
X125619468Y-144005073D01*
X125352613Y-144103736D01*
X125126092Y-144713461D01*
X121898331Y-144713461D01*
X121893856Y-144592540D01*
X121691387Y-144103736D01*
X121424532Y-144005073D01*
X120451605Y-144978000D01*
X120092395Y-144978000D01*
X119119468Y-144005073D01*
X118852613Y-144103736D01*
X118626092Y-144713461D01*
X58665520Y-144713461D01*
X58724092Y-144419000D01*
X58608839Y-143839582D01*
X58599409Y-143825468D01*
X119299073Y-143825468D01*
X120272000Y-144798395D01*
X121244927Y-143825468D01*
X125799073Y-143825468D01*
X126772000Y-144798395D01*
X127744927Y-143825468D01*
X127646264Y-143558613D01*
X127036539Y-143332092D01*
X126386540Y-143356144D01*
X125897736Y-143558613D01*
X125799073Y-143825468D01*
X121244927Y-143825468D01*
X121146264Y-143558613D01*
X120536539Y-143332092D01*
X119886540Y-143356144D01*
X119397736Y-143558613D01*
X119299073Y-143825468D01*
X58599409Y-143825468D01*
X58280625Y-143348375D01*
X57982239Y-143149000D01*
X58280625Y-142949625D01*
X58608839Y-142458418D01*
X58724092Y-141879000D01*
X58608839Y-141299582D01*
X58280625Y-140808375D01*
X57961522Y-140595157D01*
X58091358Y-140534183D01*
X58481645Y-140105924D01*
X58651476Y-139695890D01*
X58530155Y-139466000D01*
X57337000Y-139466000D01*
X57337000Y-139486000D01*
X57083000Y-139486000D01*
X57083000Y-139466000D01*
X55889845Y-139466000D01*
X55768524Y-139695890D01*
X55938355Y-140105924D01*
X56328642Y-140534183D01*
X56458478Y-140595157D01*
X56139375Y-140808375D01*
X55931822Y-141119000D01*
X48910802Y-141119000D01*
X46773912Y-138982110D01*
X55768524Y-138982110D01*
X55889845Y-139212000D01*
X57083000Y-139212000D01*
X57083000Y-138018181D01*
X57337000Y-138018181D01*
X57337000Y-139212000D01*
X58530155Y-139212000D01*
X58651476Y-138982110D01*
X58481645Y-138572076D01*
X58397878Y-138480159D01*
X84921000Y-138480159D01*
X84921000Y-139269841D01*
X85223199Y-139999412D01*
X85781588Y-140557801D01*
X86511159Y-140860000D01*
X87300841Y-140860000D01*
X88030412Y-140557801D01*
X88588801Y-139999412D01*
X88891000Y-139269841D01*
X88891000Y-138480159D01*
X88588801Y-137750588D01*
X88030412Y-137192199D01*
X87300841Y-136890000D01*
X86511159Y-136890000D01*
X85781588Y-137192199D01*
X85223199Y-137750588D01*
X84921000Y-138480159D01*
X58397878Y-138480159D01*
X58091358Y-138143817D01*
X57566892Y-137897514D01*
X57337000Y-138018181D01*
X57083000Y-138018181D01*
X56853108Y-137897514D01*
X56328642Y-138143817D01*
X55938355Y-138572076D01*
X55768524Y-138982110D01*
X46773912Y-138982110D01*
X45087000Y-137295199D01*
X45087000Y-137219180D01*
X44921818Y-136820397D01*
X44616603Y-136515182D01*
X44217820Y-136350000D01*
X43786180Y-136350000D01*
X43387397Y-136515182D01*
X43082182Y-136820397D01*
X42917000Y-137219180D01*
X42917000Y-137650820D01*
X43082182Y-138049603D01*
X43387397Y-138354818D01*
X43786180Y-138520000D01*
X44162199Y-138520000D01*
X48005671Y-142363473D01*
X48048071Y-142426929D01*
X48299463Y-142594904D01*
X48521148Y-142639000D01*
X48521152Y-142639000D01*
X48595999Y-142653888D01*
X48670846Y-142639000D01*
X55931822Y-142639000D01*
X56139375Y-142949625D01*
X56437761Y-143149000D01*
X56139375Y-143348375D01*
X55931822Y-143659000D01*
X49390014Y-143659000D01*
X49239818Y-143296397D01*
X48934603Y-142991182D01*
X48535820Y-142826000D01*
X48104180Y-142826000D01*
X47705397Y-142991182D01*
X47400182Y-143296397D01*
X47235000Y-143695180D01*
X47235000Y-144126820D01*
X47400182Y-144525603D01*
X47705397Y-144830818D01*
X48104180Y-144996000D01*
X48323579Y-144996000D01*
X48343524Y-145009327D01*
X48343526Y-145009329D01*
X48468902Y-145093102D01*
X48531463Y-145134904D01*
X48753148Y-145179000D01*
X48753152Y-145179000D01*
X48827999Y-145193888D01*
X48902846Y-145179000D01*
X55931822Y-145179000D01*
X56104212Y-145437000D01*
X47062421Y-145437000D01*
X46902603Y-145277182D01*
X46503820Y-145112000D01*
X46072180Y-145112000D01*
X45673397Y-145277182D01*
X45368182Y-145582397D01*
X45203000Y-145981180D01*
X45203000Y-146412820D01*
X45368182Y-146811603D01*
X45613378Y-147056799D01*
X45097222Y-146843000D01*
X44446778Y-146843000D01*
X44288029Y-146908756D01*
X44068538Y-146762097D01*
X43846853Y-146718001D01*
X43846848Y-146718001D01*
X43772001Y-146703113D01*
X43697154Y-146718001D01*
X39346845Y-146718001D01*
X39271998Y-146703113D01*
X39197151Y-146718001D01*
X39197147Y-146718001D01*
X38975462Y-146762097D01*
X38755971Y-146908756D01*
X38597222Y-146843000D01*
X37946778Y-146843000D01*
X37345847Y-147091914D01*
X36885914Y-147551847D01*
X36637000Y-148152778D01*
X34957000Y-148152778D01*
X34957000Y-138480159D01*
X35921000Y-138480159D01*
X35921000Y-139269841D01*
X36223199Y-139999412D01*
X36781588Y-140557801D01*
X37511159Y-140860000D01*
X38300841Y-140860000D01*
X39030412Y-140557801D01*
X39588801Y-139999412D01*
X39891000Y-139269841D01*
X39891000Y-138480159D01*
X39588801Y-137750588D01*
X39030412Y-137192199D01*
X38300841Y-136890000D01*
X37511159Y-136890000D01*
X36781588Y-137192199D01*
X36223199Y-137750588D01*
X35921000Y-138480159D01*
X34957000Y-138480159D01*
X34957000Y-136130532D01*
X62299073Y-136130532D01*
X62397736Y-136397387D01*
X63007461Y-136623908D01*
X63657460Y-136599856D01*
X64146264Y-136397387D01*
X64244927Y-136130532D01*
X68799073Y-136130532D01*
X68897736Y-136397387D01*
X69507461Y-136623908D01*
X70157460Y-136599856D01*
X70646264Y-136397387D01*
X70744927Y-136130532D01*
X69772000Y-135157605D01*
X68799073Y-136130532D01*
X64244927Y-136130532D01*
X63272000Y-135157605D01*
X62299073Y-136130532D01*
X34957000Y-136130532D01*
X34957000Y-85745000D01*
X35121908Y-85745000D01*
X35237161Y-86324418D01*
X35565375Y-86815625D01*
X35863761Y-87015000D01*
X35565375Y-87214375D01*
X35237161Y-87705582D01*
X35121908Y-88285000D01*
X35237161Y-88864418D01*
X35565375Y-89355625D01*
X35863761Y-89555000D01*
X35565375Y-89754375D01*
X35237161Y-90245582D01*
X35121908Y-90825000D01*
X35237161Y-91404418D01*
X35565375Y-91895625D01*
X35884478Y-92108843D01*
X35754642Y-92169817D01*
X35364355Y-92598076D01*
X35194524Y-93008110D01*
X35315845Y-93238000D01*
X36509000Y-93238000D01*
X36509000Y-93218000D01*
X36763000Y-93218000D01*
X36763000Y-93238000D01*
X36783000Y-93238000D01*
X36783000Y-93492000D01*
X36763000Y-93492000D01*
X36763000Y-93512000D01*
X36509000Y-93512000D01*
X36509000Y-93492000D01*
X35315845Y-93492000D01*
X35194524Y-93721890D01*
X35364355Y-94131924D01*
X35754642Y-94560183D01*
X35884478Y-94621157D01*
X35565375Y-94834375D01*
X35237161Y-95325582D01*
X35121908Y-95905000D01*
X35237161Y-96484418D01*
X35565375Y-96975625D01*
X35884478Y-97188843D01*
X35754642Y-97249817D01*
X35364355Y-97678076D01*
X35194524Y-98088110D01*
X35315845Y-98318000D01*
X36509000Y-98318000D01*
X36509000Y-98298000D01*
X36763000Y-98298000D01*
X36763000Y-98318000D01*
X36783000Y-98318000D01*
X36783000Y-98572000D01*
X36763000Y-98572000D01*
X36763000Y-98592000D01*
X36509000Y-98592000D01*
X36509000Y-98572000D01*
X35315845Y-98572000D01*
X35194524Y-98801890D01*
X35364355Y-99211924D01*
X35754642Y-99640183D01*
X35884478Y-99701157D01*
X35565375Y-99914375D01*
X35237161Y-100405582D01*
X35121908Y-100985000D01*
X35237161Y-101564418D01*
X35565375Y-102055625D01*
X35863761Y-102255000D01*
X35565375Y-102454375D01*
X35237161Y-102945582D01*
X35121908Y-103525000D01*
X35237161Y-104104418D01*
X35565375Y-104595625D01*
X35863761Y-104795000D01*
X35565375Y-104994375D01*
X35237161Y-105485582D01*
X35121908Y-106065000D01*
X35237161Y-106644418D01*
X35565375Y-107135625D01*
X35863761Y-107335000D01*
X35565375Y-107534375D01*
X35237161Y-108025582D01*
X35121908Y-108605000D01*
X35237161Y-109184418D01*
X35565375Y-109675625D01*
X35884478Y-109888843D01*
X35754642Y-109949817D01*
X35364355Y-110378076D01*
X35194524Y-110788110D01*
X35315845Y-111018000D01*
X36509000Y-111018000D01*
X36509000Y-110998000D01*
X36763000Y-110998000D01*
X36763000Y-111018000D01*
X36783000Y-111018000D01*
X36783000Y-111272000D01*
X36763000Y-111272000D01*
X36763000Y-111292000D01*
X36509000Y-111292000D01*
X36509000Y-111272000D01*
X35315845Y-111272000D01*
X35194524Y-111501890D01*
X35364355Y-111911924D01*
X35754642Y-112340183D01*
X35884478Y-112401157D01*
X35565375Y-112614375D01*
X35237161Y-113105582D01*
X35121908Y-113685000D01*
X35237161Y-114264418D01*
X35565375Y-114755625D01*
X35863761Y-114955000D01*
X35565375Y-115154375D01*
X35237161Y-115645582D01*
X35121908Y-116225000D01*
X35237161Y-116804418D01*
X35565375Y-117295625D01*
X35884478Y-117508843D01*
X35754642Y-117569817D01*
X35364355Y-117998076D01*
X35194524Y-118408110D01*
X35315845Y-118638000D01*
X36509000Y-118638000D01*
X36509000Y-118618000D01*
X36763000Y-118618000D01*
X36763000Y-118638000D01*
X36783000Y-118638000D01*
X36783000Y-118892000D01*
X36763000Y-118892000D01*
X36763000Y-118912000D01*
X36509000Y-118912000D01*
X36509000Y-118892000D01*
X35315845Y-118892000D01*
X35194524Y-119121890D01*
X35364355Y-119531924D01*
X35754642Y-119960183D01*
X35884478Y-120021157D01*
X35565375Y-120234375D01*
X35237161Y-120725582D01*
X35121908Y-121305000D01*
X35237161Y-121884418D01*
X35565375Y-122375625D01*
X35863761Y-122575000D01*
X35565375Y-122774375D01*
X35237161Y-123265582D01*
X35121908Y-123845000D01*
X35237161Y-124424418D01*
X35565375Y-124915625D01*
X35863761Y-125115000D01*
X35565375Y-125314375D01*
X35237161Y-125805582D01*
X35121908Y-126385000D01*
X35237161Y-126964418D01*
X35565375Y-127455625D01*
X35884478Y-127668843D01*
X35754642Y-127729817D01*
X35364355Y-128158076D01*
X35194524Y-128568110D01*
X35315845Y-128798000D01*
X36509000Y-128798000D01*
X36509000Y-128778000D01*
X36763000Y-128778000D01*
X36763000Y-128798000D01*
X36783000Y-128798000D01*
X36783000Y-129052000D01*
X36763000Y-129052000D01*
X36763000Y-129072000D01*
X36509000Y-129072000D01*
X36509000Y-129052000D01*
X35315845Y-129052000D01*
X35194524Y-129281890D01*
X35364355Y-129691924D01*
X35754642Y-130120183D01*
X35884478Y-130181157D01*
X35565375Y-130394375D01*
X35237161Y-130885582D01*
X35121908Y-131465000D01*
X35237161Y-132044418D01*
X35565375Y-132535625D01*
X35863761Y-132735000D01*
X35565375Y-132934375D01*
X35237161Y-133425582D01*
X35121908Y-134005000D01*
X35237161Y-134584418D01*
X35565375Y-135075625D01*
X36056582Y-135403839D01*
X36489744Y-135490000D01*
X36782256Y-135490000D01*
X37215418Y-135403839D01*
X37706625Y-135075625D01*
X37718816Y-135057381D01*
X37727843Y-135102765D01*
X37868191Y-135312809D01*
X38078235Y-135453157D01*
X38326000Y-135502440D01*
X40026000Y-135502440D01*
X40273765Y-135453157D01*
X40483809Y-135312809D01*
X40624157Y-135102765D01*
X40673440Y-134855000D01*
X40673440Y-134713461D01*
X61626092Y-134713461D01*
X61650144Y-135363460D01*
X61852613Y-135852264D01*
X62119468Y-135950927D01*
X63092395Y-134978000D01*
X63451605Y-134978000D01*
X64424532Y-135950927D01*
X64691387Y-135852264D01*
X64917908Y-135242539D01*
X64898331Y-134713461D01*
X68126092Y-134713461D01*
X68150144Y-135363460D01*
X68352613Y-135852264D01*
X68619468Y-135950927D01*
X69592395Y-134978000D01*
X69951605Y-134978000D01*
X70924532Y-135950927D01*
X71191387Y-135852264D01*
X71348939Y-135428180D01*
X83987000Y-135428180D01*
X83987000Y-135859820D01*
X84152182Y-136258603D01*
X84457397Y-136563818D01*
X84856180Y-136729000D01*
X85287820Y-136729000D01*
X85686603Y-136563818D01*
X85846421Y-136404000D01*
X115123199Y-136404000D01*
X118705823Y-139986625D01*
X118637000Y-140152778D01*
X118637000Y-140803222D01*
X118885914Y-141404153D01*
X119345847Y-141864086D01*
X119946778Y-142113000D01*
X120597222Y-142113000D01*
X121198153Y-141864086D01*
X121658086Y-141404153D01*
X121726909Y-141238000D01*
X125317091Y-141238000D01*
X125385914Y-141404153D01*
X125845847Y-141864086D01*
X126446778Y-142113000D01*
X127097222Y-142113000D01*
X127698153Y-141864086D01*
X128158086Y-141404153D01*
X128407000Y-140803222D01*
X128407000Y-140152778D01*
X128158086Y-139551847D01*
X127698153Y-139091914D01*
X127097222Y-138843000D01*
X126446778Y-138843000D01*
X125845847Y-139091914D01*
X125385914Y-139551847D01*
X125317091Y-139718000D01*
X121726909Y-139718000D01*
X121658086Y-139551847D01*
X121198153Y-139091914D01*
X120597222Y-138843000D01*
X119946778Y-138843000D01*
X119780625Y-138911823D01*
X116028331Y-135159530D01*
X115985929Y-135096071D01*
X115734537Y-134928096D01*
X115512852Y-134884000D01*
X115512847Y-134884000D01*
X115438000Y-134869112D01*
X115363153Y-134884000D01*
X85846421Y-134884000D01*
X85686603Y-134724182D01*
X85287820Y-134559000D01*
X84856180Y-134559000D01*
X84457397Y-134724182D01*
X84152182Y-135029397D01*
X83987000Y-135428180D01*
X71348939Y-135428180D01*
X71417908Y-135242539D01*
X71393856Y-134592540D01*
X71191387Y-134103736D01*
X70924532Y-134005073D01*
X69951605Y-134978000D01*
X69592395Y-134978000D01*
X68619468Y-134005073D01*
X68352613Y-134103736D01*
X68126092Y-134713461D01*
X64898331Y-134713461D01*
X64893856Y-134592540D01*
X64691387Y-134103736D01*
X64424532Y-134005073D01*
X63451605Y-134978000D01*
X63092395Y-134978000D01*
X62119468Y-134005073D01*
X61852613Y-134103736D01*
X61626092Y-134713461D01*
X40673440Y-134713461D01*
X40673440Y-134447000D01*
X42970579Y-134447000D01*
X43055397Y-134531818D01*
X43454180Y-134697000D01*
X43885820Y-134697000D01*
X44284603Y-134531818D01*
X44589818Y-134226603D01*
X44755000Y-133827820D01*
X44755000Y-133825468D01*
X62299073Y-133825468D01*
X63272000Y-134798395D01*
X64244927Y-133825468D01*
X68799073Y-133825468D01*
X69772000Y-134798395D01*
X70744927Y-133825468D01*
X70646264Y-133558613D01*
X70036539Y-133332092D01*
X69386540Y-133356144D01*
X68897736Y-133558613D01*
X68799073Y-133825468D01*
X64244927Y-133825468D01*
X64146264Y-133558613D01*
X63536539Y-133332092D01*
X62886540Y-133356144D01*
X62397736Y-133558613D01*
X62299073Y-133825468D01*
X44755000Y-133825468D01*
X44755000Y-133508001D01*
X47558580Y-133508001D01*
X47705397Y-133654818D01*
X48104180Y-133820000D01*
X48535820Y-133820000D01*
X48934603Y-133654818D01*
X49239818Y-133349603D01*
X49405000Y-132950820D01*
X49405000Y-132519180D01*
X49239818Y-132120397D01*
X48934603Y-131815182D01*
X48535820Y-131650000D01*
X48344604Y-131650000D01*
X48223818Y-131358397D01*
X47918603Y-131053182D01*
X47519820Y-130888000D01*
X47328604Y-130888000D01*
X47207818Y-130596397D01*
X46902603Y-130291182D01*
X46503820Y-130126000D01*
X46072180Y-130126000D01*
X45673397Y-130291182D01*
X45513579Y-130451000D01*
X42777421Y-130451000D01*
X42811818Y-130416603D01*
X42977000Y-130017820D01*
X42977000Y-129912999D01*
X61736320Y-129912999D01*
X61637000Y-130152778D01*
X61637000Y-130803222D01*
X61885914Y-131404153D01*
X62345847Y-131864086D01*
X62946778Y-132113000D01*
X63597222Y-132113000D01*
X64198153Y-131864086D01*
X64658086Y-131404153D01*
X64726909Y-131238000D01*
X68317091Y-131238000D01*
X68385914Y-131404153D01*
X68845847Y-131864086D01*
X69446778Y-132113000D01*
X70097222Y-132113000D01*
X70698153Y-131864086D01*
X71158086Y-131404153D01*
X71271423Y-131130532D01*
X97299073Y-131130532D01*
X97397736Y-131397387D01*
X98007461Y-131623908D01*
X98657460Y-131599856D01*
X99146264Y-131397387D01*
X99244927Y-131130532D01*
X103799073Y-131130532D01*
X103897736Y-131397387D01*
X104507461Y-131623908D01*
X105157460Y-131599856D01*
X105646264Y-131397387D01*
X105744927Y-131130532D01*
X119299073Y-131130532D01*
X119397736Y-131397387D01*
X120007461Y-131623908D01*
X120657460Y-131599856D01*
X121146264Y-131397387D01*
X121244927Y-131130532D01*
X125799073Y-131130532D01*
X125897736Y-131397387D01*
X126507461Y-131623908D01*
X127157460Y-131599856D01*
X127646264Y-131397387D01*
X127744927Y-131130532D01*
X126772000Y-130157605D01*
X125799073Y-131130532D01*
X121244927Y-131130532D01*
X120272000Y-130157605D01*
X119299073Y-131130532D01*
X105744927Y-131130532D01*
X104772000Y-130157605D01*
X103799073Y-131130532D01*
X99244927Y-131130532D01*
X98272000Y-130157605D01*
X97299073Y-131130532D01*
X71271423Y-131130532D01*
X71407000Y-130803222D01*
X71407000Y-130152778D01*
X71307680Y-129912999D01*
X94716792Y-129912999D01*
X94820182Y-130162603D01*
X95125397Y-130467818D01*
X95524180Y-130633000D01*
X95955820Y-130633000D01*
X96354603Y-130467818D01*
X96643322Y-130179099D01*
X96650144Y-130363460D01*
X96852613Y-130852264D01*
X97119468Y-130950927D01*
X98092395Y-129978000D01*
X98451605Y-129978000D01*
X99424532Y-130950927D01*
X99691387Y-130852264D01*
X99917908Y-130242539D01*
X99898331Y-129713461D01*
X103126092Y-129713461D01*
X103150144Y-130363460D01*
X103352613Y-130852264D01*
X103619468Y-130950927D01*
X104592395Y-129978000D01*
X104951605Y-129978000D01*
X105924532Y-130950927D01*
X106191387Y-130852264D01*
X106417908Y-130242539D01*
X106398331Y-129713461D01*
X118626092Y-129713461D01*
X118650144Y-130363460D01*
X118852613Y-130852264D01*
X119119468Y-130950927D01*
X120092395Y-129978000D01*
X120451605Y-129978000D01*
X121424532Y-130950927D01*
X121691387Y-130852264D01*
X121917908Y-130242539D01*
X121898331Y-129713461D01*
X125126092Y-129713461D01*
X125150144Y-130363460D01*
X125352613Y-130852264D01*
X125619468Y-130950927D01*
X126592395Y-129978000D01*
X126951605Y-129978000D01*
X127924532Y-130950927D01*
X128191387Y-130852264D01*
X128417908Y-130242539D01*
X128393856Y-129592540D01*
X128191387Y-129103736D01*
X127924532Y-129005073D01*
X126951605Y-129978000D01*
X126592395Y-129978000D01*
X125619468Y-129005073D01*
X125352613Y-129103736D01*
X125126092Y-129713461D01*
X121898331Y-129713461D01*
X121893856Y-129592540D01*
X121691387Y-129103736D01*
X121424532Y-129005073D01*
X120451605Y-129978000D01*
X120092395Y-129978000D01*
X119119468Y-129005073D01*
X118852613Y-129103736D01*
X118626092Y-129713461D01*
X106398331Y-129713461D01*
X106393856Y-129592540D01*
X106191387Y-129103736D01*
X105924532Y-129005073D01*
X104951605Y-129978000D01*
X104592395Y-129978000D01*
X103619468Y-129005073D01*
X103352613Y-129103736D01*
X103126092Y-129713461D01*
X99898331Y-129713461D01*
X99893856Y-129592540D01*
X99691387Y-129103736D01*
X99424532Y-129005073D01*
X98451605Y-129978000D01*
X98092395Y-129978000D01*
X97119468Y-129005073D01*
X96852613Y-129103736D01*
X96794816Y-129259309D01*
X96659818Y-128933397D01*
X96551889Y-128825468D01*
X97299073Y-128825468D01*
X98272000Y-129798395D01*
X99244927Y-128825468D01*
X103799073Y-128825468D01*
X104772000Y-129798395D01*
X105744927Y-128825468D01*
X119299073Y-128825468D01*
X120272000Y-129798395D01*
X121244927Y-128825468D01*
X125799073Y-128825468D01*
X126772000Y-129798395D01*
X127744927Y-128825468D01*
X127646264Y-128558613D01*
X127036539Y-128332092D01*
X126386540Y-128356144D01*
X125897736Y-128558613D01*
X125799073Y-128825468D01*
X121244927Y-128825468D01*
X121146264Y-128558613D01*
X120536539Y-128332092D01*
X119886540Y-128356144D01*
X119397736Y-128558613D01*
X119299073Y-128825468D01*
X105744927Y-128825468D01*
X105646264Y-128558613D01*
X105036539Y-128332092D01*
X104386540Y-128356144D01*
X103897736Y-128558613D01*
X103799073Y-128825468D01*
X99244927Y-128825468D01*
X99146264Y-128558613D01*
X98536539Y-128332092D01*
X97886540Y-128356144D01*
X97397736Y-128558613D01*
X97299073Y-128825468D01*
X96551889Y-128825468D01*
X96354603Y-128628182D01*
X95955820Y-128463000D01*
X95680306Y-128463000D01*
X95641536Y-128437095D01*
X95419851Y-128392999D01*
X95419846Y-128392999D01*
X95344999Y-128378111D01*
X95270152Y-128392999D01*
X66933422Y-128392999D01*
X66941818Y-128384603D01*
X67107000Y-127985820D01*
X67107000Y-127554180D01*
X66941818Y-127155397D01*
X66636603Y-126850182D01*
X66237820Y-126685000D01*
X65806180Y-126685000D01*
X65407397Y-126850182D01*
X65247579Y-127010000D01*
X62220421Y-127010000D01*
X62369818Y-126860603D01*
X62535000Y-126461820D01*
X62535000Y-126030180D01*
X62369818Y-125631397D01*
X62064603Y-125326182D01*
X61665820Y-125161000D01*
X61446421Y-125161000D01*
X61238537Y-125022096D01*
X61016852Y-124978000D01*
X61016847Y-124978000D01*
X60942000Y-124963112D01*
X60867153Y-124978000D01*
X42666421Y-124978000D01*
X42506603Y-124818182D01*
X42274400Y-124722000D01*
X42506603Y-124625818D01*
X42666421Y-124466000D01*
X45060772Y-124466000D01*
X45232180Y-124537000D01*
X45663820Y-124537000D01*
X45738225Y-124506180D01*
X87543000Y-124506180D01*
X87543000Y-124937820D01*
X87708182Y-125336603D01*
X88013397Y-125641818D01*
X88412180Y-125807000D01*
X88638198Y-125807000D01*
X88793673Y-125962475D01*
X88836071Y-126025929D01*
X88899524Y-126068327D01*
X88899526Y-126068329D01*
X89015587Y-126145878D01*
X89087463Y-126193904D01*
X89309148Y-126238000D01*
X89309152Y-126238000D01*
X89383999Y-126252888D01*
X89458846Y-126238000D01*
X96817091Y-126238000D01*
X96885914Y-126404153D01*
X97345847Y-126864086D01*
X97946778Y-127113000D01*
X98597222Y-127113000D01*
X99198153Y-126864086D01*
X99658086Y-126404153D01*
X99726909Y-126238000D01*
X103317091Y-126238000D01*
X103385914Y-126404153D01*
X103845847Y-126864086D01*
X104446778Y-127113000D01*
X105097222Y-127113000D01*
X105698153Y-126864086D01*
X106158086Y-126404153D01*
X106407000Y-125803222D01*
X106407000Y-125152778D01*
X106158086Y-124551847D01*
X105698153Y-124091914D01*
X105097222Y-123843000D01*
X104446778Y-123843000D01*
X103845847Y-124091914D01*
X103385914Y-124551847D01*
X103317091Y-124718000D01*
X99726909Y-124718000D01*
X99658086Y-124551847D01*
X99198153Y-124091914D01*
X98597222Y-123843000D01*
X97946778Y-123843000D01*
X97345847Y-124091914D01*
X96885914Y-124551847D01*
X96817091Y-124718000D01*
X89713000Y-124718000D01*
X89713000Y-124506180D01*
X89547818Y-124107397D01*
X89242603Y-123802182D01*
X88843820Y-123637000D01*
X88412180Y-123637000D01*
X88013397Y-123802182D01*
X87708182Y-124107397D01*
X87543000Y-124506180D01*
X45738225Y-124506180D01*
X46062603Y-124371818D01*
X46367818Y-124066603D01*
X46533000Y-123667820D01*
X46533000Y-123236180D01*
X46367818Y-122837397D01*
X46062603Y-122532182D01*
X45825572Y-122434000D01*
X113253579Y-122434000D01*
X113413397Y-122593818D01*
X113812180Y-122759000D01*
X114243820Y-122759000D01*
X114642603Y-122593818D01*
X114947818Y-122288603D01*
X115113000Y-121889820D01*
X115113000Y-121458180D01*
X115094286Y-121413001D01*
X115132200Y-121413001D01*
X118705823Y-124986625D01*
X118637000Y-125152778D01*
X118637000Y-125803222D01*
X118885914Y-126404153D01*
X119345847Y-126864086D01*
X119946778Y-127113000D01*
X120597222Y-127113000D01*
X121198153Y-126864086D01*
X121658086Y-126404153D01*
X121726909Y-126238000D01*
X125317091Y-126238000D01*
X125385914Y-126404153D01*
X125845847Y-126864086D01*
X126446778Y-127113000D01*
X127097222Y-127113000D01*
X127698153Y-126864086D01*
X128158086Y-126404153D01*
X128407000Y-125803222D01*
X128407000Y-125152778D01*
X128158086Y-124551847D01*
X127698153Y-124091914D01*
X127097222Y-123843000D01*
X126446778Y-123843000D01*
X125845847Y-124091914D01*
X125385914Y-124551847D01*
X125317091Y-124718000D01*
X121726909Y-124718000D01*
X121658086Y-124551847D01*
X121198153Y-124091914D01*
X120597222Y-123843000D01*
X119946778Y-123843000D01*
X119780625Y-123911823D01*
X116037332Y-120168531D01*
X115994930Y-120105072D01*
X115743538Y-119937097D01*
X115521853Y-119893001D01*
X115521848Y-119893001D01*
X115447001Y-119878113D01*
X115372154Y-119893001D01*
X96769440Y-119893001D01*
X96769440Y-118628000D01*
X96720157Y-118380235D01*
X96579809Y-118170191D01*
X96369765Y-118029843D01*
X96324381Y-118020816D01*
X96342625Y-118008625D01*
X96670839Y-117517418D01*
X96786092Y-116938000D01*
X96670839Y-116358582D01*
X96518461Y-116130532D01*
X119299073Y-116130532D01*
X119397736Y-116397387D01*
X120007461Y-116623908D01*
X120657460Y-116599856D01*
X121146264Y-116397387D01*
X121244927Y-116130532D01*
X125799073Y-116130532D01*
X125897736Y-116397387D01*
X126507461Y-116623908D01*
X127157460Y-116599856D01*
X127646264Y-116397387D01*
X127744927Y-116130532D01*
X126772000Y-115157605D01*
X125799073Y-116130532D01*
X121244927Y-116130532D01*
X120272000Y-115157605D01*
X119299073Y-116130532D01*
X96518461Y-116130532D01*
X96342625Y-115867375D01*
X96044239Y-115668000D01*
X96342625Y-115468625D01*
X96670839Y-114977418D01*
X96723343Y-114713461D01*
X118626092Y-114713461D01*
X118650144Y-115363460D01*
X118852613Y-115852264D01*
X119119468Y-115950927D01*
X120092395Y-114978000D01*
X120451605Y-114978000D01*
X121424532Y-115950927D01*
X121691387Y-115852264D01*
X121917908Y-115242539D01*
X121898331Y-114713461D01*
X125126092Y-114713461D01*
X125150144Y-115363460D01*
X125352613Y-115852264D01*
X125619468Y-115950927D01*
X126592395Y-114978000D01*
X126951605Y-114978000D01*
X127924532Y-115950927D01*
X128191387Y-115852264D01*
X128417908Y-115242539D01*
X128393856Y-114592540D01*
X128191387Y-114103736D01*
X127924532Y-114005073D01*
X126951605Y-114978000D01*
X126592395Y-114978000D01*
X125619468Y-114005073D01*
X125352613Y-114103736D01*
X125126092Y-114713461D01*
X121898331Y-114713461D01*
X121893856Y-114592540D01*
X121691387Y-114103736D01*
X121424532Y-114005073D01*
X120451605Y-114978000D01*
X120092395Y-114978000D01*
X119119468Y-114005073D01*
X118852613Y-114103736D01*
X118626092Y-114713461D01*
X96723343Y-114713461D01*
X96786092Y-114398000D01*
X96672209Y-113825468D01*
X119299073Y-113825468D01*
X120272000Y-114798395D01*
X121244927Y-113825468D01*
X125799073Y-113825468D01*
X126772000Y-114798395D01*
X127744927Y-113825468D01*
X127646264Y-113558613D01*
X127036539Y-113332092D01*
X126386540Y-113356144D01*
X125897736Y-113558613D01*
X125799073Y-113825468D01*
X121244927Y-113825468D01*
X121146264Y-113558613D01*
X120536539Y-113332092D01*
X119886540Y-113356144D01*
X119397736Y-113558613D01*
X119299073Y-113825468D01*
X96672209Y-113825468D01*
X96670839Y-113818582D01*
X96342625Y-113327375D01*
X96044239Y-113128000D01*
X96342625Y-112928625D01*
X96670839Y-112437418D01*
X96786092Y-111858000D01*
X96670839Y-111278582D01*
X96342625Y-110787375D01*
X96044239Y-110588000D01*
X96342625Y-110388625D01*
X96670839Y-109897418D01*
X96695352Y-109774180D01*
X113438000Y-109774180D01*
X113438000Y-110205820D01*
X113603182Y-110604603D01*
X113908397Y-110909818D01*
X114307180Y-111075000D01*
X114536511Y-111075000D01*
X114714463Y-111193904D01*
X114936148Y-111238000D01*
X114936152Y-111238000D01*
X115010999Y-111252888D01*
X115085846Y-111238000D01*
X118817091Y-111238000D01*
X118885914Y-111404153D01*
X119345847Y-111864086D01*
X119946778Y-112113000D01*
X120597222Y-112113000D01*
X121198153Y-111864086D01*
X121658086Y-111404153D01*
X121726909Y-111238000D01*
X125317091Y-111238000D01*
X125385914Y-111404153D01*
X125845847Y-111864086D01*
X126446778Y-112113000D01*
X127097222Y-112113000D01*
X127698153Y-111864086D01*
X128158086Y-111404153D01*
X128407000Y-110803222D01*
X128407000Y-110152778D01*
X128158086Y-109551847D01*
X127698153Y-109091914D01*
X127097222Y-108843000D01*
X126446778Y-108843000D01*
X125845847Y-109091914D01*
X125385914Y-109551847D01*
X125317091Y-109718000D01*
X121726909Y-109718000D01*
X121658086Y-109551847D01*
X121198153Y-109091914D01*
X120597222Y-108843000D01*
X119946778Y-108843000D01*
X119345847Y-109091914D01*
X118885914Y-109551847D01*
X118817091Y-109718000D01*
X115584729Y-109718000D01*
X115442818Y-109375397D01*
X115137603Y-109070182D01*
X114738820Y-108905000D01*
X114307180Y-108905000D01*
X113908397Y-109070182D01*
X113603182Y-109375397D01*
X113438000Y-109774180D01*
X96695352Y-109774180D01*
X96786092Y-109318000D01*
X96670839Y-108738582D01*
X96342625Y-108247375D01*
X96044239Y-108048000D01*
X96342625Y-107848625D01*
X96670839Y-107357418D01*
X96786092Y-106778000D01*
X96670839Y-106198582D01*
X96342625Y-105707375D01*
X96023522Y-105494157D01*
X96153358Y-105433183D01*
X96543645Y-105004924D01*
X96713476Y-104594890D01*
X96592155Y-104365000D01*
X95399000Y-104365000D01*
X95399000Y-104385000D01*
X95145000Y-104385000D01*
X95145000Y-104365000D01*
X93951845Y-104365000D01*
X93830524Y-104594890D01*
X94000355Y-105004924D01*
X94390642Y-105433183D01*
X94520478Y-105494157D01*
X94201375Y-105707375D01*
X93873161Y-106198582D01*
X93757908Y-106778000D01*
X93873161Y-107357418D01*
X94201375Y-107848625D01*
X94499761Y-108048000D01*
X94201375Y-108247375D01*
X93873161Y-108738582D01*
X93757908Y-109318000D01*
X93873161Y-109897418D01*
X94201375Y-110388625D01*
X94499761Y-110588000D01*
X94201375Y-110787375D01*
X93873161Y-111278582D01*
X93757908Y-111858000D01*
X93873161Y-112437418D01*
X94201375Y-112928625D01*
X94499761Y-113128000D01*
X94201375Y-113327375D01*
X93873161Y-113818582D01*
X93757908Y-114398000D01*
X93873161Y-114977418D01*
X94201375Y-115468625D01*
X94499761Y-115668000D01*
X94201375Y-115867375D01*
X94053958Y-116088000D01*
X90974239Y-116088000D01*
X91158086Y-115904153D01*
X91407000Y-115303222D01*
X91407000Y-114652778D01*
X91158086Y-114051847D01*
X90698153Y-113591914D01*
X90097222Y-113343000D01*
X89446778Y-113343000D01*
X88845847Y-113591914D01*
X88385914Y-114051847D01*
X88317091Y-114218000D01*
X84726909Y-114218000D01*
X84658086Y-114051847D01*
X84198153Y-113591914D01*
X83597222Y-113343000D01*
X82946778Y-113343000D01*
X82345847Y-113591914D01*
X81885914Y-114051847D01*
X81637000Y-114652778D01*
X81637000Y-115303222D01*
X81705823Y-115469375D01*
X79550198Y-117625001D01*
X45027000Y-117625001D01*
X45027000Y-117394180D01*
X44861818Y-116995397D01*
X44556603Y-116690182D01*
X44157820Y-116525000D01*
X43838179Y-116525000D01*
X44146264Y-116397387D01*
X44244927Y-116130532D01*
X48799073Y-116130532D01*
X48897736Y-116397387D01*
X49507461Y-116623908D01*
X50157460Y-116599856D01*
X50646264Y-116397387D01*
X50744927Y-116130532D01*
X49772000Y-115157605D01*
X48799073Y-116130532D01*
X44244927Y-116130532D01*
X43272000Y-115157605D01*
X43257858Y-115171748D01*
X43078253Y-114992143D01*
X43092395Y-114978000D01*
X43451605Y-114978000D01*
X44424532Y-115950927D01*
X44691387Y-115852264D01*
X44917908Y-115242539D01*
X44898331Y-114713461D01*
X48126092Y-114713461D01*
X48150144Y-115363460D01*
X48352613Y-115852264D01*
X48619468Y-115950927D01*
X49592395Y-114978000D01*
X49951605Y-114978000D01*
X50924532Y-115950927D01*
X51191387Y-115852264D01*
X51417908Y-115242539D01*
X51393856Y-114592540D01*
X51191387Y-114103736D01*
X50924532Y-114005073D01*
X49951605Y-114978000D01*
X49592395Y-114978000D01*
X48619468Y-114005073D01*
X48352613Y-114103736D01*
X48126092Y-114713461D01*
X44898331Y-114713461D01*
X44893856Y-114592540D01*
X44691387Y-114103736D01*
X44424532Y-114005073D01*
X43451605Y-114978000D01*
X43092395Y-114978000D01*
X42119468Y-114005073D01*
X41852613Y-114103736D01*
X41626092Y-114713461D01*
X41650144Y-115363460D01*
X41766984Y-115645538D01*
X40499146Y-114377700D01*
X40574839Y-114264418D01*
X40662151Y-113825468D01*
X42299073Y-113825468D01*
X43272000Y-114798395D01*
X44244927Y-113825468D01*
X48799073Y-113825468D01*
X49772000Y-114798395D01*
X50744927Y-113825468D01*
X50646264Y-113558613D01*
X50036539Y-113332092D01*
X49386540Y-113356144D01*
X48897736Y-113558613D01*
X48799073Y-113825468D01*
X44244927Y-113825468D01*
X44146264Y-113558613D01*
X43536539Y-113332092D01*
X42886540Y-113356144D01*
X42397736Y-113558613D01*
X42299073Y-113825468D01*
X40662151Y-113825468D01*
X40690092Y-113685000D01*
X40574839Y-113105582D01*
X40246625Y-112614375D01*
X39948239Y-112415000D01*
X40246625Y-112215625D01*
X40574839Y-111724418D01*
X40690092Y-111145000D01*
X40611343Y-110749103D01*
X41207668Y-110152778D01*
X41637000Y-110152778D01*
X41637000Y-110803222D01*
X41885914Y-111404153D01*
X42345847Y-111864086D01*
X42946778Y-112113000D01*
X43597222Y-112113000D01*
X44198153Y-111864086D01*
X44658086Y-111404153D01*
X44726909Y-111238000D01*
X48317091Y-111238000D01*
X48385914Y-111404153D01*
X48845847Y-111864086D01*
X49446778Y-112113000D01*
X50097222Y-112113000D01*
X50698153Y-111864086D01*
X50931707Y-111630532D01*
X82299073Y-111630532D01*
X82397736Y-111897387D01*
X83007461Y-112123908D01*
X83657460Y-112099856D01*
X84146264Y-111897387D01*
X84244927Y-111630532D01*
X88799073Y-111630532D01*
X88897736Y-111897387D01*
X89507461Y-112123908D01*
X90157460Y-112099856D01*
X90646264Y-111897387D01*
X90744927Y-111630532D01*
X89772000Y-110657605D01*
X88799073Y-111630532D01*
X84244927Y-111630532D01*
X83272000Y-110657605D01*
X82299073Y-111630532D01*
X50931707Y-111630532D01*
X51158086Y-111404153D01*
X51407000Y-110803222D01*
X51407000Y-110213461D01*
X81626092Y-110213461D01*
X81650144Y-110863460D01*
X81852613Y-111352264D01*
X82119468Y-111450927D01*
X83092395Y-110478000D01*
X83451605Y-110478000D01*
X84424532Y-111450927D01*
X84691387Y-111352264D01*
X84917908Y-110742539D01*
X84898331Y-110213461D01*
X88126092Y-110213461D01*
X88150144Y-110863460D01*
X88352613Y-111352264D01*
X88619468Y-111450927D01*
X89592395Y-110478000D01*
X89951605Y-110478000D01*
X90924532Y-111450927D01*
X91191387Y-111352264D01*
X91417908Y-110742539D01*
X91393856Y-110092540D01*
X91191387Y-109603736D01*
X90924532Y-109505073D01*
X89951605Y-110478000D01*
X89592395Y-110478000D01*
X88619468Y-109505073D01*
X88352613Y-109603736D01*
X88126092Y-110213461D01*
X84898331Y-110213461D01*
X84893856Y-110092540D01*
X84691387Y-109603736D01*
X84424532Y-109505073D01*
X83451605Y-110478000D01*
X83092395Y-110478000D01*
X82119468Y-109505073D01*
X81852613Y-109603736D01*
X81626092Y-110213461D01*
X51407000Y-110213461D01*
X51407000Y-110152778D01*
X51158086Y-109551847D01*
X50698153Y-109091914D01*
X50097222Y-108843000D01*
X49446778Y-108843000D01*
X48845847Y-109091914D01*
X48385914Y-109551847D01*
X48317091Y-109718000D01*
X44726909Y-109718000D01*
X44658086Y-109551847D01*
X44198153Y-109091914D01*
X43597222Y-108843000D01*
X42946778Y-108843000D01*
X42345847Y-109091914D01*
X41885914Y-109551847D01*
X41637000Y-110152778D01*
X41207668Y-110152778D01*
X41719165Y-109641282D01*
X41780533Y-109600277D01*
X41942982Y-109357155D01*
X41985628Y-109142760D01*
X41985628Y-109142756D01*
X42000026Y-109070372D01*
X41994581Y-109043000D01*
X42089820Y-109043000D01*
X42488603Y-108877818D01*
X42648421Y-108718000D01*
X83853197Y-108718000D01*
X83898182Y-108826603D01*
X84120691Y-109049112D01*
X83536539Y-108832092D01*
X82886540Y-108856144D01*
X82397736Y-109058613D01*
X82299073Y-109325468D01*
X83272000Y-110298395D01*
X84244927Y-109325468D01*
X88799073Y-109325468D01*
X89772000Y-110298395D01*
X90744927Y-109325468D01*
X90646264Y-109058613D01*
X90036539Y-108832092D01*
X89386540Y-108856144D01*
X88897736Y-109058613D01*
X88799073Y-109325468D01*
X84244927Y-109325468D01*
X84155692Y-109084113D01*
X84203397Y-109131818D01*
X84602180Y-109297000D01*
X85033820Y-109297000D01*
X85432603Y-109131818D01*
X85737818Y-108826603D01*
X85903000Y-108427820D01*
X85903000Y-107996180D01*
X85737818Y-107597397D01*
X85432603Y-107292182D01*
X85033820Y-107127000D01*
X84602180Y-107127000D01*
X84430772Y-107198000D01*
X42648421Y-107198000D01*
X42488603Y-107038182D01*
X42397929Y-107000623D01*
X42421905Y-106984603D01*
X42530819Y-106821602D01*
X42811818Y-106540603D01*
X42977000Y-106141820D01*
X42977000Y-105710180D01*
X42811818Y-105311397D01*
X42506603Y-105006182D01*
X42274400Y-104910000D01*
X42506603Y-104813818D01*
X42666421Y-104654000D01*
X43977563Y-104654000D01*
X44052410Y-104668888D01*
X44127257Y-104654000D01*
X44127262Y-104654000D01*
X44348947Y-104609904D01*
X44600339Y-104441929D01*
X44642741Y-104378470D01*
X45140101Y-103881110D01*
X93830524Y-103881110D01*
X93951845Y-104111000D01*
X95145000Y-104111000D01*
X95145000Y-102917181D01*
X95399000Y-102917181D01*
X95399000Y-104111000D01*
X96592155Y-104111000D01*
X96713476Y-103881110D01*
X96543645Y-103471076D01*
X96153358Y-103042817D01*
X95628892Y-102796514D01*
X95399000Y-102917181D01*
X95145000Y-102917181D01*
X94915108Y-102796514D01*
X94390642Y-103042817D01*
X94000355Y-103471076D01*
X93830524Y-103881110D01*
X45140101Y-103881110D01*
X47415212Y-101606000D01*
X84869197Y-101606000D01*
X84914182Y-101714603D01*
X85219397Y-102019818D01*
X85618180Y-102185000D01*
X86049820Y-102185000D01*
X86448603Y-102019818D01*
X86753818Y-101714603D01*
X86919000Y-101315820D01*
X86919000Y-101130532D01*
X97299073Y-101130532D01*
X97397736Y-101397387D01*
X98007461Y-101623908D01*
X98657460Y-101599856D01*
X99146264Y-101397387D01*
X99244927Y-101130532D01*
X103799073Y-101130532D01*
X103897736Y-101397387D01*
X104507461Y-101623908D01*
X105157460Y-101599856D01*
X105646264Y-101397387D01*
X105744927Y-101130532D01*
X104772000Y-100157605D01*
X103799073Y-101130532D01*
X99244927Y-101130532D01*
X98272000Y-100157605D01*
X97299073Y-101130532D01*
X86919000Y-101130532D01*
X86919000Y-100884180D01*
X86797146Y-100590000D01*
X94457579Y-100590000D01*
X94617397Y-100749818D01*
X95016180Y-100915000D01*
X95447820Y-100915000D01*
X95846603Y-100749818D01*
X96151818Y-100444603D01*
X96317000Y-100045820D01*
X96317000Y-99713461D01*
X96626092Y-99713461D01*
X96650144Y-100363460D01*
X96852613Y-100852264D01*
X97119468Y-100950927D01*
X98092395Y-99978000D01*
X98451605Y-99978000D01*
X99424532Y-100950927D01*
X99691387Y-100852264D01*
X99917908Y-100242539D01*
X99898331Y-99713461D01*
X103126092Y-99713461D01*
X103150144Y-100363460D01*
X103352613Y-100852264D01*
X103619468Y-100950927D01*
X104592395Y-99978000D01*
X104951605Y-99978000D01*
X105924532Y-100950927D01*
X106191387Y-100852264D01*
X106417908Y-100242539D01*
X106399801Y-99753180D01*
X114213000Y-99753180D01*
X114213000Y-100184820D01*
X114378182Y-100583603D01*
X114683397Y-100888818D01*
X115082180Y-101054000D01*
X115513820Y-101054000D01*
X115563477Y-101033431D01*
X126037000Y-101033431D01*
X126037000Y-101922569D01*
X126377259Y-102744026D01*
X127005974Y-103372741D01*
X127827431Y-103713000D01*
X128716569Y-103713000D01*
X129538026Y-103372741D01*
X130166741Y-102744026D01*
X130507000Y-101922569D01*
X130507000Y-101033431D01*
X130166741Y-100211974D01*
X129538026Y-99583259D01*
X128716569Y-99243000D01*
X127827431Y-99243000D01*
X127005974Y-99583259D01*
X126377259Y-100211974D01*
X126037000Y-101033431D01*
X115563477Y-101033431D01*
X115912603Y-100888818D01*
X116217818Y-100583603D01*
X116383000Y-100184820D01*
X116383000Y-99753180D01*
X116217818Y-99354397D01*
X115912603Y-99049182D01*
X115513820Y-98884000D01*
X115082180Y-98884000D01*
X114683397Y-99049182D01*
X114378182Y-99354397D01*
X114213000Y-99753180D01*
X106399801Y-99753180D01*
X106393856Y-99592540D01*
X106191387Y-99103736D01*
X105924532Y-99005073D01*
X104951605Y-99978000D01*
X104592395Y-99978000D01*
X103619468Y-99005073D01*
X103352613Y-99103736D01*
X103126092Y-99713461D01*
X99898331Y-99713461D01*
X99893856Y-99592540D01*
X99691387Y-99103736D01*
X99424532Y-99005073D01*
X98451605Y-99978000D01*
X98092395Y-99978000D01*
X97119468Y-99005073D01*
X96852613Y-99103736D01*
X96626092Y-99713461D01*
X96317000Y-99713461D01*
X96317000Y-99614180D01*
X96151818Y-99215397D01*
X95846603Y-98910182D01*
X95642087Y-98825468D01*
X97299073Y-98825468D01*
X98272000Y-99798395D01*
X99244927Y-98825468D01*
X103799073Y-98825468D01*
X104772000Y-99798395D01*
X105744927Y-98825468D01*
X105646264Y-98558613D01*
X105036539Y-98332092D01*
X104386540Y-98356144D01*
X103897736Y-98558613D01*
X103799073Y-98825468D01*
X99244927Y-98825468D01*
X99146264Y-98558613D01*
X98536539Y-98332092D01*
X97886540Y-98356144D01*
X97397736Y-98558613D01*
X97299073Y-98825468D01*
X95642087Y-98825468D01*
X95447820Y-98745000D01*
X95016180Y-98745000D01*
X94617397Y-98910182D01*
X94457579Y-99070000D01*
X89398421Y-99070000D01*
X89547818Y-98920603D01*
X89713000Y-98521820D01*
X89713000Y-98282555D01*
X89936180Y-98375000D01*
X90367820Y-98375000D01*
X90766603Y-98209818D01*
X91071818Y-97904603D01*
X91237000Y-97505820D01*
X91237000Y-97074180D01*
X91071818Y-96675397D01*
X90766603Y-96370182D01*
X90367820Y-96205000D01*
X90148421Y-96205000D01*
X89940537Y-96066096D01*
X89718852Y-96022000D01*
X89718847Y-96022000D01*
X89644000Y-96007112D01*
X89569153Y-96022000D01*
X70995608Y-96022000D01*
X70924534Y-95950926D01*
X71191387Y-95852264D01*
X71417908Y-95242539D01*
X71393856Y-94592540D01*
X71319488Y-94412999D01*
X90083000Y-94412999D01*
X90083000Y-94457820D01*
X90248182Y-94856603D01*
X90553397Y-95161818D01*
X90952180Y-95327000D01*
X91383820Y-95327000D01*
X91782603Y-95161818D01*
X91791643Y-95152778D01*
X96637000Y-95152778D01*
X96637000Y-95803222D01*
X96885914Y-96404153D01*
X97345847Y-96864086D01*
X97946778Y-97113000D01*
X98597222Y-97113000D01*
X99198153Y-96864086D01*
X99658086Y-96404153D01*
X99726909Y-96238000D01*
X103317091Y-96238000D01*
X103385914Y-96404153D01*
X103845847Y-96864086D01*
X104446778Y-97113000D01*
X105097222Y-97113000D01*
X105698153Y-96864086D01*
X106158086Y-96404153D01*
X106407000Y-95803222D01*
X106407000Y-95152778D01*
X106158086Y-94551847D01*
X105698153Y-94091914D01*
X105097222Y-93843000D01*
X104446778Y-93843000D01*
X103845847Y-94091914D01*
X103385914Y-94551847D01*
X103317091Y-94718000D01*
X99726909Y-94718000D01*
X99658086Y-94551847D01*
X99198153Y-94091914D01*
X98597222Y-93843000D01*
X97946778Y-93843000D01*
X97345847Y-94091914D01*
X96885914Y-94551847D01*
X96637000Y-95152778D01*
X91791643Y-95152778D01*
X92087818Y-94856603D01*
X92253000Y-94457820D01*
X92253000Y-94026180D01*
X92087818Y-93627397D01*
X91782603Y-93322182D01*
X91383820Y-93157000D01*
X91161627Y-93157000D01*
X91126928Y-93105070D01*
X90875536Y-92937095D01*
X90653851Y-92892999D01*
X90653846Y-92892999D01*
X90578999Y-92878111D01*
X90504152Y-92892999D01*
X58248027Y-92892999D01*
X58344327Y-92796698D01*
X58441000Y-92563309D01*
X58441000Y-91872750D01*
X58282250Y-91714000D01*
X57083000Y-91714000D01*
X57083000Y-91734000D01*
X56829000Y-91734000D01*
X56829000Y-91714000D01*
X56809000Y-91714000D01*
X56809000Y-91460000D01*
X56829000Y-91460000D01*
X56829000Y-91440000D01*
X57083000Y-91440000D01*
X57083000Y-91460000D01*
X58282250Y-91460000D01*
X58340250Y-91402000D01*
X58695820Y-91402000D01*
X59094603Y-91236818D01*
X59399818Y-90931603D01*
X59565000Y-90532820D01*
X59565000Y-90501000D01*
X59633820Y-90501000D01*
X60032603Y-90335818D01*
X60337818Y-90030603D01*
X60503000Y-89631820D01*
X60503000Y-89200180D01*
X60491742Y-89173000D01*
X62264761Y-89173000D01*
X61885914Y-89551847D01*
X61637000Y-90152778D01*
X61637000Y-90803222D01*
X61885914Y-91404153D01*
X62345847Y-91864086D01*
X62946778Y-92113000D01*
X63597222Y-92113000D01*
X64198153Y-91864086D01*
X64658086Y-91404153D01*
X64726909Y-91238000D01*
X68317091Y-91238000D01*
X68385914Y-91404153D01*
X68845847Y-91864086D01*
X69446778Y-92113000D01*
X70097222Y-92113000D01*
X70698153Y-91864086D01*
X71158086Y-91404153D01*
X71407000Y-90803222D01*
X71407000Y-90152778D01*
X71158086Y-89551847D01*
X70779239Y-89173000D01*
X91612420Y-89173000D01*
X91772238Y-89332818D01*
X92171021Y-89498000D01*
X92602661Y-89498000D01*
X93001444Y-89332818D01*
X93306659Y-89027603D01*
X93327620Y-88977000D01*
X93669820Y-88977000D01*
X94068603Y-88811818D01*
X94373818Y-88506603D01*
X94536646Y-88113501D01*
X117478455Y-88113501D01*
X117505471Y-89145210D01*
X117714760Y-90155830D01*
X118099707Y-91113415D01*
X118648144Y-91987698D01*
X119342735Y-92751044D01*
X120161525Y-93379324D01*
X121078634Y-93852679D01*
X122065073Y-94156147D01*
X123089661Y-94280136D01*
X124120012Y-94220726D01*
X125123559Y-93979796D01*
X126068580Y-93564960D01*
X126925205Y-92989332D01*
X127666356Y-92271107D01*
X128268607Y-91432985D01*
X128712922Y-90501461D01*
X128985256Y-89505977D01*
X129077000Y-88478000D01*
X129069044Y-88174190D01*
X128923626Y-87152423D01*
X128599566Y-86172556D01*
X128107108Y-85265562D01*
X127461818Y-84460109D01*
X126684093Y-83781656D01*
X125798517Y-83251650D01*
X124833080Y-82886841D01*
X123818299Y-82698763D01*
X122786250Y-82693359D01*
X121769555Y-82870801D01*
X120800351Y-83225479D01*
X119909273Y-83746183D01*
X119124486Y-84416454D01*
X118470797Y-85215106D01*
X117968869Y-86116894D01*
X117634566Y-87093313D01*
X117478455Y-88113501D01*
X94536646Y-88113501D01*
X94539000Y-88107820D01*
X94539000Y-87676180D01*
X94373818Y-87277397D01*
X94068603Y-86972182D01*
X93669820Y-86807000D01*
X93238180Y-86807000D01*
X93066772Y-86878000D01*
X52809000Y-86878000D01*
X52809000Y-86647180D01*
X52643818Y-86248397D01*
X52338603Y-85943182D01*
X51939820Y-85778000D01*
X51508180Y-85778000D01*
X51109397Y-85943182D01*
X50924579Y-86128000D01*
X46071421Y-86128000D01*
X45886603Y-85943182D01*
X45487820Y-85778000D01*
X45056180Y-85778000D01*
X44657397Y-85943182D01*
X44352182Y-86248397D01*
X44187000Y-86647180D01*
X44187000Y-86878000D01*
X42666421Y-86878000D01*
X42506603Y-86718182D01*
X42265400Y-86618272D01*
X42488603Y-86525818D01*
X42793818Y-86220603D01*
X42959000Y-85821820D01*
X42959000Y-85595801D01*
X43319802Y-85235000D01*
X77010153Y-85235000D01*
X77069355Y-85246776D01*
X77091397Y-85268818D01*
X77490180Y-85434000D01*
X77921820Y-85434000D01*
X78320603Y-85268818D01*
X78625818Y-84963603D01*
X78791000Y-84564820D01*
X78791000Y-84334000D01*
X114523579Y-84334000D01*
X114683397Y-84493818D01*
X115082180Y-84659000D01*
X115513820Y-84659000D01*
X115912603Y-84493818D01*
X116217818Y-84188603D01*
X116383000Y-83789820D01*
X116383000Y-83358180D01*
X116217818Y-82959397D01*
X115912603Y-82654182D01*
X115513820Y-82489000D01*
X115082180Y-82489000D01*
X114683397Y-82654182D01*
X114523579Y-82814000D01*
X87411895Y-82814000D01*
X88030412Y-82557801D01*
X88588801Y-81999412D01*
X88891000Y-81269841D01*
X88891000Y-80480159D01*
X88588801Y-79750588D01*
X88030412Y-79192199D01*
X87300841Y-78890000D01*
X86511159Y-78890000D01*
X85781588Y-79192199D01*
X85223199Y-79750588D01*
X84921000Y-80480159D01*
X84921000Y-81269841D01*
X85223199Y-81999412D01*
X85781588Y-82557801D01*
X86400105Y-82814000D01*
X42666421Y-82814000D01*
X42506603Y-82654182D01*
X42107820Y-82489000D01*
X41676180Y-82489000D01*
X41277397Y-82654182D01*
X41092579Y-82839000D01*
X38879388Y-82839000D01*
X38807000Y-82824601D01*
X38734612Y-82839000D01*
X38520217Y-82881646D01*
X38277095Y-83044095D01*
X38236090Y-83105463D01*
X37031897Y-84309657D01*
X36782256Y-84260000D01*
X36489744Y-84260000D01*
X36056582Y-84346161D01*
X35565375Y-84674375D01*
X35237161Y-85165582D01*
X35121908Y-85745000D01*
X34957000Y-85745000D01*
X34957000Y-80517793D01*
X34961387Y-80480159D01*
X35921000Y-80480159D01*
X35921000Y-81269841D01*
X36223199Y-81999412D01*
X36781588Y-82557801D01*
X37511159Y-82860000D01*
X38300841Y-82860000D01*
X39030412Y-82557801D01*
X39588801Y-81999412D01*
X39891000Y-81269841D01*
X39891000Y-80480159D01*
X39588801Y-79750588D01*
X39030412Y-79192199D01*
X38300841Y-78890000D01*
X37511159Y-78890000D01*
X36781588Y-79192199D01*
X36223199Y-79750588D01*
X35921000Y-80480159D01*
X34961387Y-80480159D01*
X35023605Y-79946506D01*
X35206182Y-79443515D01*
X35499572Y-78996021D01*
X35888039Y-78628023D01*
X36350745Y-78359262D01*
X36871847Y-78201435D01*
X37302505Y-78163000D01*
X131232207Y-78163000D01*
X131803494Y-78229605D01*
G36*
X39303000Y-123718000D02*
X39323000Y-123718000D01*
X39323000Y-123972000D01*
X39303000Y-123972000D01*
X39303000Y-123992000D01*
X39049000Y-123992000D01*
X39049000Y-123972000D01*
X39029000Y-123972000D01*
X39029000Y-123718000D01*
X39049000Y-123718000D01*
X39049000Y-123698000D01*
X39303000Y-123698000D01*
X39303000Y-123718000D01*
X39303000Y-123718000D01*
G37*
X39303000Y-123718000D02*
X39323000Y-123718000D01*
X39323000Y-123972000D01*
X39303000Y-123972000D01*
X39303000Y-123992000D01*
X39049000Y-123992000D01*
X39049000Y-123972000D01*
X39029000Y-123972000D01*
X39029000Y-123718000D01*
X39049000Y-123718000D01*
X39049000Y-123698000D01*
X39303000Y-123698000D01*
X39303000Y-123718000D01*
G36*
X39303000Y-103398000D02*
X39323000Y-103398000D01*
X39323000Y-103652000D01*
X39303000Y-103652000D01*
X39303000Y-103672000D01*
X39049000Y-103672000D01*
X39049000Y-103652000D01*
X39029000Y-103652000D01*
X39029000Y-103398000D01*
X39049000Y-103398000D01*
X39049000Y-103378000D01*
X39303000Y-103378000D01*
X39303000Y-103398000D01*
X39303000Y-103398000D01*
G37*
X39303000Y-103398000D02*
X39323000Y-103398000D01*
X39323000Y-103652000D01*
X39303000Y-103652000D01*
X39303000Y-103672000D01*
X39049000Y-103672000D01*
X39049000Y-103652000D01*
X39029000Y-103652000D01*
X39029000Y-103398000D01*
X39049000Y-103398000D01*
X39049000Y-103378000D01*
X39303000Y-103378000D01*
X39303000Y-103398000D01*
G36*
X61626092Y-94713461D02*
X61650144Y-95363460D01*
X61852613Y-95852264D01*
X62119466Y-95950926D01*
X62048392Y-96022000D01*
X43222802Y-96022000D01*
X42977000Y-95776198D01*
X42977000Y-95550180D01*
X42811818Y-95151397D01*
X42506603Y-94846182D01*
X42274400Y-94750000D01*
X42506603Y-94653818D01*
X42672522Y-94487899D01*
X42863537Y-94449904D01*
X42918769Y-94412999D01*
X61737718Y-94412999D01*
X61626092Y-94713461D01*
X61626092Y-94713461D01*
G37*
X61626092Y-94713461D02*
X61650144Y-95363460D01*
X61852613Y-95852264D01*
X62119466Y-95950926D01*
X62048392Y-96022000D01*
X43222802Y-96022000D01*
X42977000Y-95776198D01*
X42977000Y-95550180D01*
X42811818Y-95151397D01*
X42506603Y-94846182D01*
X42274400Y-94750000D01*
X42506603Y-94653818D01*
X42672522Y-94487899D01*
X42863537Y-94449904D01*
X42918769Y-94412999D01*
X61737718Y-94412999D01*
X61626092Y-94713461D01*
G36*
X63465748Y-94963858D02*
X63451605Y-94978000D01*
X63465748Y-94992143D01*
X63286143Y-95171748D01*
X63272000Y-95157605D01*
X63257858Y-95171748D01*
X63078253Y-94992143D01*
X63092395Y-94978000D01*
X63078253Y-94963858D01*
X63257858Y-94784253D01*
X63272000Y-94798395D01*
X63286143Y-94784253D01*
X63465748Y-94963858D01*
X63465748Y-94963858D01*
G37*
X63465748Y-94963858D02*
X63451605Y-94978000D01*
X63465748Y-94992143D01*
X63286143Y-95171748D01*
X63272000Y-95157605D01*
X63257858Y-95171748D01*
X63078253Y-94992143D01*
X63092395Y-94978000D01*
X63078253Y-94963858D01*
X63257858Y-94784253D01*
X63272000Y-94798395D01*
X63286143Y-94784253D01*
X63465748Y-94963858D01*
G36*
X69965748Y-94963858D02*
X69951605Y-94978000D01*
X69965748Y-94992143D01*
X69786143Y-95171748D01*
X69772000Y-95157605D01*
X69757858Y-95171748D01*
X69578253Y-94992143D01*
X69592395Y-94978000D01*
X69578253Y-94963858D01*
X69757858Y-94784253D01*
X69772000Y-94798395D01*
X69786143Y-94784253D01*
X69965748Y-94963858D01*
X69965748Y-94963858D01*
G37*
X69965748Y-94963858D02*
X69951605Y-94978000D01*
X69965748Y-94992143D01*
X69786143Y-95171748D01*
X69772000Y-95157605D01*
X69757858Y-95171748D01*
X69578253Y-94992143D01*
X69592395Y-94978000D01*
X69578253Y-94963858D01*
X69757858Y-94784253D01*
X69772000Y-94798395D01*
X69786143Y-94784253D01*
X69965748Y-94963858D01*
G36*
X41277397Y-84493818D02*
X41500600Y-84586272D01*
X41259397Y-84686182D01*
X40954182Y-84991397D01*
X40789000Y-85390180D01*
X40789000Y-85651553D01*
X40521164Y-85919390D01*
X40496155Y-85872000D01*
X39303000Y-85872000D01*
X39303000Y-85892000D01*
X39049000Y-85892000D01*
X39049000Y-85872000D01*
X39029000Y-85872000D01*
X39029000Y-85618000D01*
X39049000Y-85618000D01*
X39049000Y-85598000D01*
X39303000Y-85598000D01*
X39303000Y-85618000D01*
X40496155Y-85618000D01*
X40617476Y-85388110D01*
X40447645Y-84978076D01*
X40057358Y-84549817D01*
X39544574Y-84309000D01*
X41092579Y-84309000D01*
X41277397Y-84493818D01*
X41277397Y-84493818D01*
G37*
X41277397Y-84493818D02*
X41500600Y-84586272D01*
X41259397Y-84686182D01*
X40954182Y-84991397D01*
X40789000Y-85390180D01*
X40789000Y-85651553D01*
X40521164Y-85919390D01*
X40496155Y-85872000D01*
X39303000Y-85872000D01*
X39303000Y-85892000D01*
X39049000Y-85892000D01*
X39049000Y-85872000D01*
X39029000Y-85872000D01*
X39029000Y-85618000D01*
X39049000Y-85618000D01*
X39049000Y-85598000D01*
X39303000Y-85598000D01*
X39303000Y-85618000D01*
X40496155Y-85618000D01*
X40617476Y-85388110D01*
X40447645Y-84978076D01*
X40057358Y-84549817D01*
X39544574Y-84309000D01*
X41092579Y-84309000D01*
X41277397Y-84493818D01*
M02*
