%TF.GenerationSoftware,KiCad,Pcbnew,(5.0.0-3-g5ebb6b6)*%
%TF.CreationDate,2018-10-09T22:59:36+02:00*%
%TF.ProjectId,CNC_Control_Panel,434E435F436F6E74726F6C5F50616E65,rev?*%
%TF.SameCoordinates,Original*%
%TF.FileFunction,Legend,Bot*%
%TF.FilePolarity,Positive*%
%FSLAX46Y46*%
G04 Gerber Fmt 4.6, Leading zero omitted, Abs format (unit mm)*
G04 Created by KiCad (PCBNEW (5.0.0-3-g5ebb6b6)) date 2018 October 09, Tuesday 22:59:36*
%MOMM*%
%LPD*%
G01*
G04 APERTURE LIST*
%ADD10C,0.250000*%
%ADD11C,0.120000*%
%ADD12C,0.150000*%
G04 APERTURE END LIST*
D10*
X55063214Y-154031380D02*
X55539404Y-154031380D01*
X55587023Y-154507571D01*
X55539404Y-154459952D01*
X55444166Y-154412333D01*
X55206071Y-154412333D01*
X55110833Y-154459952D01*
X55063214Y-154507571D01*
X55015595Y-154602809D01*
X55015595Y-154840904D01*
X55063214Y-154936142D01*
X55110833Y-154983761D01*
X55206071Y-155031380D01*
X55444166Y-155031380D01*
X55539404Y-154983761D01*
X55587023Y-154936142D01*
X54729880Y-154031380D02*
X54396547Y-155031380D01*
X54063214Y-154031380D01*
X55634642Y-151491380D02*
X55015595Y-151491380D01*
X55348928Y-151872333D01*
X55206071Y-151872333D01*
X55110833Y-151919952D01*
X55063214Y-151967571D01*
X55015595Y-152062809D01*
X55015595Y-152300904D01*
X55063214Y-152396142D01*
X55110833Y-152443761D01*
X55206071Y-152491380D01*
X55491785Y-152491380D01*
X55587023Y-152443761D01*
X55634642Y-152396142D01*
X54729880Y-151491380D02*
X54396547Y-152491380D01*
X54063214Y-151491380D01*
X53825119Y-151491380D02*
X53206071Y-151491380D01*
X53539404Y-151872333D01*
X53396547Y-151872333D01*
X53301309Y-151919952D01*
X53253690Y-151967571D01*
X53206071Y-152062809D01*
X53206071Y-152300904D01*
X53253690Y-152396142D01*
X53301309Y-152443761D01*
X53396547Y-152491380D01*
X53682261Y-152491380D01*
X53777500Y-152443761D01*
X53825119Y-152396142D01*
X55682261Y-148951380D02*
X55110833Y-148951380D01*
X55396547Y-149951380D02*
X55396547Y-148951380D01*
X54872738Y-148951380D02*
X54206071Y-149951380D01*
X54206071Y-148951380D02*
X54872738Y-149951380D01*
X54967976Y-147411380D02*
X55301309Y-146935190D01*
X55539404Y-147411380D02*
X55539404Y-146411380D01*
X55158452Y-146411380D01*
X55063214Y-146459000D01*
X55015595Y-146506619D01*
X54967976Y-146601857D01*
X54967976Y-146744714D01*
X55015595Y-146839952D01*
X55063214Y-146887571D01*
X55158452Y-146935190D01*
X55539404Y-146935190D01*
X54634642Y-146411380D02*
X53967976Y-147411380D01*
X53967976Y-146411380D02*
X54634642Y-147411380D01*
X55587023Y-144823761D02*
X55444166Y-144871380D01*
X55206071Y-144871380D01*
X55110833Y-144823761D01*
X55063214Y-144776142D01*
X55015595Y-144680904D01*
X55015595Y-144585666D01*
X55063214Y-144490428D01*
X55110833Y-144442809D01*
X55206071Y-144395190D01*
X55396547Y-144347571D01*
X55491785Y-144299952D01*
X55539404Y-144252333D01*
X55587023Y-144157095D01*
X55587023Y-144061857D01*
X55539404Y-143966619D01*
X55491785Y-143919000D01*
X55396547Y-143871380D01*
X55158452Y-143871380D01*
X55015595Y-143919000D01*
X54587023Y-144871380D02*
X54587023Y-143871380D01*
X54348928Y-143871380D01*
X54206071Y-143919000D01*
X54110833Y-144014238D01*
X54063214Y-144109476D01*
X54015595Y-144299952D01*
X54015595Y-144442809D01*
X54063214Y-144633285D01*
X54110833Y-144728523D01*
X54206071Y-144823761D01*
X54348928Y-144871380D01*
X54587023Y-144871380D01*
X53634642Y-144585666D02*
X53158452Y-144585666D01*
X53729880Y-144871380D02*
X53396547Y-143871380D01*
X53063214Y-144871380D01*
X55587023Y-142283761D02*
X55444166Y-142331380D01*
X55206071Y-142331380D01*
X55110833Y-142283761D01*
X55063214Y-142236142D01*
X55015595Y-142140904D01*
X55015595Y-142045666D01*
X55063214Y-141950428D01*
X55110833Y-141902809D01*
X55206071Y-141855190D01*
X55396547Y-141807571D01*
X55491785Y-141759952D01*
X55539404Y-141712333D01*
X55587023Y-141617095D01*
X55587023Y-141521857D01*
X55539404Y-141426619D01*
X55491785Y-141379000D01*
X55396547Y-141331380D01*
X55158452Y-141331380D01*
X55015595Y-141379000D01*
X54015595Y-142236142D02*
X54063214Y-142283761D01*
X54206071Y-142331380D01*
X54301309Y-142331380D01*
X54444166Y-142283761D01*
X54539404Y-142188523D01*
X54587023Y-142093285D01*
X54634642Y-141902809D01*
X54634642Y-141759952D01*
X54587023Y-141569476D01*
X54539404Y-141474238D01*
X54444166Y-141379000D01*
X54301309Y-141331380D01*
X54206071Y-141331380D01*
X54063214Y-141379000D01*
X54015595Y-141426619D01*
X53110833Y-142331380D02*
X53587023Y-142331380D01*
X53587023Y-141331380D01*
X55015595Y-138839000D02*
X55110833Y-138791380D01*
X55253690Y-138791380D01*
X55396547Y-138839000D01*
X55491785Y-138934238D01*
X55539404Y-139029476D01*
X55587023Y-139219952D01*
X55587023Y-139362809D01*
X55539404Y-139553285D01*
X55491785Y-139648523D01*
X55396547Y-139743761D01*
X55253690Y-139791380D01*
X55158452Y-139791380D01*
X55015595Y-139743761D01*
X54967976Y-139696142D01*
X54967976Y-139362809D01*
X55158452Y-139362809D01*
X54539404Y-139791380D02*
X54539404Y-138791380D01*
X53967976Y-139791380D01*
X53967976Y-138791380D01*
X53491785Y-139791380D02*
X53491785Y-138791380D01*
X53253690Y-138791380D01*
X53110833Y-138839000D01*
X53015595Y-138934238D01*
X52967976Y-139029476D01*
X52920357Y-139219952D01*
X52920357Y-139362809D01*
X52967976Y-139553285D01*
X53015595Y-139648523D01*
X53110833Y-139743761D01*
X53253690Y-139791380D01*
X53491785Y-139791380D01*
X57317404Y-94325380D02*
X57317404Y-93325380D01*
X56745976Y-94325380D01*
X56745976Y-93325380D01*
X55888833Y-94277761D02*
X55984071Y-94325380D01*
X56174547Y-94325380D01*
X56269785Y-94277761D01*
X56317404Y-94182523D01*
X56317404Y-93801571D01*
X56269785Y-93706333D01*
X56174547Y-93658714D01*
X55984071Y-93658714D01*
X55888833Y-93706333D01*
X55841214Y-93801571D01*
X55841214Y-93896809D01*
X56317404Y-93992047D01*
X55269785Y-94325380D02*
X55365023Y-94277761D01*
X55412642Y-94230142D01*
X55460261Y-94134904D01*
X55460261Y-93849190D01*
X55412642Y-93753952D01*
X55365023Y-93706333D01*
X55269785Y-93658714D01*
X55126928Y-93658714D01*
X55031690Y-93706333D01*
X54984071Y-93753952D01*
X54936452Y-93849190D01*
X54936452Y-94134904D01*
X54984071Y-94230142D01*
X55031690Y-94277761D01*
X55126928Y-94325380D01*
X55269785Y-94325380D01*
X54507880Y-94325380D02*
X54507880Y-93325380D01*
X54126928Y-93325380D01*
X54031690Y-93373000D01*
X53984071Y-93420619D01*
X53936452Y-93515857D01*
X53936452Y-93658714D01*
X53984071Y-93753952D01*
X54031690Y-93801571D01*
X54126928Y-93849190D01*
X54507880Y-93849190D01*
X53507880Y-94325380D02*
X53507880Y-93658714D01*
X53507880Y-93325380D02*
X53555500Y-93373000D01*
X53507880Y-93420619D01*
X53460261Y-93373000D01*
X53507880Y-93325380D01*
X53507880Y-93420619D01*
X53126928Y-94325380D02*
X52603119Y-93658714D01*
X53126928Y-93658714D02*
X52603119Y-94325380D01*
X51841214Y-94277761D02*
X51936452Y-94325380D01*
X52126928Y-94325380D01*
X52222166Y-94277761D01*
X52269785Y-94182523D01*
X52269785Y-93801571D01*
X52222166Y-93706333D01*
X52126928Y-93658714D01*
X51936452Y-93658714D01*
X51841214Y-93706333D01*
X51793595Y-93801571D01*
X51793595Y-93896809D01*
X52269785Y-93992047D01*
X51222166Y-94325380D02*
X51317404Y-94277761D01*
X51365023Y-94182523D01*
X51365023Y-93325380D01*
X93077595Y-119930380D02*
X93649023Y-119930380D01*
X93363309Y-119930380D02*
X93363309Y-118930380D01*
X93458547Y-119073238D01*
X93553785Y-119168476D01*
X93649023Y-119216095D01*
X93687023Y-116534619D02*
X93639404Y-116487000D01*
X93544166Y-116439380D01*
X93306071Y-116439380D01*
X93210833Y-116487000D01*
X93163214Y-116534619D01*
X93115595Y-116629857D01*
X93115595Y-116725095D01*
X93163214Y-116867952D01*
X93734642Y-117439380D01*
X93115595Y-117439380D01*
X93734642Y-113899380D02*
X93115595Y-113899380D01*
X93448928Y-114280333D01*
X93306071Y-114280333D01*
X93210833Y-114327952D01*
X93163214Y-114375571D01*
X93115595Y-114470809D01*
X93115595Y-114708904D01*
X93163214Y-114804142D01*
X93210833Y-114851761D01*
X93306071Y-114899380D01*
X93591785Y-114899380D01*
X93687023Y-114851761D01*
X93734642Y-114804142D01*
X93210833Y-111692714D02*
X93210833Y-112359380D01*
X93448928Y-111311761D02*
X93687023Y-112026047D01*
X93067976Y-112026047D01*
X93163214Y-108819380D02*
X93639404Y-108819380D01*
X93687023Y-109295571D01*
X93639404Y-109247952D01*
X93544166Y-109200333D01*
X93306071Y-109200333D01*
X93210833Y-109247952D01*
X93163214Y-109295571D01*
X93115595Y-109390809D01*
X93115595Y-109628904D01*
X93163214Y-109724142D01*
X93210833Y-109771761D01*
X93306071Y-109819380D01*
X93544166Y-109819380D01*
X93639404Y-109771761D01*
X93687023Y-109724142D01*
X93210833Y-106279380D02*
X93401309Y-106279380D01*
X93496547Y-106327000D01*
X93544166Y-106374619D01*
X93639404Y-106517476D01*
X93687023Y-106707952D01*
X93687023Y-107088904D01*
X93639404Y-107184142D01*
X93591785Y-107231761D01*
X93496547Y-107279380D01*
X93306071Y-107279380D01*
X93210833Y-107231761D01*
X93163214Y-107184142D01*
X93115595Y-107088904D01*
X93115595Y-106850809D01*
X93163214Y-106755571D01*
X93210833Y-106707952D01*
X93306071Y-106660333D01*
X93496547Y-106660333D01*
X93591785Y-106707952D01*
X93639404Y-106755571D01*
X93687023Y-106850809D01*
X93115595Y-103787000D02*
X93210833Y-103739380D01*
X93353690Y-103739380D01*
X93496547Y-103787000D01*
X93591785Y-103882238D01*
X93639404Y-103977476D01*
X93687023Y-104167952D01*
X93687023Y-104310809D01*
X93639404Y-104501285D01*
X93591785Y-104596523D01*
X93496547Y-104691761D01*
X93353690Y-104739380D01*
X93258452Y-104739380D01*
X93115595Y-104691761D01*
X93067976Y-104644142D01*
X93067976Y-104310809D01*
X93258452Y-104310809D01*
X92639404Y-104739380D02*
X92639404Y-103739380D01*
X92067976Y-104739380D01*
X92067976Y-103739380D01*
X91591785Y-104739380D02*
X91591785Y-103739380D01*
X91353690Y-103739380D01*
X91210833Y-103787000D01*
X91115595Y-103882238D01*
X91067976Y-103977476D01*
X91020357Y-104167952D01*
X91020357Y-104310809D01*
X91067976Y-104501285D01*
X91115595Y-104596523D01*
X91210833Y-104691761D01*
X91353690Y-104739380D01*
X91591785Y-104739380D01*
X103731142Y-122265380D02*
X104064476Y-121789190D01*
X104302571Y-122265380D02*
X104302571Y-121265380D01*
X103921619Y-121265380D01*
X103826380Y-121313000D01*
X103778761Y-121360619D01*
X103731142Y-121455857D01*
X103731142Y-121598714D01*
X103778761Y-121693952D01*
X103826380Y-121741571D01*
X103921619Y-121789190D01*
X104302571Y-121789190D01*
X103159714Y-122265380D02*
X103254952Y-122217761D01*
X103302571Y-122170142D01*
X103350190Y-122074904D01*
X103350190Y-121789190D01*
X103302571Y-121693952D01*
X103254952Y-121646333D01*
X103159714Y-121598714D01*
X103016857Y-121598714D01*
X102921619Y-121646333D01*
X102874000Y-121693952D01*
X102826380Y-121789190D01*
X102826380Y-122074904D01*
X102874000Y-122170142D01*
X102921619Y-122217761D01*
X103016857Y-122265380D01*
X103159714Y-122265380D01*
X102540666Y-121598714D02*
X102159714Y-121598714D01*
X102397809Y-121265380D02*
X102397809Y-122122523D01*
X102350190Y-122217761D01*
X102254952Y-122265380D01*
X102159714Y-122265380D01*
X101397809Y-122265380D02*
X101397809Y-121741571D01*
X101445428Y-121646333D01*
X101540666Y-121598714D01*
X101731142Y-121598714D01*
X101826380Y-121646333D01*
X101397809Y-122217761D02*
X101493047Y-122265380D01*
X101731142Y-122265380D01*
X101826380Y-122217761D01*
X101874000Y-122122523D01*
X101874000Y-122027285D01*
X101826380Y-121932047D01*
X101731142Y-121884428D01*
X101493047Y-121884428D01*
X101397809Y-121836809D01*
X100921619Y-122265380D02*
X100921619Y-121598714D01*
X100921619Y-121789190D02*
X100874000Y-121693952D01*
X100826380Y-121646333D01*
X100731142Y-121598714D01*
X100635904Y-121598714D01*
X100397809Y-121598714D02*
X100159714Y-122265380D01*
X99921619Y-121598714D02*
X100159714Y-122265380D01*
X100254952Y-122503476D01*
X100302571Y-122551095D01*
X100397809Y-122598714D01*
X98826380Y-122217761D02*
X98683523Y-122265380D01*
X98445428Y-122265380D01*
X98350190Y-122217761D01*
X98302571Y-122170142D01*
X98254952Y-122074904D01*
X98254952Y-121979666D01*
X98302571Y-121884428D01*
X98350190Y-121836809D01*
X98445428Y-121789190D01*
X98635904Y-121741571D01*
X98731142Y-121693952D01*
X98778761Y-121646333D01*
X98826380Y-121551095D01*
X98826380Y-121455857D01*
X98778761Y-121360619D01*
X98731142Y-121313000D01*
X98635904Y-121265380D01*
X98397809Y-121265380D01*
X98254952Y-121313000D01*
X97921619Y-121598714D02*
X97731142Y-122265380D01*
X97540666Y-121789190D01*
X97350190Y-122265380D01*
X97159714Y-121598714D01*
X96778761Y-122265380D02*
X96778761Y-121598714D01*
X96778761Y-121265380D02*
X96826380Y-121313000D01*
X96778761Y-121360619D01*
X96731142Y-121313000D01*
X96778761Y-121265380D01*
X96778761Y-121360619D01*
X96445428Y-121598714D02*
X96064476Y-121598714D01*
X96302571Y-121265380D02*
X96302571Y-122122523D01*
X96254952Y-122217761D01*
X96159714Y-122265380D01*
X96064476Y-122265380D01*
X95302571Y-122217761D02*
X95397809Y-122265380D01*
X95588285Y-122265380D01*
X95683523Y-122217761D01*
X95731142Y-122170142D01*
X95778761Y-122074904D01*
X95778761Y-121789190D01*
X95731142Y-121693952D01*
X95683523Y-121646333D01*
X95588285Y-121598714D01*
X95397809Y-121598714D01*
X95302571Y-121646333D01*
X94874000Y-122265380D02*
X94874000Y-121265380D01*
X94445428Y-122265380D02*
X94445428Y-121741571D01*
X94493047Y-121646333D01*
X94588285Y-121598714D01*
X94731142Y-121598714D01*
X94826380Y-121646333D01*
X94874000Y-121693952D01*
D11*
X35306000Y-135335000D02*
X37906000Y-135335000D01*
X35306000Y-135335000D02*
X35306000Y-84415000D01*
X35306000Y-84415000D02*
X40506000Y-84415000D01*
X40506000Y-132735000D02*
X40506000Y-84415000D01*
X37906000Y-132735000D02*
X40506000Y-132735000D01*
X37906000Y-135335000D02*
X37906000Y-132735000D01*
X40506000Y-135335000D02*
X40506000Y-134005000D01*
X39176000Y-135335000D02*
X40506000Y-135335000D01*
X96712000Y-120808000D02*
X96712000Y-102908000D01*
X96712000Y-102908000D02*
X99372000Y-102908000D01*
X99372000Y-102908000D02*
X99372000Y-120808000D01*
X99372000Y-120808000D02*
X96712000Y-120808000D01*
X99372000Y-119858000D02*
X105372000Y-119858000D01*
X105372000Y-119858000D02*
X105372000Y-119098000D01*
X105372000Y-119098000D02*
X99372000Y-119098000D01*
X99372000Y-119798000D02*
X105372000Y-119798000D01*
X99372000Y-119678000D02*
X105372000Y-119678000D01*
X99372000Y-119558000D02*
X105372000Y-119558000D01*
X99372000Y-119438000D02*
X105372000Y-119438000D01*
X99372000Y-119318000D02*
X105372000Y-119318000D01*
X99372000Y-119198000D02*
X105372000Y-119198000D01*
X96382000Y-119858000D02*
X96712000Y-119858000D01*
X96382000Y-119098000D02*
X96712000Y-119098000D01*
X96712000Y-118208000D02*
X99372000Y-118208000D01*
X99372000Y-117318000D02*
X105372000Y-117318000D01*
X105372000Y-117318000D02*
X105372000Y-116558000D01*
X105372000Y-116558000D02*
X99372000Y-116558000D01*
X96314929Y-117318000D02*
X96712000Y-117318000D01*
X96314929Y-116558000D02*
X96712000Y-116558000D01*
X96712000Y-115668000D02*
X99372000Y-115668000D01*
X99372000Y-114778000D02*
X105372000Y-114778000D01*
X105372000Y-114778000D02*
X105372000Y-114018000D01*
X105372000Y-114018000D02*
X99372000Y-114018000D01*
X96314929Y-114778000D02*
X96712000Y-114778000D01*
X96314929Y-114018000D02*
X96712000Y-114018000D01*
X96712000Y-113128000D02*
X99372000Y-113128000D01*
X99372000Y-112238000D02*
X105372000Y-112238000D01*
X105372000Y-112238000D02*
X105372000Y-111478000D01*
X105372000Y-111478000D02*
X99372000Y-111478000D01*
X96314929Y-112238000D02*
X96712000Y-112238000D01*
X96314929Y-111478000D02*
X96712000Y-111478000D01*
X96712000Y-110588000D02*
X99372000Y-110588000D01*
X99372000Y-109698000D02*
X105372000Y-109698000D01*
X105372000Y-109698000D02*
X105372000Y-108938000D01*
X105372000Y-108938000D02*
X99372000Y-108938000D01*
X96314929Y-109698000D02*
X96712000Y-109698000D01*
X96314929Y-108938000D02*
X96712000Y-108938000D01*
X96712000Y-108048000D02*
X99372000Y-108048000D01*
X99372000Y-107158000D02*
X105372000Y-107158000D01*
X105372000Y-107158000D02*
X105372000Y-106398000D01*
X105372000Y-106398000D02*
X99372000Y-106398000D01*
X96314929Y-107158000D02*
X96712000Y-107158000D01*
X96314929Y-106398000D02*
X96712000Y-106398000D01*
X96712000Y-105508000D02*
X99372000Y-105508000D01*
X99372000Y-104618000D02*
X105372000Y-104618000D01*
X105372000Y-104618000D02*
X105372000Y-103858000D01*
X105372000Y-103858000D02*
X99372000Y-103858000D01*
X96314929Y-104618000D02*
X96712000Y-104618000D01*
X96314929Y-103858000D02*
X96712000Y-103858000D01*
X94002000Y-119478000D02*
X94002000Y-120748000D01*
X94002000Y-120748000D02*
X95272000Y-120748000D01*
X58286000Y-90147000D02*
X50546000Y-90147000D01*
X50546000Y-90147000D02*
X50546000Y-87487000D01*
X50546000Y-87487000D02*
X58286000Y-87487000D01*
X58286000Y-87487000D02*
X58286000Y-90147000D01*
X57336000Y-87487000D02*
X57336000Y-81487000D01*
X57336000Y-81487000D02*
X56576000Y-81487000D01*
X56576000Y-81487000D02*
X56576000Y-87487000D01*
X57276000Y-87487000D02*
X57276000Y-81487000D01*
X57156000Y-87487000D02*
X57156000Y-81487000D01*
X57036000Y-87487000D02*
X57036000Y-81487000D01*
X56916000Y-87487000D02*
X56916000Y-81487000D01*
X56796000Y-87487000D02*
X56796000Y-81487000D01*
X56676000Y-87487000D02*
X56676000Y-81487000D01*
X57336000Y-90477000D02*
X57336000Y-90147000D01*
X56576000Y-90477000D02*
X56576000Y-90147000D01*
X55686000Y-90147000D02*
X55686000Y-87487000D01*
X54796000Y-87487000D02*
X54796000Y-81487000D01*
X54796000Y-81487000D02*
X54036000Y-81487000D01*
X54036000Y-81487000D02*
X54036000Y-87487000D01*
X54796000Y-90544071D02*
X54796000Y-90147000D01*
X54036000Y-90544071D02*
X54036000Y-90147000D01*
X53146000Y-90147000D02*
X53146000Y-87487000D01*
X52256000Y-87487000D02*
X52256000Y-81487000D01*
X52256000Y-81487000D02*
X51496000Y-81487000D01*
X51496000Y-81487000D02*
X51496000Y-87487000D01*
X52256000Y-90544071D02*
X52256000Y-90147000D01*
X51496000Y-90544071D02*
X51496000Y-90147000D01*
X56956000Y-92857000D02*
X58226000Y-92857000D01*
X58226000Y-92857000D02*
X58226000Y-91587000D01*
X58650000Y-155909000D02*
X58650000Y-138009000D01*
X58650000Y-138009000D02*
X61310000Y-138009000D01*
X61310000Y-138009000D02*
X61310000Y-155909000D01*
X61310000Y-155909000D02*
X58650000Y-155909000D01*
X61310000Y-154959000D02*
X67310000Y-154959000D01*
X67310000Y-154959000D02*
X67310000Y-154199000D01*
X67310000Y-154199000D02*
X61310000Y-154199000D01*
X61310000Y-154899000D02*
X67310000Y-154899000D01*
X61310000Y-154779000D02*
X67310000Y-154779000D01*
X61310000Y-154659000D02*
X67310000Y-154659000D01*
X61310000Y-154539000D02*
X67310000Y-154539000D01*
X61310000Y-154419000D02*
X67310000Y-154419000D01*
X61310000Y-154299000D02*
X67310000Y-154299000D01*
X58320000Y-154959000D02*
X58650000Y-154959000D01*
X58320000Y-154199000D02*
X58650000Y-154199000D01*
X58650000Y-153309000D02*
X61310000Y-153309000D01*
X61310000Y-152419000D02*
X67310000Y-152419000D01*
X67310000Y-152419000D02*
X67310000Y-151659000D01*
X67310000Y-151659000D02*
X61310000Y-151659000D01*
X58252929Y-152419000D02*
X58650000Y-152419000D01*
X58252929Y-151659000D02*
X58650000Y-151659000D01*
X58650000Y-150769000D02*
X61310000Y-150769000D01*
X61310000Y-149879000D02*
X67310000Y-149879000D01*
X67310000Y-149879000D02*
X67310000Y-149119000D01*
X67310000Y-149119000D02*
X61310000Y-149119000D01*
X58252929Y-149879000D02*
X58650000Y-149879000D01*
X58252929Y-149119000D02*
X58650000Y-149119000D01*
X58650000Y-148229000D02*
X61310000Y-148229000D01*
X61310000Y-147339000D02*
X67310000Y-147339000D01*
X67310000Y-147339000D02*
X67310000Y-146579000D01*
X67310000Y-146579000D02*
X61310000Y-146579000D01*
X58252929Y-147339000D02*
X58650000Y-147339000D01*
X58252929Y-146579000D02*
X58650000Y-146579000D01*
X58650000Y-145689000D02*
X61310000Y-145689000D01*
X61310000Y-144799000D02*
X67310000Y-144799000D01*
X67310000Y-144799000D02*
X67310000Y-144039000D01*
X67310000Y-144039000D02*
X61310000Y-144039000D01*
X58252929Y-144799000D02*
X58650000Y-144799000D01*
X58252929Y-144039000D02*
X58650000Y-144039000D01*
X58650000Y-143149000D02*
X61310000Y-143149000D01*
X61310000Y-142259000D02*
X67310000Y-142259000D01*
X67310000Y-142259000D02*
X67310000Y-141499000D01*
X67310000Y-141499000D02*
X61310000Y-141499000D01*
X58252929Y-142259000D02*
X58650000Y-142259000D01*
X58252929Y-141499000D02*
X58650000Y-141499000D01*
X58650000Y-140609000D02*
X61310000Y-140609000D01*
X61310000Y-139719000D02*
X67310000Y-139719000D01*
X67310000Y-139719000D02*
X67310000Y-138959000D01*
X67310000Y-138959000D02*
X61310000Y-138959000D01*
X58252929Y-139719000D02*
X58650000Y-139719000D01*
X58252929Y-138959000D02*
X58650000Y-138959000D01*
X55940000Y-154579000D02*
X55940000Y-155849000D01*
X55940000Y-155849000D02*
X57210000Y-155849000D01*
D12*
X40931619Y-136255095D02*
X41931619Y-136255095D01*
X41931619Y-135874142D01*
X41884000Y-135778904D01*
X41836380Y-135731285D01*
X41741142Y-135683666D01*
X41598285Y-135683666D01*
X41503047Y-135731285D01*
X41455428Y-135778904D01*
X41407809Y-135874142D01*
X41407809Y-136255095D01*
X40931619Y-134731285D02*
X40931619Y-135302714D01*
X40931619Y-135017000D02*
X41931619Y-135017000D01*
X41788761Y-135112238D01*
X41693523Y-135207476D01*
X41645904Y-135302714D01*
X106819333Y-121200380D02*
X106819333Y-121914666D01*
X106866952Y-122057523D01*
X106962190Y-122152761D01*
X107105047Y-122200380D01*
X107200285Y-122200380D01*
X105819333Y-122200380D02*
X106390761Y-122200380D01*
X106105047Y-122200380D02*
X106105047Y-121200380D01*
X106200285Y-121343238D01*
X106295523Y-121438476D01*
X106390761Y-121486095D01*
X58678380Y-86868666D02*
X59392666Y-86868666D01*
X59535523Y-86821047D01*
X59630761Y-86725809D01*
X59678380Y-86582952D01*
X59678380Y-86487714D01*
X58773619Y-87297238D02*
X58726000Y-87344857D01*
X58678380Y-87440095D01*
X58678380Y-87678190D01*
X58726000Y-87773428D01*
X58773619Y-87821047D01*
X58868857Y-87868666D01*
X58964095Y-87868666D01*
X59106952Y-87821047D01*
X59678380Y-87249619D01*
X59678380Y-87868666D01*
X61928333Y-156301380D02*
X61928333Y-157015666D01*
X61975952Y-157158523D01*
X62071190Y-157253761D01*
X62214047Y-157301380D01*
X62309285Y-157301380D01*
X61547380Y-156301380D02*
X60928333Y-156301380D01*
X61261666Y-156682333D01*
X61118809Y-156682333D01*
X61023571Y-156729952D01*
X60975952Y-156777571D01*
X60928333Y-156872809D01*
X60928333Y-157110904D01*
X60975952Y-157206142D01*
X61023571Y-157253761D01*
X61118809Y-157301380D01*
X61404523Y-157301380D01*
X61499761Y-157253761D01*
X61547380Y-157206142D01*
M02*
