M48
;DRILL file {KiCad (5.0.0-3-g5ebb6b6)} date 2018 October 09, Tuesday 23:00:24
;FORMAT={-:-/ absolute / inch / decimal}
FMAT,2
INCH,TZ
T1C0.0236
T2C0.0394
T3C0.0433
%
G90
G05
M72
T1
X1.4924Y-6.3858
X1.6124Y-6.0958
X1.6124Y-5.9458
X1.6486Y-3.3703
X1.6486Y-3.6103
X1.6486Y-4.0103
X1.6486Y-4.2503
X1.6489Y-3.8503
X1.6493Y-3.2903
X1.6493Y-3.4503
X1.6493Y-3.5303
X1.6493Y-3.6903
X1.6493Y-3.7703
X1.6493Y-3.9303
X1.6493Y-4.0903
X1.6493Y-4.1703
X1.6493Y-4.6303
X1.6493Y-4.7103
X1.6493Y-4.7903
X1.6493Y-4.8703
X1.6493Y-4.9503
X1.6493Y-5.0303
X1.6493Y-5.1103
X1.7193Y-5.2603
X1.73Y-4.6303
X1.7324Y-5.4108
X1.7724Y-3.1858
X1.7824Y-3.4198
X1.7893Y-4.8603
X1.8224Y-5.1658
X1.8224Y-5.7558
X1.8424Y-6.8558
X1.8624Y-5.1958
X1.8624Y-5.8558
X1.9024Y-5.2258
X1.9024Y-5.6658
X1.9224Y-3.7458
X1.9724Y-3.6558
X2.0364Y-3.4198
X2.1024Y-6.0858
X2.2224Y-3.7458
X2.2924Y-3.1858
X2.3024Y-3.5558
X2.3393Y-3.5203
X2.4193Y-4.9703
X2.5124Y-6.8458
X2.5993Y-5.0303
X2.6224Y-6.0358
X3.0424Y-3.1758
X3.0593Y-3.3208
X3.2024Y-6.8458
X3.3393Y-4.2603
X3.3493Y-5.3403
X3.3793Y-3.9803
X3.3993Y-4.6503
X3.4193Y-3.8903
X3.4193Y-4.6003
X3.4893Y-3.8703
X3.4893Y-4.9103
X3.5324Y-6.0058
X3.5493Y-3.8303
X3.5893Y-3.7103
X3.6373Y-3.4808
X3.6624Y-6.8458
X3.6793Y-3.4603
X3.7493Y-3.9303
X3.7693Y-5.1003
X3.8624Y-3.1758
X4.1024Y-4.3358
X4.1624Y-3.4758
X4.2124Y-6.8358
X4.2424Y-5.9958
X4.4893Y-4.7903
X4.5088Y-4.3303
X4.5393Y-3.2903
X4.5393Y-3.9358
X4.6824Y-6.8358
X4.8324Y-3.1758
X5.1624Y-3.5358
X5.1624Y-5.4958
X5.1624Y-6.0258
X5.1724Y-4.3758
X5.1724Y-4.8058
X5.1724Y-6.5658
T2
X3.7509Y-4.1039
X3.7509Y-4.2039
X3.7509Y-4.3039
X3.7509Y-4.4039
X3.7509Y-4.5039
X3.7509Y-4.6039
X3.7509Y-4.7039
X2.0424Y-3.6058
X2.1424Y-3.6058
X2.2424Y-3.6058
X1.4424Y-3.3758
X1.4424Y-3.4758
X1.4424Y-3.5758
X1.4424Y-3.6758
X1.4424Y-3.7758
X1.4424Y-3.8758
X1.4424Y-3.9758
X1.4424Y-4.0758
X1.4424Y-4.1758
X1.4424Y-4.2758
X1.4424Y-4.3758
X1.4424Y-4.4758
X1.4424Y-4.5758
X1.4424Y-4.6758
X1.4424Y-4.7758
X1.4424Y-4.8758
X1.4424Y-4.9758
X1.4424Y-5.0758
X1.4424Y-5.1758
X1.4424Y-5.2758
X1.5424Y-3.3758
X1.5424Y-3.4758
X1.5424Y-3.5758
X1.5424Y-3.6758
X1.5424Y-3.7758
X1.5424Y-3.8758
X1.5424Y-3.9758
X1.5424Y-4.0758
X1.5424Y-4.1758
X1.5424Y-4.2758
X1.5424Y-4.3758
X1.5424Y-4.4758
X1.5424Y-4.5758
X1.5424Y-4.6758
X1.5424Y-4.7758
X1.5424Y-4.8758
X1.5424Y-4.9758
X1.5424Y-5.0758
X1.5424Y-5.1758
X1.5424Y-5.2758
X2.2524Y-5.4858
X2.2524Y-5.5858
X2.2524Y-5.6858
X2.2524Y-5.7858
X2.2524Y-5.8858
X2.2524Y-5.9858
X2.2524Y-6.0858
T3
X4.7351Y-4.3495
X4.7351Y-4.5267
X4.991Y-4.3495
X4.991Y-4.5267
X3.869Y-3.759
X3.869Y-3.9361
X4.1249Y-3.759
X4.1249Y-3.9361
X4.7351Y-4.9401
X4.7351Y-5.1172
X4.991Y-4.9401
X4.991Y-5.1172
X1.5068Y-5.8456
X1.5068Y-6.0228
X1.7627Y-5.8456
X1.7627Y-6.0228
X4.7351Y-5.5306
X4.7351Y-5.7078
X4.991Y-5.5306
X4.991Y-5.7078
X1.7036Y-4.3495
X1.7036Y-4.5267
X1.9595Y-4.3495
X1.9595Y-4.5267
X3.1603Y-6.318
X3.1603Y-6.4952
X3.4162Y-6.318
X3.4162Y-6.4952
X4.7351Y-6.318
X4.7351Y-6.4952
X4.991Y-6.318
X4.991Y-6.4952
X2.491Y-5.1369
X2.491Y-5.3141
X2.7469Y-5.1369
X2.7469Y-5.3141
X3.9477Y-6.318
X3.9477Y-6.4952
X4.2036Y-6.318
X4.2036Y-6.4952
X3.869Y-4.9401
X3.869Y-5.1172
X4.1249Y-4.9401
X4.1249Y-5.1172
X3.2784Y-4.3495
X3.2784Y-4.5267
X3.5343Y-4.3495
X3.5343Y-4.5267
X2.3729Y-6.318
X2.3729Y-6.4952
X2.6288Y-6.318
X2.6288Y-6.4952
X2.491Y-3.5621
X2.491Y-3.7393
X2.7469Y-3.5621
X2.7469Y-3.7393
T0
M30
