%TF.GenerationSoftware,KiCad,Pcbnew,(5.0.0-3-g5ebb6b6)*%
%TF.CreationDate,2018-10-09T22:59:36+02:00*%
%TF.ProjectId,CNC_Control_Panel,434E435F436F6E74726F6C5F50616E65,rev?*%
%TF.SameCoordinates,Original*%
%TF.FileFunction,Soldermask,Top*%
%TF.FilePolarity,Negative*%
%FSLAX46Y46*%
G04 Gerber Fmt 4.6, Leading zero omitted, Abs format (unit mm)*
G04 Created by KiCad (PCBNEW (5.0.0-3-g5ebb6b6)) date 2018 October 09, Tuesday 22:59:36*
%MOMM*%
%LPD*%
G01*
G04 APERTURE LIST*
%ADD10C,2.700000*%
%ADD11R,1.700000X1.700000*%
%ADD12O,1.700000X1.700000*%
%ADD13C,2.000000*%
%ADD14C,0.150000*%
%ADD15C,1.150000*%
%ADD16C,3.200000*%
%ADD17R,1.200000X0.900000*%
%ADD18R,0.900000X0.800000*%
G04 APERTURE END LIST*
D10*
X86906000Y-80875000D03*
D11*
X39176000Y-134005000D03*
D12*
X36636000Y-134005000D03*
X39176000Y-131465000D03*
X36636000Y-131465000D03*
X39176000Y-128925000D03*
X36636000Y-128925000D03*
X39176000Y-126385000D03*
X36636000Y-126385000D03*
X39176000Y-123845000D03*
X36636000Y-123845000D03*
X39176000Y-121305000D03*
X36636000Y-121305000D03*
X39176000Y-118765000D03*
X36636000Y-118765000D03*
X39176000Y-116225000D03*
X36636000Y-116225000D03*
X39176000Y-113685000D03*
X36636000Y-113685000D03*
X39176000Y-111145000D03*
X36636000Y-111145000D03*
X39176000Y-108605000D03*
X36636000Y-108605000D03*
X39176000Y-106065000D03*
X36636000Y-106065000D03*
X39176000Y-103525000D03*
X36636000Y-103525000D03*
X39176000Y-100985000D03*
X36636000Y-100985000D03*
X39176000Y-98445000D03*
X36636000Y-98445000D03*
X39176000Y-95905000D03*
X36636000Y-95905000D03*
X39176000Y-93365000D03*
X36636000Y-93365000D03*
X39176000Y-90825000D03*
X36636000Y-90825000D03*
X39176000Y-88285000D03*
X36636000Y-88285000D03*
X39176000Y-85745000D03*
X36636000Y-85745000D03*
D10*
X86906000Y-138875000D03*
X37906000Y-80875000D03*
X37906000Y-138875000D03*
D13*
X120272000Y-164978000D03*
X120272000Y-160478000D03*
X126772000Y-164978000D03*
X126772000Y-160478000D03*
X86772000Y-160478000D03*
X86772000Y-164978000D03*
X80272000Y-160478000D03*
X80272000Y-164978000D03*
X60272000Y-164978000D03*
X60272000Y-160478000D03*
X66772000Y-164978000D03*
X66772000Y-160478000D03*
X44772000Y-148478000D03*
X44772000Y-152978000D03*
X38272000Y-148478000D03*
X38272000Y-152978000D03*
X106772000Y-160478000D03*
X106772000Y-164978000D03*
X100272000Y-160478000D03*
X100272000Y-164978000D03*
X120272000Y-114978000D03*
X120272000Y-110478000D03*
X126772000Y-114978000D03*
X126772000Y-110478000D03*
X49772000Y-110478000D03*
X49772000Y-114978000D03*
X43272000Y-110478000D03*
X43272000Y-114978000D03*
X89772000Y-110478000D03*
X89772000Y-114978000D03*
X83272000Y-110478000D03*
X83272000Y-114978000D03*
X126772000Y-125478000D03*
X126772000Y-129978000D03*
X120272000Y-125478000D03*
X120272000Y-129978000D03*
X63272000Y-134978000D03*
X63272000Y-130478000D03*
X69772000Y-134978000D03*
X69772000Y-130478000D03*
X63272000Y-94978000D03*
X63272000Y-90478000D03*
X69772000Y-94978000D03*
X69772000Y-90478000D03*
X120272000Y-144978000D03*
X120272000Y-140478000D03*
X126772000Y-144978000D03*
X126772000Y-140478000D03*
X98272000Y-129978000D03*
X98272000Y-125478000D03*
X104772000Y-129978000D03*
X104772000Y-125478000D03*
X104772000Y-95478000D03*
X104772000Y-99978000D03*
X98272000Y-95478000D03*
X98272000Y-99978000D03*
D11*
X95272000Y-119478000D03*
D12*
X95272000Y-116938000D03*
X95272000Y-114398000D03*
X95272000Y-111858000D03*
X95272000Y-109318000D03*
X95272000Y-106778000D03*
X95272000Y-104238000D03*
D14*
G36*
X42223505Y-129103204D02*
X42247773Y-129106804D01*
X42271572Y-129112765D01*
X42294671Y-129121030D01*
X42316850Y-129131520D01*
X42337893Y-129144132D01*
X42357599Y-129158747D01*
X42375777Y-129175223D01*
X42392253Y-129193401D01*
X42406868Y-129213107D01*
X42419480Y-129234150D01*
X42429970Y-129256329D01*
X42438235Y-129279428D01*
X42444196Y-129303227D01*
X42447796Y-129327495D01*
X42449000Y-129351999D01*
X42449000Y-130252001D01*
X42447796Y-130276505D01*
X42444196Y-130300773D01*
X42438235Y-130324572D01*
X42429970Y-130347671D01*
X42419480Y-130369850D01*
X42406868Y-130390893D01*
X42392253Y-130410599D01*
X42375777Y-130428777D01*
X42357599Y-130445253D01*
X42337893Y-130459868D01*
X42316850Y-130472480D01*
X42294671Y-130482970D01*
X42271572Y-130491235D01*
X42247773Y-130497196D01*
X42223505Y-130500796D01*
X42199001Y-130502000D01*
X41548999Y-130502000D01*
X41524495Y-130500796D01*
X41500227Y-130497196D01*
X41476428Y-130491235D01*
X41453329Y-130482970D01*
X41431150Y-130472480D01*
X41410107Y-130459868D01*
X41390401Y-130445253D01*
X41372223Y-130428777D01*
X41355747Y-130410599D01*
X41341132Y-130390893D01*
X41328520Y-130369850D01*
X41318030Y-130347671D01*
X41309765Y-130324572D01*
X41303804Y-130300773D01*
X41300204Y-130276505D01*
X41299000Y-130252001D01*
X41299000Y-129351999D01*
X41300204Y-129327495D01*
X41303804Y-129303227D01*
X41309765Y-129279428D01*
X41318030Y-129256329D01*
X41328520Y-129234150D01*
X41341132Y-129213107D01*
X41355747Y-129193401D01*
X41372223Y-129175223D01*
X41390401Y-129158747D01*
X41410107Y-129144132D01*
X41431150Y-129131520D01*
X41453329Y-129121030D01*
X41476428Y-129112765D01*
X41500227Y-129106804D01*
X41524495Y-129103204D01*
X41548999Y-129102000D01*
X42199001Y-129102000D01*
X42223505Y-129103204D01*
X42223505Y-129103204D01*
G37*
D15*
X41874000Y-129802000D03*
D14*
G36*
X44273505Y-129103204D02*
X44297773Y-129106804D01*
X44321572Y-129112765D01*
X44344671Y-129121030D01*
X44366850Y-129131520D01*
X44387893Y-129144132D01*
X44407599Y-129158747D01*
X44425777Y-129175223D01*
X44442253Y-129193401D01*
X44456868Y-129213107D01*
X44469480Y-129234150D01*
X44479970Y-129256329D01*
X44488235Y-129279428D01*
X44494196Y-129303227D01*
X44497796Y-129327495D01*
X44499000Y-129351999D01*
X44499000Y-130252001D01*
X44497796Y-130276505D01*
X44494196Y-130300773D01*
X44488235Y-130324572D01*
X44479970Y-130347671D01*
X44469480Y-130369850D01*
X44456868Y-130390893D01*
X44442253Y-130410599D01*
X44425777Y-130428777D01*
X44407599Y-130445253D01*
X44387893Y-130459868D01*
X44366850Y-130472480D01*
X44344671Y-130482970D01*
X44321572Y-130491235D01*
X44297773Y-130497196D01*
X44273505Y-130500796D01*
X44249001Y-130502000D01*
X43598999Y-130502000D01*
X43574495Y-130500796D01*
X43550227Y-130497196D01*
X43526428Y-130491235D01*
X43503329Y-130482970D01*
X43481150Y-130472480D01*
X43460107Y-130459868D01*
X43440401Y-130445253D01*
X43422223Y-130428777D01*
X43405747Y-130410599D01*
X43391132Y-130390893D01*
X43378520Y-130369850D01*
X43368030Y-130347671D01*
X43359765Y-130324572D01*
X43353804Y-130300773D01*
X43350204Y-130276505D01*
X43349000Y-130252001D01*
X43349000Y-129351999D01*
X43350204Y-129327495D01*
X43353804Y-129303227D01*
X43359765Y-129279428D01*
X43368030Y-129256329D01*
X43378520Y-129234150D01*
X43391132Y-129213107D01*
X43405747Y-129193401D01*
X43422223Y-129175223D01*
X43440401Y-129158747D01*
X43460107Y-129144132D01*
X43481150Y-129131520D01*
X43503329Y-129121030D01*
X43526428Y-129112765D01*
X43550227Y-129106804D01*
X43574495Y-129103204D01*
X43598999Y-129102000D01*
X44249001Y-129102000D01*
X44273505Y-129103204D01*
X44273505Y-129103204D01*
G37*
D15*
X43924000Y-129802000D03*
D14*
G36*
X44291505Y-82875204D02*
X44315773Y-82878804D01*
X44339572Y-82884765D01*
X44362671Y-82893030D01*
X44384850Y-82903520D01*
X44405893Y-82916132D01*
X44425599Y-82930747D01*
X44443777Y-82947223D01*
X44460253Y-82965401D01*
X44474868Y-82985107D01*
X44487480Y-83006150D01*
X44497970Y-83028329D01*
X44506235Y-83051428D01*
X44512196Y-83075227D01*
X44515796Y-83099495D01*
X44517000Y-83123999D01*
X44517000Y-84024001D01*
X44515796Y-84048505D01*
X44512196Y-84072773D01*
X44506235Y-84096572D01*
X44497970Y-84119671D01*
X44487480Y-84141850D01*
X44474868Y-84162893D01*
X44460253Y-84182599D01*
X44443777Y-84200777D01*
X44425599Y-84217253D01*
X44405893Y-84231868D01*
X44384850Y-84244480D01*
X44362671Y-84254970D01*
X44339572Y-84263235D01*
X44315773Y-84269196D01*
X44291505Y-84272796D01*
X44267001Y-84274000D01*
X43616999Y-84274000D01*
X43592495Y-84272796D01*
X43568227Y-84269196D01*
X43544428Y-84263235D01*
X43521329Y-84254970D01*
X43499150Y-84244480D01*
X43478107Y-84231868D01*
X43458401Y-84217253D01*
X43440223Y-84200777D01*
X43423747Y-84182599D01*
X43409132Y-84162893D01*
X43396520Y-84141850D01*
X43386030Y-84119671D01*
X43377765Y-84096572D01*
X43371804Y-84072773D01*
X43368204Y-84048505D01*
X43367000Y-84024001D01*
X43367000Y-83123999D01*
X43368204Y-83099495D01*
X43371804Y-83075227D01*
X43377765Y-83051428D01*
X43386030Y-83028329D01*
X43396520Y-83006150D01*
X43409132Y-82985107D01*
X43423747Y-82965401D01*
X43440223Y-82947223D01*
X43458401Y-82930747D01*
X43478107Y-82916132D01*
X43499150Y-82903520D01*
X43521329Y-82893030D01*
X43544428Y-82884765D01*
X43568227Y-82878804D01*
X43592495Y-82875204D01*
X43616999Y-82874000D01*
X44267001Y-82874000D01*
X44291505Y-82875204D01*
X44291505Y-82875204D01*
G37*
D15*
X43942000Y-83574000D03*
D14*
G36*
X42241505Y-82875204D02*
X42265773Y-82878804D01*
X42289572Y-82884765D01*
X42312671Y-82893030D01*
X42334850Y-82903520D01*
X42355893Y-82916132D01*
X42375599Y-82930747D01*
X42393777Y-82947223D01*
X42410253Y-82965401D01*
X42424868Y-82985107D01*
X42437480Y-83006150D01*
X42447970Y-83028329D01*
X42456235Y-83051428D01*
X42462196Y-83075227D01*
X42465796Y-83099495D01*
X42467000Y-83123999D01*
X42467000Y-84024001D01*
X42465796Y-84048505D01*
X42462196Y-84072773D01*
X42456235Y-84096572D01*
X42447970Y-84119671D01*
X42437480Y-84141850D01*
X42424868Y-84162893D01*
X42410253Y-84182599D01*
X42393777Y-84200777D01*
X42375599Y-84217253D01*
X42355893Y-84231868D01*
X42334850Y-84244480D01*
X42312671Y-84254970D01*
X42289572Y-84263235D01*
X42265773Y-84269196D01*
X42241505Y-84272796D01*
X42217001Y-84274000D01*
X41566999Y-84274000D01*
X41542495Y-84272796D01*
X41518227Y-84269196D01*
X41494428Y-84263235D01*
X41471329Y-84254970D01*
X41449150Y-84244480D01*
X41428107Y-84231868D01*
X41408401Y-84217253D01*
X41390223Y-84200777D01*
X41373747Y-84182599D01*
X41359132Y-84162893D01*
X41346520Y-84141850D01*
X41336030Y-84119671D01*
X41327765Y-84096572D01*
X41321804Y-84072773D01*
X41318204Y-84048505D01*
X41317000Y-84024001D01*
X41317000Y-83123999D01*
X41318204Y-83099495D01*
X41321804Y-83075227D01*
X41327765Y-83051428D01*
X41336030Y-83028329D01*
X41346520Y-83006150D01*
X41359132Y-82985107D01*
X41373747Y-82965401D01*
X41390223Y-82947223D01*
X41408401Y-82930747D01*
X41428107Y-82916132D01*
X41449150Y-82903520D01*
X41471329Y-82893030D01*
X41494428Y-82884765D01*
X41518227Y-82878804D01*
X41542495Y-82875204D01*
X41566999Y-82874000D01*
X42217001Y-82874000D01*
X42241505Y-82875204D01*
X42241505Y-82875204D01*
G37*
D15*
X41892000Y-83574000D03*
D14*
G36*
X42223505Y-84907204D02*
X42247773Y-84910804D01*
X42271572Y-84916765D01*
X42294671Y-84925030D01*
X42316850Y-84935520D01*
X42337893Y-84948132D01*
X42357599Y-84962747D01*
X42375777Y-84979223D01*
X42392253Y-84997401D01*
X42406868Y-85017107D01*
X42419480Y-85038150D01*
X42429970Y-85060329D01*
X42438235Y-85083428D01*
X42444196Y-85107227D01*
X42447796Y-85131495D01*
X42449000Y-85155999D01*
X42449000Y-86056001D01*
X42447796Y-86080505D01*
X42444196Y-86104773D01*
X42438235Y-86128572D01*
X42429970Y-86151671D01*
X42419480Y-86173850D01*
X42406868Y-86194893D01*
X42392253Y-86214599D01*
X42375777Y-86232777D01*
X42357599Y-86249253D01*
X42337893Y-86263868D01*
X42316850Y-86276480D01*
X42294671Y-86286970D01*
X42271572Y-86295235D01*
X42247773Y-86301196D01*
X42223505Y-86304796D01*
X42199001Y-86306000D01*
X41548999Y-86306000D01*
X41524495Y-86304796D01*
X41500227Y-86301196D01*
X41476428Y-86295235D01*
X41453329Y-86286970D01*
X41431150Y-86276480D01*
X41410107Y-86263868D01*
X41390401Y-86249253D01*
X41372223Y-86232777D01*
X41355747Y-86214599D01*
X41341132Y-86194893D01*
X41328520Y-86173850D01*
X41318030Y-86151671D01*
X41309765Y-86128572D01*
X41303804Y-86104773D01*
X41300204Y-86080505D01*
X41299000Y-86056001D01*
X41299000Y-85155999D01*
X41300204Y-85131495D01*
X41303804Y-85107227D01*
X41309765Y-85083428D01*
X41318030Y-85060329D01*
X41328520Y-85038150D01*
X41341132Y-85017107D01*
X41355747Y-84997401D01*
X41372223Y-84979223D01*
X41390401Y-84962747D01*
X41410107Y-84948132D01*
X41431150Y-84935520D01*
X41453329Y-84925030D01*
X41476428Y-84916765D01*
X41500227Y-84910804D01*
X41524495Y-84907204D01*
X41548999Y-84906000D01*
X42199001Y-84906000D01*
X42223505Y-84907204D01*
X42223505Y-84907204D01*
G37*
D15*
X41874000Y-85606000D03*
D14*
G36*
X44273505Y-84907204D02*
X44297773Y-84910804D01*
X44321572Y-84916765D01*
X44344671Y-84925030D01*
X44366850Y-84935520D01*
X44387893Y-84948132D01*
X44407599Y-84962747D01*
X44425777Y-84979223D01*
X44442253Y-84997401D01*
X44456868Y-85017107D01*
X44469480Y-85038150D01*
X44479970Y-85060329D01*
X44488235Y-85083428D01*
X44494196Y-85107227D01*
X44497796Y-85131495D01*
X44499000Y-85155999D01*
X44499000Y-86056001D01*
X44497796Y-86080505D01*
X44494196Y-86104773D01*
X44488235Y-86128572D01*
X44479970Y-86151671D01*
X44469480Y-86173850D01*
X44456868Y-86194893D01*
X44442253Y-86214599D01*
X44425777Y-86232777D01*
X44407599Y-86249253D01*
X44387893Y-86263868D01*
X44366850Y-86276480D01*
X44344671Y-86286970D01*
X44321572Y-86295235D01*
X44297773Y-86301196D01*
X44273505Y-86304796D01*
X44249001Y-86306000D01*
X43598999Y-86306000D01*
X43574495Y-86304796D01*
X43550227Y-86301196D01*
X43526428Y-86295235D01*
X43503329Y-86286970D01*
X43481150Y-86276480D01*
X43460107Y-86263868D01*
X43440401Y-86249253D01*
X43422223Y-86232777D01*
X43405747Y-86214599D01*
X43391132Y-86194893D01*
X43378520Y-86173850D01*
X43368030Y-86151671D01*
X43359765Y-86128572D01*
X43353804Y-86104773D01*
X43350204Y-86080505D01*
X43349000Y-86056001D01*
X43349000Y-85155999D01*
X43350204Y-85131495D01*
X43353804Y-85107227D01*
X43359765Y-85083428D01*
X43368030Y-85060329D01*
X43378520Y-85038150D01*
X43391132Y-85017107D01*
X43405747Y-84997401D01*
X43422223Y-84979223D01*
X43440401Y-84962747D01*
X43460107Y-84948132D01*
X43481150Y-84935520D01*
X43503329Y-84925030D01*
X43526428Y-84916765D01*
X43550227Y-84910804D01*
X43574495Y-84907204D01*
X43598999Y-84906000D01*
X44249001Y-84906000D01*
X44273505Y-84907204D01*
X44273505Y-84907204D01*
G37*
D15*
X43924000Y-85606000D03*
D14*
G36*
X44273505Y-91003204D02*
X44297773Y-91006804D01*
X44321572Y-91012765D01*
X44344671Y-91021030D01*
X44366850Y-91031520D01*
X44387893Y-91044132D01*
X44407599Y-91058747D01*
X44425777Y-91075223D01*
X44442253Y-91093401D01*
X44456868Y-91113107D01*
X44469480Y-91134150D01*
X44479970Y-91156329D01*
X44488235Y-91179428D01*
X44494196Y-91203227D01*
X44497796Y-91227495D01*
X44499000Y-91251999D01*
X44499000Y-92152001D01*
X44497796Y-92176505D01*
X44494196Y-92200773D01*
X44488235Y-92224572D01*
X44479970Y-92247671D01*
X44469480Y-92269850D01*
X44456868Y-92290893D01*
X44442253Y-92310599D01*
X44425777Y-92328777D01*
X44407599Y-92345253D01*
X44387893Y-92359868D01*
X44366850Y-92372480D01*
X44344671Y-92382970D01*
X44321572Y-92391235D01*
X44297773Y-92397196D01*
X44273505Y-92400796D01*
X44249001Y-92402000D01*
X43598999Y-92402000D01*
X43574495Y-92400796D01*
X43550227Y-92397196D01*
X43526428Y-92391235D01*
X43503329Y-92382970D01*
X43481150Y-92372480D01*
X43460107Y-92359868D01*
X43440401Y-92345253D01*
X43422223Y-92328777D01*
X43405747Y-92310599D01*
X43391132Y-92290893D01*
X43378520Y-92269850D01*
X43368030Y-92247671D01*
X43359765Y-92224572D01*
X43353804Y-92200773D01*
X43350204Y-92176505D01*
X43349000Y-92152001D01*
X43349000Y-91251999D01*
X43350204Y-91227495D01*
X43353804Y-91203227D01*
X43359765Y-91179428D01*
X43368030Y-91156329D01*
X43378520Y-91134150D01*
X43391132Y-91113107D01*
X43405747Y-91093401D01*
X43422223Y-91075223D01*
X43440401Y-91058747D01*
X43460107Y-91044132D01*
X43481150Y-91031520D01*
X43503329Y-91021030D01*
X43526428Y-91012765D01*
X43550227Y-91006804D01*
X43574495Y-91003204D01*
X43598999Y-91002000D01*
X44249001Y-91002000D01*
X44273505Y-91003204D01*
X44273505Y-91003204D01*
G37*
D15*
X43924000Y-91702000D03*
D14*
G36*
X42223505Y-91003204D02*
X42247773Y-91006804D01*
X42271572Y-91012765D01*
X42294671Y-91021030D01*
X42316850Y-91031520D01*
X42337893Y-91044132D01*
X42357599Y-91058747D01*
X42375777Y-91075223D01*
X42392253Y-91093401D01*
X42406868Y-91113107D01*
X42419480Y-91134150D01*
X42429970Y-91156329D01*
X42438235Y-91179428D01*
X42444196Y-91203227D01*
X42447796Y-91227495D01*
X42449000Y-91251999D01*
X42449000Y-92152001D01*
X42447796Y-92176505D01*
X42444196Y-92200773D01*
X42438235Y-92224572D01*
X42429970Y-92247671D01*
X42419480Y-92269850D01*
X42406868Y-92290893D01*
X42392253Y-92310599D01*
X42375777Y-92328777D01*
X42357599Y-92345253D01*
X42337893Y-92359868D01*
X42316850Y-92372480D01*
X42294671Y-92382970D01*
X42271572Y-92391235D01*
X42247773Y-92397196D01*
X42223505Y-92400796D01*
X42199001Y-92402000D01*
X41548999Y-92402000D01*
X41524495Y-92400796D01*
X41500227Y-92397196D01*
X41476428Y-92391235D01*
X41453329Y-92382970D01*
X41431150Y-92372480D01*
X41410107Y-92359868D01*
X41390401Y-92345253D01*
X41372223Y-92328777D01*
X41355747Y-92310599D01*
X41341132Y-92290893D01*
X41328520Y-92269850D01*
X41318030Y-92247671D01*
X41309765Y-92224572D01*
X41303804Y-92200773D01*
X41300204Y-92176505D01*
X41299000Y-92152001D01*
X41299000Y-91251999D01*
X41300204Y-91227495D01*
X41303804Y-91203227D01*
X41309765Y-91179428D01*
X41318030Y-91156329D01*
X41328520Y-91134150D01*
X41341132Y-91113107D01*
X41355747Y-91093401D01*
X41372223Y-91075223D01*
X41390401Y-91058747D01*
X41410107Y-91044132D01*
X41431150Y-91031520D01*
X41453329Y-91021030D01*
X41476428Y-91012765D01*
X41500227Y-91006804D01*
X41524495Y-91003204D01*
X41548999Y-91002000D01*
X42199001Y-91002000D01*
X42223505Y-91003204D01*
X42223505Y-91003204D01*
G37*
D15*
X41874000Y-91702000D03*
D14*
G36*
X42223505Y-107259204D02*
X42247773Y-107262804D01*
X42271572Y-107268765D01*
X42294671Y-107277030D01*
X42316850Y-107287520D01*
X42337893Y-107300132D01*
X42357599Y-107314747D01*
X42375777Y-107331223D01*
X42392253Y-107349401D01*
X42406868Y-107369107D01*
X42419480Y-107390150D01*
X42429970Y-107412329D01*
X42438235Y-107435428D01*
X42444196Y-107459227D01*
X42447796Y-107483495D01*
X42449000Y-107507999D01*
X42449000Y-108408001D01*
X42447796Y-108432505D01*
X42444196Y-108456773D01*
X42438235Y-108480572D01*
X42429970Y-108503671D01*
X42419480Y-108525850D01*
X42406868Y-108546893D01*
X42392253Y-108566599D01*
X42375777Y-108584777D01*
X42357599Y-108601253D01*
X42337893Y-108615868D01*
X42316850Y-108628480D01*
X42294671Y-108638970D01*
X42271572Y-108647235D01*
X42247773Y-108653196D01*
X42223505Y-108656796D01*
X42199001Y-108658000D01*
X41548999Y-108658000D01*
X41524495Y-108656796D01*
X41500227Y-108653196D01*
X41476428Y-108647235D01*
X41453329Y-108638970D01*
X41431150Y-108628480D01*
X41410107Y-108615868D01*
X41390401Y-108601253D01*
X41372223Y-108584777D01*
X41355747Y-108566599D01*
X41341132Y-108546893D01*
X41328520Y-108525850D01*
X41318030Y-108503671D01*
X41309765Y-108480572D01*
X41303804Y-108456773D01*
X41300204Y-108432505D01*
X41299000Y-108408001D01*
X41299000Y-107507999D01*
X41300204Y-107483495D01*
X41303804Y-107459227D01*
X41309765Y-107435428D01*
X41318030Y-107412329D01*
X41328520Y-107390150D01*
X41341132Y-107369107D01*
X41355747Y-107349401D01*
X41372223Y-107331223D01*
X41390401Y-107314747D01*
X41410107Y-107300132D01*
X41431150Y-107287520D01*
X41453329Y-107277030D01*
X41476428Y-107268765D01*
X41500227Y-107262804D01*
X41524495Y-107259204D01*
X41548999Y-107258000D01*
X42199001Y-107258000D01*
X42223505Y-107259204D01*
X42223505Y-107259204D01*
G37*
D15*
X41874000Y-107958000D03*
D14*
G36*
X44273505Y-107259204D02*
X44297773Y-107262804D01*
X44321572Y-107268765D01*
X44344671Y-107277030D01*
X44366850Y-107287520D01*
X44387893Y-107300132D01*
X44407599Y-107314747D01*
X44425777Y-107331223D01*
X44442253Y-107349401D01*
X44456868Y-107369107D01*
X44469480Y-107390150D01*
X44479970Y-107412329D01*
X44488235Y-107435428D01*
X44494196Y-107459227D01*
X44497796Y-107483495D01*
X44499000Y-107507999D01*
X44499000Y-108408001D01*
X44497796Y-108432505D01*
X44494196Y-108456773D01*
X44488235Y-108480572D01*
X44479970Y-108503671D01*
X44469480Y-108525850D01*
X44456868Y-108546893D01*
X44442253Y-108566599D01*
X44425777Y-108584777D01*
X44407599Y-108601253D01*
X44387893Y-108615868D01*
X44366850Y-108628480D01*
X44344671Y-108638970D01*
X44321572Y-108647235D01*
X44297773Y-108653196D01*
X44273505Y-108656796D01*
X44249001Y-108658000D01*
X43598999Y-108658000D01*
X43574495Y-108656796D01*
X43550227Y-108653196D01*
X43526428Y-108647235D01*
X43503329Y-108638970D01*
X43481150Y-108628480D01*
X43460107Y-108615868D01*
X43440401Y-108601253D01*
X43422223Y-108584777D01*
X43405747Y-108566599D01*
X43391132Y-108546893D01*
X43378520Y-108525850D01*
X43368030Y-108503671D01*
X43359765Y-108480572D01*
X43353804Y-108456773D01*
X43350204Y-108432505D01*
X43349000Y-108408001D01*
X43349000Y-107507999D01*
X43350204Y-107483495D01*
X43353804Y-107459227D01*
X43359765Y-107435428D01*
X43368030Y-107412329D01*
X43378520Y-107390150D01*
X43391132Y-107369107D01*
X43405747Y-107349401D01*
X43422223Y-107331223D01*
X43440401Y-107314747D01*
X43460107Y-107300132D01*
X43481150Y-107287520D01*
X43503329Y-107277030D01*
X43526428Y-107268765D01*
X43550227Y-107262804D01*
X43574495Y-107259204D01*
X43598999Y-107258000D01*
X44249001Y-107258000D01*
X44273505Y-107259204D01*
X44273505Y-107259204D01*
G37*
D15*
X43924000Y-107958000D03*
D14*
G36*
X44273505Y-118943204D02*
X44297773Y-118946804D01*
X44321572Y-118952765D01*
X44344671Y-118961030D01*
X44366850Y-118971520D01*
X44387893Y-118984132D01*
X44407599Y-118998747D01*
X44425777Y-119015223D01*
X44442253Y-119033401D01*
X44456868Y-119053107D01*
X44469480Y-119074150D01*
X44479970Y-119096329D01*
X44488235Y-119119428D01*
X44494196Y-119143227D01*
X44497796Y-119167495D01*
X44499000Y-119191999D01*
X44499000Y-120092001D01*
X44497796Y-120116505D01*
X44494196Y-120140773D01*
X44488235Y-120164572D01*
X44479970Y-120187671D01*
X44469480Y-120209850D01*
X44456868Y-120230893D01*
X44442253Y-120250599D01*
X44425777Y-120268777D01*
X44407599Y-120285253D01*
X44387893Y-120299868D01*
X44366850Y-120312480D01*
X44344671Y-120322970D01*
X44321572Y-120331235D01*
X44297773Y-120337196D01*
X44273505Y-120340796D01*
X44249001Y-120342000D01*
X43598999Y-120342000D01*
X43574495Y-120340796D01*
X43550227Y-120337196D01*
X43526428Y-120331235D01*
X43503329Y-120322970D01*
X43481150Y-120312480D01*
X43460107Y-120299868D01*
X43440401Y-120285253D01*
X43422223Y-120268777D01*
X43405747Y-120250599D01*
X43391132Y-120230893D01*
X43378520Y-120209850D01*
X43368030Y-120187671D01*
X43359765Y-120164572D01*
X43353804Y-120140773D01*
X43350204Y-120116505D01*
X43349000Y-120092001D01*
X43349000Y-119191999D01*
X43350204Y-119167495D01*
X43353804Y-119143227D01*
X43359765Y-119119428D01*
X43368030Y-119096329D01*
X43378520Y-119074150D01*
X43391132Y-119053107D01*
X43405747Y-119033401D01*
X43422223Y-119015223D01*
X43440401Y-118998747D01*
X43460107Y-118984132D01*
X43481150Y-118971520D01*
X43503329Y-118961030D01*
X43526428Y-118952765D01*
X43550227Y-118946804D01*
X43574495Y-118943204D01*
X43598999Y-118942000D01*
X44249001Y-118942000D01*
X44273505Y-118943204D01*
X44273505Y-118943204D01*
G37*
D15*
X43924000Y-119642000D03*
D14*
G36*
X42223505Y-118943204D02*
X42247773Y-118946804D01*
X42271572Y-118952765D01*
X42294671Y-118961030D01*
X42316850Y-118971520D01*
X42337893Y-118984132D01*
X42357599Y-118998747D01*
X42375777Y-119015223D01*
X42392253Y-119033401D01*
X42406868Y-119053107D01*
X42419480Y-119074150D01*
X42429970Y-119096329D01*
X42438235Y-119119428D01*
X42444196Y-119143227D01*
X42447796Y-119167495D01*
X42449000Y-119191999D01*
X42449000Y-120092001D01*
X42447796Y-120116505D01*
X42444196Y-120140773D01*
X42438235Y-120164572D01*
X42429970Y-120187671D01*
X42419480Y-120209850D01*
X42406868Y-120230893D01*
X42392253Y-120250599D01*
X42375777Y-120268777D01*
X42357599Y-120285253D01*
X42337893Y-120299868D01*
X42316850Y-120312480D01*
X42294671Y-120322970D01*
X42271572Y-120331235D01*
X42247773Y-120337196D01*
X42223505Y-120340796D01*
X42199001Y-120342000D01*
X41548999Y-120342000D01*
X41524495Y-120340796D01*
X41500227Y-120337196D01*
X41476428Y-120331235D01*
X41453329Y-120322970D01*
X41431150Y-120312480D01*
X41410107Y-120299868D01*
X41390401Y-120285253D01*
X41372223Y-120268777D01*
X41355747Y-120250599D01*
X41341132Y-120230893D01*
X41328520Y-120209850D01*
X41318030Y-120187671D01*
X41309765Y-120164572D01*
X41303804Y-120140773D01*
X41300204Y-120116505D01*
X41299000Y-120092001D01*
X41299000Y-119191999D01*
X41300204Y-119167495D01*
X41303804Y-119143227D01*
X41309765Y-119119428D01*
X41318030Y-119096329D01*
X41328520Y-119074150D01*
X41341132Y-119053107D01*
X41355747Y-119033401D01*
X41372223Y-119015223D01*
X41390401Y-118998747D01*
X41410107Y-118984132D01*
X41431150Y-118971520D01*
X41453329Y-118961030D01*
X41476428Y-118952765D01*
X41500227Y-118946804D01*
X41524495Y-118943204D01*
X41548999Y-118942000D01*
X42199001Y-118942000D01*
X42223505Y-118943204D01*
X42223505Y-118943204D01*
G37*
D15*
X41874000Y-119642000D03*
D14*
G36*
X42223505Y-120975204D02*
X42247773Y-120978804D01*
X42271572Y-120984765D01*
X42294671Y-120993030D01*
X42316850Y-121003520D01*
X42337893Y-121016132D01*
X42357599Y-121030747D01*
X42375777Y-121047223D01*
X42392253Y-121065401D01*
X42406868Y-121085107D01*
X42419480Y-121106150D01*
X42429970Y-121128329D01*
X42438235Y-121151428D01*
X42444196Y-121175227D01*
X42447796Y-121199495D01*
X42449000Y-121223999D01*
X42449000Y-122124001D01*
X42447796Y-122148505D01*
X42444196Y-122172773D01*
X42438235Y-122196572D01*
X42429970Y-122219671D01*
X42419480Y-122241850D01*
X42406868Y-122262893D01*
X42392253Y-122282599D01*
X42375777Y-122300777D01*
X42357599Y-122317253D01*
X42337893Y-122331868D01*
X42316850Y-122344480D01*
X42294671Y-122354970D01*
X42271572Y-122363235D01*
X42247773Y-122369196D01*
X42223505Y-122372796D01*
X42199001Y-122374000D01*
X41548999Y-122374000D01*
X41524495Y-122372796D01*
X41500227Y-122369196D01*
X41476428Y-122363235D01*
X41453329Y-122354970D01*
X41431150Y-122344480D01*
X41410107Y-122331868D01*
X41390401Y-122317253D01*
X41372223Y-122300777D01*
X41355747Y-122282599D01*
X41341132Y-122262893D01*
X41328520Y-122241850D01*
X41318030Y-122219671D01*
X41309765Y-122196572D01*
X41303804Y-122172773D01*
X41300204Y-122148505D01*
X41299000Y-122124001D01*
X41299000Y-121223999D01*
X41300204Y-121199495D01*
X41303804Y-121175227D01*
X41309765Y-121151428D01*
X41318030Y-121128329D01*
X41328520Y-121106150D01*
X41341132Y-121085107D01*
X41355747Y-121065401D01*
X41372223Y-121047223D01*
X41390401Y-121030747D01*
X41410107Y-121016132D01*
X41431150Y-121003520D01*
X41453329Y-120993030D01*
X41476428Y-120984765D01*
X41500227Y-120978804D01*
X41524495Y-120975204D01*
X41548999Y-120974000D01*
X42199001Y-120974000D01*
X42223505Y-120975204D01*
X42223505Y-120975204D01*
G37*
D15*
X41874000Y-121674000D03*
D14*
G36*
X44273505Y-120975204D02*
X44297773Y-120978804D01*
X44321572Y-120984765D01*
X44344671Y-120993030D01*
X44366850Y-121003520D01*
X44387893Y-121016132D01*
X44407599Y-121030747D01*
X44425777Y-121047223D01*
X44442253Y-121065401D01*
X44456868Y-121085107D01*
X44469480Y-121106150D01*
X44479970Y-121128329D01*
X44488235Y-121151428D01*
X44494196Y-121175227D01*
X44497796Y-121199495D01*
X44499000Y-121223999D01*
X44499000Y-122124001D01*
X44497796Y-122148505D01*
X44494196Y-122172773D01*
X44488235Y-122196572D01*
X44479970Y-122219671D01*
X44469480Y-122241850D01*
X44456868Y-122262893D01*
X44442253Y-122282599D01*
X44425777Y-122300777D01*
X44407599Y-122317253D01*
X44387893Y-122331868D01*
X44366850Y-122344480D01*
X44344671Y-122354970D01*
X44321572Y-122363235D01*
X44297773Y-122369196D01*
X44273505Y-122372796D01*
X44249001Y-122374000D01*
X43598999Y-122374000D01*
X43574495Y-122372796D01*
X43550227Y-122369196D01*
X43526428Y-122363235D01*
X43503329Y-122354970D01*
X43481150Y-122344480D01*
X43460107Y-122331868D01*
X43440401Y-122317253D01*
X43422223Y-122300777D01*
X43405747Y-122282599D01*
X43391132Y-122262893D01*
X43378520Y-122241850D01*
X43368030Y-122219671D01*
X43359765Y-122196572D01*
X43353804Y-122172773D01*
X43350204Y-122148505D01*
X43349000Y-122124001D01*
X43349000Y-121223999D01*
X43350204Y-121199495D01*
X43353804Y-121175227D01*
X43359765Y-121151428D01*
X43368030Y-121128329D01*
X43378520Y-121106150D01*
X43391132Y-121085107D01*
X43405747Y-121065401D01*
X43422223Y-121047223D01*
X43440401Y-121030747D01*
X43460107Y-121016132D01*
X43481150Y-121003520D01*
X43503329Y-120993030D01*
X43526428Y-120984765D01*
X43550227Y-120978804D01*
X43574495Y-120975204D01*
X43598999Y-120974000D01*
X44249001Y-120974000D01*
X44273505Y-120975204D01*
X44273505Y-120975204D01*
G37*
D15*
X43924000Y-121674000D03*
D14*
G36*
X44273505Y-123007204D02*
X44297773Y-123010804D01*
X44321572Y-123016765D01*
X44344671Y-123025030D01*
X44366850Y-123035520D01*
X44387893Y-123048132D01*
X44407599Y-123062747D01*
X44425777Y-123079223D01*
X44442253Y-123097401D01*
X44456868Y-123117107D01*
X44469480Y-123138150D01*
X44479970Y-123160329D01*
X44488235Y-123183428D01*
X44494196Y-123207227D01*
X44497796Y-123231495D01*
X44499000Y-123255999D01*
X44499000Y-124156001D01*
X44497796Y-124180505D01*
X44494196Y-124204773D01*
X44488235Y-124228572D01*
X44479970Y-124251671D01*
X44469480Y-124273850D01*
X44456868Y-124294893D01*
X44442253Y-124314599D01*
X44425777Y-124332777D01*
X44407599Y-124349253D01*
X44387893Y-124363868D01*
X44366850Y-124376480D01*
X44344671Y-124386970D01*
X44321572Y-124395235D01*
X44297773Y-124401196D01*
X44273505Y-124404796D01*
X44249001Y-124406000D01*
X43598999Y-124406000D01*
X43574495Y-124404796D01*
X43550227Y-124401196D01*
X43526428Y-124395235D01*
X43503329Y-124386970D01*
X43481150Y-124376480D01*
X43460107Y-124363868D01*
X43440401Y-124349253D01*
X43422223Y-124332777D01*
X43405747Y-124314599D01*
X43391132Y-124294893D01*
X43378520Y-124273850D01*
X43368030Y-124251671D01*
X43359765Y-124228572D01*
X43353804Y-124204773D01*
X43350204Y-124180505D01*
X43349000Y-124156001D01*
X43349000Y-123255999D01*
X43350204Y-123231495D01*
X43353804Y-123207227D01*
X43359765Y-123183428D01*
X43368030Y-123160329D01*
X43378520Y-123138150D01*
X43391132Y-123117107D01*
X43405747Y-123097401D01*
X43422223Y-123079223D01*
X43440401Y-123062747D01*
X43460107Y-123048132D01*
X43481150Y-123035520D01*
X43503329Y-123025030D01*
X43526428Y-123016765D01*
X43550227Y-123010804D01*
X43574495Y-123007204D01*
X43598999Y-123006000D01*
X44249001Y-123006000D01*
X44273505Y-123007204D01*
X44273505Y-123007204D01*
G37*
D15*
X43924000Y-123706000D03*
D14*
G36*
X42223505Y-123007204D02*
X42247773Y-123010804D01*
X42271572Y-123016765D01*
X42294671Y-123025030D01*
X42316850Y-123035520D01*
X42337893Y-123048132D01*
X42357599Y-123062747D01*
X42375777Y-123079223D01*
X42392253Y-123097401D01*
X42406868Y-123117107D01*
X42419480Y-123138150D01*
X42429970Y-123160329D01*
X42438235Y-123183428D01*
X42444196Y-123207227D01*
X42447796Y-123231495D01*
X42449000Y-123255999D01*
X42449000Y-124156001D01*
X42447796Y-124180505D01*
X42444196Y-124204773D01*
X42438235Y-124228572D01*
X42429970Y-124251671D01*
X42419480Y-124273850D01*
X42406868Y-124294893D01*
X42392253Y-124314599D01*
X42375777Y-124332777D01*
X42357599Y-124349253D01*
X42337893Y-124363868D01*
X42316850Y-124376480D01*
X42294671Y-124386970D01*
X42271572Y-124395235D01*
X42247773Y-124401196D01*
X42223505Y-124404796D01*
X42199001Y-124406000D01*
X41548999Y-124406000D01*
X41524495Y-124404796D01*
X41500227Y-124401196D01*
X41476428Y-124395235D01*
X41453329Y-124386970D01*
X41431150Y-124376480D01*
X41410107Y-124363868D01*
X41390401Y-124349253D01*
X41372223Y-124332777D01*
X41355747Y-124314599D01*
X41341132Y-124294893D01*
X41328520Y-124273850D01*
X41318030Y-124251671D01*
X41309765Y-124228572D01*
X41303804Y-124204773D01*
X41300204Y-124180505D01*
X41299000Y-124156001D01*
X41299000Y-123255999D01*
X41300204Y-123231495D01*
X41303804Y-123207227D01*
X41309765Y-123183428D01*
X41318030Y-123160329D01*
X41328520Y-123138150D01*
X41341132Y-123117107D01*
X41355747Y-123097401D01*
X41372223Y-123079223D01*
X41390401Y-123062747D01*
X41410107Y-123048132D01*
X41431150Y-123035520D01*
X41453329Y-123025030D01*
X41476428Y-123016765D01*
X41500227Y-123010804D01*
X41524495Y-123007204D01*
X41548999Y-123006000D01*
X42199001Y-123006000D01*
X42223505Y-123007204D01*
X42223505Y-123007204D01*
G37*
D15*
X41874000Y-123706000D03*
D14*
G36*
X42241505Y-105227204D02*
X42265773Y-105230804D01*
X42289572Y-105236765D01*
X42312671Y-105245030D01*
X42334850Y-105255520D01*
X42355893Y-105268132D01*
X42375599Y-105282747D01*
X42393777Y-105299223D01*
X42410253Y-105317401D01*
X42424868Y-105337107D01*
X42437480Y-105358150D01*
X42447970Y-105380329D01*
X42456235Y-105403428D01*
X42462196Y-105427227D01*
X42465796Y-105451495D01*
X42467000Y-105475999D01*
X42467000Y-106376001D01*
X42465796Y-106400505D01*
X42462196Y-106424773D01*
X42456235Y-106448572D01*
X42447970Y-106471671D01*
X42437480Y-106493850D01*
X42424868Y-106514893D01*
X42410253Y-106534599D01*
X42393777Y-106552777D01*
X42375599Y-106569253D01*
X42355893Y-106583868D01*
X42334850Y-106596480D01*
X42312671Y-106606970D01*
X42289572Y-106615235D01*
X42265773Y-106621196D01*
X42241505Y-106624796D01*
X42217001Y-106626000D01*
X41566999Y-106626000D01*
X41542495Y-106624796D01*
X41518227Y-106621196D01*
X41494428Y-106615235D01*
X41471329Y-106606970D01*
X41449150Y-106596480D01*
X41428107Y-106583868D01*
X41408401Y-106569253D01*
X41390223Y-106552777D01*
X41373747Y-106534599D01*
X41359132Y-106514893D01*
X41346520Y-106493850D01*
X41336030Y-106471671D01*
X41327765Y-106448572D01*
X41321804Y-106424773D01*
X41318204Y-106400505D01*
X41317000Y-106376001D01*
X41317000Y-105475999D01*
X41318204Y-105451495D01*
X41321804Y-105427227D01*
X41327765Y-105403428D01*
X41336030Y-105380329D01*
X41346520Y-105358150D01*
X41359132Y-105337107D01*
X41373747Y-105317401D01*
X41390223Y-105299223D01*
X41408401Y-105282747D01*
X41428107Y-105268132D01*
X41449150Y-105255520D01*
X41471329Y-105245030D01*
X41494428Y-105236765D01*
X41518227Y-105230804D01*
X41542495Y-105227204D01*
X41566999Y-105226000D01*
X42217001Y-105226000D01*
X42241505Y-105227204D01*
X42241505Y-105227204D01*
G37*
D15*
X41892000Y-105926000D03*
D14*
G36*
X44291505Y-105227204D02*
X44315773Y-105230804D01*
X44339572Y-105236765D01*
X44362671Y-105245030D01*
X44384850Y-105255520D01*
X44405893Y-105268132D01*
X44425599Y-105282747D01*
X44443777Y-105299223D01*
X44460253Y-105317401D01*
X44474868Y-105337107D01*
X44487480Y-105358150D01*
X44497970Y-105380329D01*
X44506235Y-105403428D01*
X44512196Y-105427227D01*
X44515796Y-105451495D01*
X44517000Y-105475999D01*
X44517000Y-106376001D01*
X44515796Y-106400505D01*
X44512196Y-106424773D01*
X44506235Y-106448572D01*
X44497970Y-106471671D01*
X44487480Y-106493850D01*
X44474868Y-106514893D01*
X44460253Y-106534599D01*
X44443777Y-106552777D01*
X44425599Y-106569253D01*
X44405893Y-106583868D01*
X44384850Y-106596480D01*
X44362671Y-106606970D01*
X44339572Y-106615235D01*
X44315773Y-106621196D01*
X44291505Y-106624796D01*
X44267001Y-106626000D01*
X43616999Y-106626000D01*
X43592495Y-106624796D01*
X43568227Y-106621196D01*
X43544428Y-106615235D01*
X43521329Y-106606970D01*
X43499150Y-106596480D01*
X43478107Y-106583868D01*
X43458401Y-106569253D01*
X43440223Y-106552777D01*
X43423747Y-106534599D01*
X43409132Y-106514893D01*
X43396520Y-106493850D01*
X43386030Y-106471671D01*
X43377765Y-106448572D01*
X43371804Y-106424773D01*
X43368204Y-106400505D01*
X43367000Y-106376001D01*
X43367000Y-105475999D01*
X43368204Y-105451495D01*
X43371804Y-105427227D01*
X43377765Y-105403428D01*
X43386030Y-105380329D01*
X43396520Y-105358150D01*
X43409132Y-105337107D01*
X43423747Y-105317401D01*
X43440223Y-105299223D01*
X43458401Y-105282747D01*
X43478107Y-105268132D01*
X43499150Y-105255520D01*
X43521329Y-105245030D01*
X43544428Y-105236765D01*
X43568227Y-105230804D01*
X43592495Y-105227204D01*
X43616999Y-105226000D01*
X44267001Y-105226000D01*
X44291505Y-105227204D01*
X44291505Y-105227204D01*
G37*
D15*
X43942000Y-105926000D03*
D14*
G36*
X44273505Y-125039204D02*
X44297773Y-125042804D01*
X44321572Y-125048765D01*
X44344671Y-125057030D01*
X44366850Y-125067520D01*
X44387893Y-125080132D01*
X44407599Y-125094747D01*
X44425777Y-125111223D01*
X44442253Y-125129401D01*
X44456868Y-125149107D01*
X44469480Y-125170150D01*
X44479970Y-125192329D01*
X44488235Y-125215428D01*
X44494196Y-125239227D01*
X44497796Y-125263495D01*
X44499000Y-125287999D01*
X44499000Y-126188001D01*
X44497796Y-126212505D01*
X44494196Y-126236773D01*
X44488235Y-126260572D01*
X44479970Y-126283671D01*
X44469480Y-126305850D01*
X44456868Y-126326893D01*
X44442253Y-126346599D01*
X44425777Y-126364777D01*
X44407599Y-126381253D01*
X44387893Y-126395868D01*
X44366850Y-126408480D01*
X44344671Y-126418970D01*
X44321572Y-126427235D01*
X44297773Y-126433196D01*
X44273505Y-126436796D01*
X44249001Y-126438000D01*
X43598999Y-126438000D01*
X43574495Y-126436796D01*
X43550227Y-126433196D01*
X43526428Y-126427235D01*
X43503329Y-126418970D01*
X43481150Y-126408480D01*
X43460107Y-126395868D01*
X43440401Y-126381253D01*
X43422223Y-126364777D01*
X43405747Y-126346599D01*
X43391132Y-126326893D01*
X43378520Y-126305850D01*
X43368030Y-126283671D01*
X43359765Y-126260572D01*
X43353804Y-126236773D01*
X43350204Y-126212505D01*
X43349000Y-126188001D01*
X43349000Y-125287999D01*
X43350204Y-125263495D01*
X43353804Y-125239227D01*
X43359765Y-125215428D01*
X43368030Y-125192329D01*
X43378520Y-125170150D01*
X43391132Y-125149107D01*
X43405747Y-125129401D01*
X43422223Y-125111223D01*
X43440401Y-125094747D01*
X43460107Y-125080132D01*
X43481150Y-125067520D01*
X43503329Y-125057030D01*
X43526428Y-125048765D01*
X43550227Y-125042804D01*
X43574495Y-125039204D01*
X43598999Y-125038000D01*
X44249001Y-125038000D01*
X44273505Y-125039204D01*
X44273505Y-125039204D01*
G37*
D15*
X43924000Y-125738000D03*
D14*
G36*
X42223505Y-125039204D02*
X42247773Y-125042804D01*
X42271572Y-125048765D01*
X42294671Y-125057030D01*
X42316850Y-125067520D01*
X42337893Y-125080132D01*
X42357599Y-125094747D01*
X42375777Y-125111223D01*
X42392253Y-125129401D01*
X42406868Y-125149107D01*
X42419480Y-125170150D01*
X42429970Y-125192329D01*
X42438235Y-125215428D01*
X42444196Y-125239227D01*
X42447796Y-125263495D01*
X42449000Y-125287999D01*
X42449000Y-126188001D01*
X42447796Y-126212505D01*
X42444196Y-126236773D01*
X42438235Y-126260572D01*
X42429970Y-126283671D01*
X42419480Y-126305850D01*
X42406868Y-126326893D01*
X42392253Y-126346599D01*
X42375777Y-126364777D01*
X42357599Y-126381253D01*
X42337893Y-126395868D01*
X42316850Y-126408480D01*
X42294671Y-126418970D01*
X42271572Y-126427235D01*
X42247773Y-126433196D01*
X42223505Y-126436796D01*
X42199001Y-126438000D01*
X41548999Y-126438000D01*
X41524495Y-126436796D01*
X41500227Y-126433196D01*
X41476428Y-126427235D01*
X41453329Y-126418970D01*
X41431150Y-126408480D01*
X41410107Y-126395868D01*
X41390401Y-126381253D01*
X41372223Y-126364777D01*
X41355747Y-126346599D01*
X41341132Y-126326893D01*
X41328520Y-126305850D01*
X41318030Y-126283671D01*
X41309765Y-126260572D01*
X41303804Y-126236773D01*
X41300204Y-126212505D01*
X41299000Y-126188001D01*
X41299000Y-125287999D01*
X41300204Y-125263495D01*
X41303804Y-125239227D01*
X41309765Y-125215428D01*
X41318030Y-125192329D01*
X41328520Y-125170150D01*
X41341132Y-125149107D01*
X41355747Y-125129401D01*
X41372223Y-125111223D01*
X41390401Y-125094747D01*
X41410107Y-125080132D01*
X41431150Y-125067520D01*
X41453329Y-125057030D01*
X41476428Y-125048765D01*
X41500227Y-125042804D01*
X41524495Y-125039204D01*
X41548999Y-125038000D01*
X42199001Y-125038000D01*
X42223505Y-125039204D01*
X42223505Y-125039204D01*
G37*
D15*
X41874000Y-125738000D03*
D14*
G36*
X44273505Y-127071204D02*
X44297773Y-127074804D01*
X44321572Y-127080765D01*
X44344671Y-127089030D01*
X44366850Y-127099520D01*
X44387893Y-127112132D01*
X44407599Y-127126747D01*
X44425777Y-127143223D01*
X44442253Y-127161401D01*
X44456868Y-127181107D01*
X44469480Y-127202150D01*
X44479970Y-127224329D01*
X44488235Y-127247428D01*
X44494196Y-127271227D01*
X44497796Y-127295495D01*
X44499000Y-127319999D01*
X44499000Y-128220001D01*
X44497796Y-128244505D01*
X44494196Y-128268773D01*
X44488235Y-128292572D01*
X44479970Y-128315671D01*
X44469480Y-128337850D01*
X44456868Y-128358893D01*
X44442253Y-128378599D01*
X44425777Y-128396777D01*
X44407599Y-128413253D01*
X44387893Y-128427868D01*
X44366850Y-128440480D01*
X44344671Y-128450970D01*
X44321572Y-128459235D01*
X44297773Y-128465196D01*
X44273505Y-128468796D01*
X44249001Y-128470000D01*
X43598999Y-128470000D01*
X43574495Y-128468796D01*
X43550227Y-128465196D01*
X43526428Y-128459235D01*
X43503329Y-128450970D01*
X43481150Y-128440480D01*
X43460107Y-128427868D01*
X43440401Y-128413253D01*
X43422223Y-128396777D01*
X43405747Y-128378599D01*
X43391132Y-128358893D01*
X43378520Y-128337850D01*
X43368030Y-128315671D01*
X43359765Y-128292572D01*
X43353804Y-128268773D01*
X43350204Y-128244505D01*
X43349000Y-128220001D01*
X43349000Y-127319999D01*
X43350204Y-127295495D01*
X43353804Y-127271227D01*
X43359765Y-127247428D01*
X43368030Y-127224329D01*
X43378520Y-127202150D01*
X43391132Y-127181107D01*
X43405747Y-127161401D01*
X43422223Y-127143223D01*
X43440401Y-127126747D01*
X43460107Y-127112132D01*
X43481150Y-127099520D01*
X43503329Y-127089030D01*
X43526428Y-127080765D01*
X43550227Y-127074804D01*
X43574495Y-127071204D01*
X43598999Y-127070000D01*
X44249001Y-127070000D01*
X44273505Y-127071204D01*
X44273505Y-127071204D01*
G37*
D15*
X43924000Y-127770000D03*
D14*
G36*
X42223505Y-127071204D02*
X42247773Y-127074804D01*
X42271572Y-127080765D01*
X42294671Y-127089030D01*
X42316850Y-127099520D01*
X42337893Y-127112132D01*
X42357599Y-127126747D01*
X42375777Y-127143223D01*
X42392253Y-127161401D01*
X42406868Y-127181107D01*
X42419480Y-127202150D01*
X42429970Y-127224329D01*
X42438235Y-127247428D01*
X42444196Y-127271227D01*
X42447796Y-127295495D01*
X42449000Y-127319999D01*
X42449000Y-128220001D01*
X42447796Y-128244505D01*
X42444196Y-128268773D01*
X42438235Y-128292572D01*
X42429970Y-128315671D01*
X42419480Y-128337850D01*
X42406868Y-128358893D01*
X42392253Y-128378599D01*
X42375777Y-128396777D01*
X42357599Y-128413253D01*
X42337893Y-128427868D01*
X42316850Y-128440480D01*
X42294671Y-128450970D01*
X42271572Y-128459235D01*
X42247773Y-128465196D01*
X42223505Y-128468796D01*
X42199001Y-128470000D01*
X41548999Y-128470000D01*
X41524495Y-128468796D01*
X41500227Y-128465196D01*
X41476428Y-128459235D01*
X41453329Y-128450970D01*
X41431150Y-128440480D01*
X41410107Y-128427868D01*
X41390401Y-128413253D01*
X41372223Y-128396777D01*
X41355747Y-128378599D01*
X41341132Y-128358893D01*
X41328520Y-128337850D01*
X41318030Y-128315671D01*
X41309765Y-128292572D01*
X41303804Y-128268773D01*
X41300204Y-128244505D01*
X41299000Y-128220001D01*
X41299000Y-127319999D01*
X41300204Y-127295495D01*
X41303804Y-127271227D01*
X41309765Y-127247428D01*
X41318030Y-127224329D01*
X41328520Y-127202150D01*
X41341132Y-127181107D01*
X41355747Y-127161401D01*
X41372223Y-127143223D01*
X41390401Y-127126747D01*
X41410107Y-127112132D01*
X41431150Y-127099520D01*
X41453329Y-127089030D01*
X41476428Y-127080765D01*
X41500227Y-127074804D01*
X41524495Y-127071204D01*
X41548999Y-127070000D01*
X42199001Y-127070000D01*
X42223505Y-127071204D01*
X42223505Y-127071204D01*
G37*
D15*
X41874000Y-127770000D03*
D14*
G36*
X42241505Y-103195204D02*
X42265773Y-103198804D01*
X42289572Y-103204765D01*
X42312671Y-103213030D01*
X42334850Y-103223520D01*
X42355893Y-103236132D01*
X42375599Y-103250747D01*
X42393777Y-103267223D01*
X42410253Y-103285401D01*
X42424868Y-103305107D01*
X42437480Y-103326150D01*
X42447970Y-103348329D01*
X42456235Y-103371428D01*
X42462196Y-103395227D01*
X42465796Y-103419495D01*
X42467000Y-103443999D01*
X42467000Y-104344001D01*
X42465796Y-104368505D01*
X42462196Y-104392773D01*
X42456235Y-104416572D01*
X42447970Y-104439671D01*
X42437480Y-104461850D01*
X42424868Y-104482893D01*
X42410253Y-104502599D01*
X42393777Y-104520777D01*
X42375599Y-104537253D01*
X42355893Y-104551868D01*
X42334850Y-104564480D01*
X42312671Y-104574970D01*
X42289572Y-104583235D01*
X42265773Y-104589196D01*
X42241505Y-104592796D01*
X42217001Y-104594000D01*
X41566999Y-104594000D01*
X41542495Y-104592796D01*
X41518227Y-104589196D01*
X41494428Y-104583235D01*
X41471329Y-104574970D01*
X41449150Y-104564480D01*
X41428107Y-104551868D01*
X41408401Y-104537253D01*
X41390223Y-104520777D01*
X41373747Y-104502599D01*
X41359132Y-104482893D01*
X41346520Y-104461850D01*
X41336030Y-104439671D01*
X41327765Y-104416572D01*
X41321804Y-104392773D01*
X41318204Y-104368505D01*
X41317000Y-104344001D01*
X41317000Y-103443999D01*
X41318204Y-103419495D01*
X41321804Y-103395227D01*
X41327765Y-103371428D01*
X41336030Y-103348329D01*
X41346520Y-103326150D01*
X41359132Y-103305107D01*
X41373747Y-103285401D01*
X41390223Y-103267223D01*
X41408401Y-103250747D01*
X41428107Y-103236132D01*
X41449150Y-103223520D01*
X41471329Y-103213030D01*
X41494428Y-103204765D01*
X41518227Y-103198804D01*
X41542495Y-103195204D01*
X41566999Y-103194000D01*
X42217001Y-103194000D01*
X42241505Y-103195204D01*
X42241505Y-103195204D01*
G37*
D15*
X41892000Y-103894000D03*
D14*
G36*
X44291505Y-103195204D02*
X44315773Y-103198804D01*
X44339572Y-103204765D01*
X44362671Y-103213030D01*
X44384850Y-103223520D01*
X44405893Y-103236132D01*
X44425599Y-103250747D01*
X44443777Y-103267223D01*
X44460253Y-103285401D01*
X44474868Y-103305107D01*
X44487480Y-103326150D01*
X44497970Y-103348329D01*
X44506235Y-103371428D01*
X44512196Y-103395227D01*
X44515796Y-103419495D01*
X44517000Y-103443999D01*
X44517000Y-104344001D01*
X44515796Y-104368505D01*
X44512196Y-104392773D01*
X44506235Y-104416572D01*
X44497970Y-104439671D01*
X44487480Y-104461850D01*
X44474868Y-104482893D01*
X44460253Y-104502599D01*
X44443777Y-104520777D01*
X44425599Y-104537253D01*
X44405893Y-104551868D01*
X44384850Y-104564480D01*
X44362671Y-104574970D01*
X44339572Y-104583235D01*
X44315773Y-104589196D01*
X44291505Y-104592796D01*
X44267001Y-104594000D01*
X43616999Y-104594000D01*
X43592495Y-104592796D01*
X43568227Y-104589196D01*
X43544428Y-104583235D01*
X43521329Y-104574970D01*
X43499150Y-104564480D01*
X43478107Y-104551868D01*
X43458401Y-104537253D01*
X43440223Y-104520777D01*
X43423747Y-104502599D01*
X43409132Y-104482893D01*
X43396520Y-104461850D01*
X43386030Y-104439671D01*
X43377765Y-104416572D01*
X43371804Y-104392773D01*
X43368204Y-104368505D01*
X43367000Y-104344001D01*
X43367000Y-103443999D01*
X43368204Y-103419495D01*
X43371804Y-103395227D01*
X43377765Y-103371428D01*
X43386030Y-103348329D01*
X43396520Y-103326150D01*
X43409132Y-103305107D01*
X43423747Y-103285401D01*
X43440223Y-103267223D01*
X43458401Y-103250747D01*
X43478107Y-103236132D01*
X43499150Y-103223520D01*
X43521329Y-103213030D01*
X43544428Y-103204765D01*
X43568227Y-103198804D01*
X43592495Y-103195204D01*
X43616999Y-103194000D01*
X44267001Y-103194000D01*
X44291505Y-103195204D01*
X44291505Y-103195204D01*
G37*
D15*
X43942000Y-103894000D03*
D14*
G36*
X44273505Y-99131204D02*
X44297773Y-99134804D01*
X44321572Y-99140765D01*
X44344671Y-99149030D01*
X44366850Y-99159520D01*
X44387893Y-99172132D01*
X44407599Y-99186747D01*
X44425777Y-99203223D01*
X44442253Y-99221401D01*
X44456868Y-99241107D01*
X44469480Y-99262150D01*
X44479970Y-99284329D01*
X44488235Y-99307428D01*
X44494196Y-99331227D01*
X44497796Y-99355495D01*
X44499000Y-99379999D01*
X44499000Y-100280001D01*
X44497796Y-100304505D01*
X44494196Y-100328773D01*
X44488235Y-100352572D01*
X44479970Y-100375671D01*
X44469480Y-100397850D01*
X44456868Y-100418893D01*
X44442253Y-100438599D01*
X44425777Y-100456777D01*
X44407599Y-100473253D01*
X44387893Y-100487868D01*
X44366850Y-100500480D01*
X44344671Y-100510970D01*
X44321572Y-100519235D01*
X44297773Y-100525196D01*
X44273505Y-100528796D01*
X44249001Y-100530000D01*
X43598999Y-100530000D01*
X43574495Y-100528796D01*
X43550227Y-100525196D01*
X43526428Y-100519235D01*
X43503329Y-100510970D01*
X43481150Y-100500480D01*
X43460107Y-100487868D01*
X43440401Y-100473253D01*
X43422223Y-100456777D01*
X43405747Y-100438599D01*
X43391132Y-100418893D01*
X43378520Y-100397850D01*
X43368030Y-100375671D01*
X43359765Y-100352572D01*
X43353804Y-100328773D01*
X43350204Y-100304505D01*
X43349000Y-100280001D01*
X43349000Y-99379999D01*
X43350204Y-99355495D01*
X43353804Y-99331227D01*
X43359765Y-99307428D01*
X43368030Y-99284329D01*
X43378520Y-99262150D01*
X43391132Y-99241107D01*
X43405747Y-99221401D01*
X43422223Y-99203223D01*
X43440401Y-99186747D01*
X43460107Y-99172132D01*
X43481150Y-99159520D01*
X43503329Y-99149030D01*
X43526428Y-99140765D01*
X43550227Y-99134804D01*
X43574495Y-99131204D01*
X43598999Y-99130000D01*
X44249001Y-99130000D01*
X44273505Y-99131204D01*
X44273505Y-99131204D01*
G37*
D15*
X43924000Y-99830000D03*
D14*
G36*
X42223505Y-99131204D02*
X42247773Y-99134804D01*
X42271572Y-99140765D01*
X42294671Y-99149030D01*
X42316850Y-99159520D01*
X42337893Y-99172132D01*
X42357599Y-99186747D01*
X42375777Y-99203223D01*
X42392253Y-99221401D01*
X42406868Y-99241107D01*
X42419480Y-99262150D01*
X42429970Y-99284329D01*
X42438235Y-99307428D01*
X42444196Y-99331227D01*
X42447796Y-99355495D01*
X42449000Y-99379999D01*
X42449000Y-100280001D01*
X42447796Y-100304505D01*
X42444196Y-100328773D01*
X42438235Y-100352572D01*
X42429970Y-100375671D01*
X42419480Y-100397850D01*
X42406868Y-100418893D01*
X42392253Y-100438599D01*
X42375777Y-100456777D01*
X42357599Y-100473253D01*
X42337893Y-100487868D01*
X42316850Y-100500480D01*
X42294671Y-100510970D01*
X42271572Y-100519235D01*
X42247773Y-100525196D01*
X42223505Y-100528796D01*
X42199001Y-100530000D01*
X41548999Y-100530000D01*
X41524495Y-100528796D01*
X41500227Y-100525196D01*
X41476428Y-100519235D01*
X41453329Y-100510970D01*
X41431150Y-100500480D01*
X41410107Y-100487868D01*
X41390401Y-100473253D01*
X41372223Y-100456777D01*
X41355747Y-100438599D01*
X41341132Y-100418893D01*
X41328520Y-100397850D01*
X41318030Y-100375671D01*
X41309765Y-100352572D01*
X41303804Y-100328773D01*
X41300204Y-100304505D01*
X41299000Y-100280001D01*
X41299000Y-99379999D01*
X41300204Y-99355495D01*
X41303804Y-99331227D01*
X41309765Y-99307428D01*
X41318030Y-99284329D01*
X41328520Y-99262150D01*
X41341132Y-99241107D01*
X41355747Y-99221401D01*
X41372223Y-99203223D01*
X41390401Y-99186747D01*
X41410107Y-99172132D01*
X41431150Y-99159520D01*
X41453329Y-99149030D01*
X41476428Y-99140765D01*
X41500227Y-99134804D01*
X41524495Y-99131204D01*
X41548999Y-99130000D01*
X42199001Y-99130000D01*
X42223505Y-99131204D01*
X42223505Y-99131204D01*
G37*
D15*
X41874000Y-99830000D03*
D14*
G36*
X42241505Y-95067204D02*
X42265773Y-95070804D01*
X42289572Y-95076765D01*
X42312671Y-95085030D01*
X42334850Y-95095520D01*
X42355893Y-95108132D01*
X42375599Y-95122747D01*
X42393777Y-95139223D01*
X42410253Y-95157401D01*
X42424868Y-95177107D01*
X42437480Y-95198150D01*
X42447970Y-95220329D01*
X42456235Y-95243428D01*
X42462196Y-95267227D01*
X42465796Y-95291495D01*
X42467000Y-95315999D01*
X42467000Y-96216001D01*
X42465796Y-96240505D01*
X42462196Y-96264773D01*
X42456235Y-96288572D01*
X42447970Y-96311671D01*
X42437480Y-96333850D01*
X42424868Y-96354893D01*
X42410253Y-96374599D01*
X42393777Y-96392777D01*
X42375599Y-96409253D01*
X42355893Y-96423868D01*
X42334850Y-96436480D01*
X42312671Y-96446970D01*
X42289572Y-96455235D01*
X42265773Y-96461196D01*
X42241505Y-96464796D01*
X42217001Y-96466000D01*
X41566999Y-96466000D01*
X41542495Y-96464796D01*
X41518227Y-96461196D01*
X41494428Y-96455235D01*
X41471329Y-96446970D01*
X41449150Y-96436480D01*
X41428107Y-96423868D01*
X41408401Y-96409253D01*
X41390223Y-96392777D01*
X41373747Y-96374599D01*
X41359132Y-96354893D01*
X41346520Y-96333850D01*
X41336030Y-96311671D01*
X41327765Y-96288572D01*
X41321804Y-96264773D01*
X41318204Y-96240505D01*
X41317000Y-96216001D01*
X41317000Y-95315999D01*
X41318204Y-95291495D01*
X41321804Y-95267227D01*
X41327765Y-95243428D01*
X41336030Y-95220329D01*
X41346520Y-95198150D01*
X41359132Y-95177107D01*
X41373747Y-95157401D01*
X41390223Y-95139223D01*
X41408401Y-95122747D01*
X41428107Y-95108132D01*
X41449150Y-95095520D01*
X41471329Y-95085030D01*
X41494428Y-95076765D01*
X41518227Y-95070804D01*
X41542495Y-95067204D01*
X41566999Y-95066000D01*
X42217001Y-95066000D01*
X42241505Y-95067204D01*
X42241505Y-95067204D01*
G37*
D15*
X41892000Y-95766000D03*
D14*
G36*
X44291505Y-95067204D02*
X44315773Y-95070804D01*
X44339572Y-95076765D01*
X44362671Y-95085030D01*
X44384850Y-95095520D01*
X44405893Y-95108132D01*
X44425599Y-95122747D01*
X44443777Y-95139223D01*
X44460253Y-95157401D01*
X44474868Y-95177107D01*
X44487480Y-95198150D01*
X44497970Y-95220329D01*
X44506235Y-95243428D01*
X44512196Y-95267227D01*
X44515796Y-95291495D01*
X44517000Y-95315999D01*
X44517000Y-96216001D01*
X44515796Y-96240505D01*
X44512196Y-96264773D01*
X44506235Y-96288572D01*
X44497970Y-96311671D01*
X44487480Y-96333850D01*
X44474868Y-96354893D01*
X44460253Y-96374599D01*
X44443777Y-96392777D01*
X44425599Y-96409253D01*
X44405893Y-96423868D01*
X44384850Y-96436480D01*
X44362671Y-96446970D01*
X44339572Y-96455235D01*
X44315773Y-96461196D01*
X44291505Y-96464796D01*
X44267001Y-96466000D01*
X43616999Y-96466000D01*
X43592495Y-96464796D01*
X43568227Y-96461196D01*
X43544428Y-96455235D01*
X43521329Y-96446970D01*
X43499150Y-96436480D01*
X43478107Y-96423868D01*
X43458401Y-96409253D01*
X43440223Y-96392777D01*
X43423747Y-96374599D01*
X43409132Y-96354893D01*
X43396520Y-96333850D01*
X43386030Y-96311671D01*
X43377765Y-96288572D01*
X43371804Y-96264773D01*
X43368204Y-96240505D01*
X43367000Y-96216001D01*
X43367000Y-95315999D01*
X43368204Y-95291495D01*
X43371804Y-95267227D01*
X43377765Y-95243428D01*
X43386030Y-95220329D01*
X43396520Y-95198150D01*
X43409132Y-95177107D01*
X43423747Y-95157401D01*
X43440223Y-95139223D01*
X43458401Y-95122747D01*
X43478107Y-95108132D01*
X43499150Y-95095520D01*
X43521329Y-95085030D01*
X43544428Y-95076765D01*
X43568227Y-95070804D01*
X43592495Y-95067204D01*
X43616999Y-95066000D01*
X44267001Y-95066000D01*
X44291505Y-95067204D01*
X44291505Y-95067204D01*
G37*
D15*
X43942000Y-95766000D03*
D14*
G36*
X44291505Y-93035204D02*
X44315773Y-93038804D01*
X44339572Y-93044765D01*
X44362671Y-93053030D01*
X44384850Y-93063520D01*
X44405893Y-93076132D01*
X44425599Y-93090747D01*
X44443777Y-93107223D01*
X44460253Y-93125401D01*
X44474868Y-93145107D01*
X44487480Y-93166150D01*
X44497970Y-93188329D01*
X44506235Y-93211428D01*
X44512196Y-93235227D01*
X44515796Y-93259495D01*
X44517000Y-93283999D01*
X44517000Y-94184001D01*
X44515796Y-94208505D01*
X44512196Y-94232773D01*
X44506235Y-94256572D01*
X44497970Y-94279671D01*
X44487480Y-94301850D01*
X44474868Y-94322893D01*
X44460253Y-94342599D01*
X44443777Y-94360777D01*
X44425599Y-94377253D01*
X44405893Y-94391868D01*
X44384850Y-94404480D01*
X44362671Y-94414970D01*
X44339572Y-94423235D01*
X44315773Y-94429196D01*
X44291505Y-94432796D01*
X44267001Y-94434000D01*
X43616999Y-94434000D01*
X43592495Y-94432796D01*
X43568227Y-94429196D01*
X43544428Y-94423235D01*
X43521329Y-94414970D01*
X43499150Y-94404480D01*
X43478107Y-94391868D01*
X43458401Y-94377253D01*
X43440223Y-94360777D01*
X43423747Y-94342599D01*
X43409132Y-94322893D01*
X43396520Y-94301850D01*
X43386030Y-94279671D01*
X43377765Y-94256572D01*
X43371804Y-94232773D01*
X43368204Y-94208505D01*
X43367000Y-94184001D01*
X43367000Y-93283999D01*
X43368204Y-93259495D01*
X43371804Y-93235227D01*
X43377765Y-93211428D01*
X43386030Y-93188329D01*
X43396520Y-93166150D01*
X43409132Y-93145107D01*
X43423747Y-93125401D01*
X43440223Y-93107223D01*
X43458401Y-93090747D01*
X43478107Y-93076132D01*
X43499150Y-93063520D01*
X43521329Y-93053030D01*
X43544428Y-93044765D01*
X43568227Y-93038804D01*
X43592495Y-93035204D01*
X43616999Y-93034000D01*
X44267001Y-93034000D01*
X44291505Y-93035204D01*
X44291505Y-93035204D01*
G37*
D15*
X43942000Y-93734000D03*
D14*
G36*
X42241505Y-93035204D02*
X42265773Y-93038804D01*
X42289572Y-93044765D01*
X42312671Y-93053030D01*
X42334850Y-93063520D01*
X42355893Y-93076132D01*
X42375599Y-93090747D01*
X42393777Y-93107223D01*
X42410253Y-93125401D01*
X42424868Y-93145107D01*
X42437480Y-93166150D01*
X42447970Y-93188329D01*
X42456235Y-93211428D01*
X42462196Y-93235227D01*
X42465796Y-93259495D01*
X42467000Y-93283999D01*
X42467000Y-94184001D01*
X42465796Y-94208505D01*
X42462196Y-94232773D01*
X42456235Y-94256572D01*
X42447970Y-94279671D01*
X42437480Y-94301850D01*
X42424868Y-94322893D01*
X42410253Y-94342599D01*
X42393777Y-94360777D01*
X42375599Y-94377253D01*
X42355893Y-94391868D01*
X42334850Y-94404480D01*
X42312671Y-94414970D01*
X42289572Y-94423235D01*
X42265773Y-94429196D01*
X42241505Y-94432796D01*
X42217001Y-94434000D01*
X41566999Y-94434000D01*
X41542495Y-94432796D01*
X41518227Y-94429196D01*
X41494428Y-94423235D01*
X41471329Y-94414970D01*
X41449150Y-94404480D01*
X41428107Y-94391868D01*
X41408401Y-94377253D01*
X41390223Y-94360777D01*
X41373747Y-94342599D01*
X41359132Y-94322893D01*
X41346520Y-94301850D01*
X41336030Y-94279671D01*
X41327765Y-94256572D01*
X41321804Y-94232773D01*
X41318204Y-94208505D01*
X41317000Y-94184001D01*
X41317000Y-93283999D01*
X41318204Y-93259495D01*
X41321804Y-93235227D01*
X41327765Y-93211428D01*
X41336030Y-93188329D01*
X41346520Y-93166150D01*
X41359132Y-93145107D01*
X41373747Y-93125401D01*
X41390223Y-93107223D01*
X41408401Y-93090747D01*
X41428107Y-93076132D01*
X41449150Y-93063520D01*
X41471329Y-93053030D01*
X41494428Y-93044765D01*
X41518227Y-93038804D01*
X41542495Y-93035204D01*
X41566999Y-93034000D01*
X42217001Y-93034000D01*
X42241505Y-93035204D01*
X42241505Y-93035204D01*
G37*
D15*
X41892000Y-93734000D03*
D14*
G36*
X42241505Y-88971204D02*
X42265773Y-88974804D01*
X42289572Y-88980765D01*
X42312671Y-88989030D01*
X42334850Y-88999520D01*
X42355893Y-89012132D01*
X42375599Y-89026747D01*
X42393777Y-89043223D01*
X42410253Y-89061401D01*
X42424868Y-89081107D01*
X42437480Y-89102150D01*
X42447970Y-89124329D01*
X42456235Y-89147428D01*
X42462196Y-89171227D01*
X42465796Y-89195495D01*
X42467000Y-89219999D01*
X42467000Y-90120001D01*
X42465796Y-90144505D01*
X42462196Y-90168773D01*
X42456235Y-90192572D01*
X42447970Y-90215671D01*
X42437480Y-90237850D01*
X42424868Y-90258893D01*
X42410253Y-90278599D01*
X42393777Y-90296777D01*
X42375599Y-90313253D01*
X42355893Y-90327868D01*
X42334850Y-90340480D01*
X42312671Y-90350970D01*
X42289572Y-90359235D01*
X42265773Y-90365196D01*
X42241505Y-90368796D01*
X42217001Y-90370000D01*
X41566999Y-90370000D01*
X41542495Y-90368796D01*
X41518227Y-90365196D01*
X41494428Y-90359235D01*
X41471329Y-90350970D01*
X41449150Y-90340480D01*
X41428107Y-90327868D01*
X41408401Y-90313253D01*
X41390223Y-90296777D01*
X41373747Y-90278599D01*
X41359132Y-90258893D01*
X41346520Y-90237850D01*
X41336030Y-90215671D01*
X41327765Y-90192572D01*
X41321804Y-90168773D01*
X41318204Y-90144505D01*
X41317000Y-90120001D01*
X41317000Y-89219999D01*
X41318204Y-89195495D01*
X41321804Y-89171227D01*
X41327765Y-89147428D01*
X41336030Y-89124329D01*
X41346520Y-89102150D01*
X41359132Y-89081107D01*
X41373747Y-89061401D01*
X41390223Y-89043223D01*
X41408401Y-89026747D01*
X41428107Y-89012132D01*
X41449150Y-88999520D01*
X41471329Y-88989030D01*
X41494428Y-88980765D01*
X41518227Y-88974804D01*
X41542495Y-88971204D01*
X41566999Y-88970000D01*
X42217001Y-88970000D01*
X42241505Y-88971204D01*
X42241505Y-88971204D01*
G37*
D15*
X41892000Y-89670000D03*
D14*
G36*
X44291505Y-88971204D02*
X44315773Y-88974804D01*
X44339572Y-88980765D01*
X44362671Y-88989030D01*
X44384850Y-88999520D01*
X44405893Y-89012132D01*
X44425599Y-89026747D01*
X44443777Y-89043223D01*
X44460253Y-89061401D01*
X44474868Y-89081107D01*
X44487480Y-89102150D01*
X44497970Y-89124329D01*
X44506235Y-89147428D01*
X44512196Y-89171227D01*
X44515796Y-89195495D01*
X44517000Y-89219999D01*
X44517000Y-90120001D01*
X44515796Y-90144505D01*
X44512196Y-90168773D01*
X44506235Y-90192572D01*
X44497970Y-90215671D01*
X44487480Y-90237850D01*
X44474868Y-90258893D01*
X44460253Y-90278599D01*
X44443777Y-90296777D01*
X44425599Y-90313253D01*
X44405893Y-90327868D01*
X44384850Y-90340480D01*
X44362671Y-90350970D01*
X44339572Y-90359235D01*
X44315773Y-90365196D01*
X44291505Y-90368796D01*
X44267001Y-90370000D01*
X43616999Y-90370000D01*
X43592495Y-90368796D01*
X43568227Y-90365196D01*
X43544428Y-90359235D01*
X43521329Y-90350970D01*
X43499150Y-90340480D01*
X43478107Y-90327868D01*
X43458401Y-90313253D01*
X43440223Y-90296777D01*
X43423747Y-90278599D01*
X43409132Y-90258893D01*
X43396520Y-90237850D01*
X43386030Y-90215671D01*
X43377765Y-90192572D01*
X43371804Y-90168773D01*
X43368204Y-90144505D01*
X43367000Y-90120001D01*
X43367000Y-89219999D01*
X43368204Y-89195495D01*
X43371804Y-89171227D01*
X43377765Y-89147428D01*
X43386030Y-89124329D01*
X43396520Y-89102150D01*
X43409132Y-89081107D01*
X43423747Y-89061401D01*
X43440223Y-89043223D01*
X43458401Y-89026747D01*
X43478107Y-89012132D01*
X43499150Y-88999520D01*
X43521329Y-88989030D01*
X43544428Y-88980765D01*
X43568227Y-88974804D01*
X43592495Y-88971204D01*
X43616999Y-88970000D01*
X44267001Y-88970000D01*
X44291505Y-88971204D01*
X44291505Y-88971204D01*
G37*
D15*
X43942000Y-89670000D03*
D14*
G36*
X42232505Y-97099204D02*
X42256773Y-97102804D01*
X42280572Y-97108765D01*
X42303671Y-97117030D01*
X42325850Y-97127520D01*
X42346893Y-97140132D01*
X42366599Y-97154747D01*
X42384777Y-97171223D01*
X42401253Y-97189401D01*
X42415868Y-97209107D01*
X42428480Y-97230150D01*
X42438970Y-97252329D01*
X42447235Y-97275428D01*
X42453196Y-97299227D01*
X42456796Y-97323495D01*
X42458000Y-97347999D01*
X42458000Y-98248001D01*
X42456796Y-98272505D01*
X42453196Y-98296773D01*
X42447235Y-98320572D01*
X42438970Y-98343671D01*
X42428480Y-98365850D01*
X42415868Y-98386893D01*
X42401253Y-98406599D01*
X42384777Y-98424777D01*
X42366599Y-98441253D01*
X42346893Y-98455868D01*
X42325850Y-98468480D01*
X42303671Y-98478970D01*
X42280572Y-98487235D01*
X42256773Y-98493196D01*
X42232505Y-98496796D01*
X42208001Y-98498000D01*
X41557999Y-98498000D01*
X41533495Y-98496796D01*
X41509227Y-98493196D01*
X41485428Y-98487235D01*
X41462329Y-98478970D01*
X41440150Y-98468480D01*
X41419107Y-98455868D01*
X41399401Y-98441253D01*
X41381223Y-98424777D01*
X41364747Y-98406599D01*
X41350132Y-98386893D01*
X41337520Y-98365850D01*
X41327030Y-98343671D01*
X41318765Y-98320572D01*
X41312804Y-98296773D01*
X41309204Y-98272505D01*
X41308000Y-98248001D01*
X41308000Y-97347999D01*
X41309204Y-97323495D01*
X41312804Y-97299227D01*
X41318765Y-97275428D01*
X41327030Y-97252329D01*
X41337520Y-97230150D01*
X41350132Y-97209107D01*
X41364747Y-97189401D01*
X41381223Y-97171223D01*
X41399401Y-97154747D01*
X41419107Y-97140132D01*
X41440150Y-97127520D01*
X41462329Y-97117030D01*
X41485428Y-97108765D01*
X41509227Y-97102804D01*
X41533495Y-97099204D01*
X41557999Y-97098000D01*
X42208001Y-97098000D01*
X42232505Y-97099204D01*
X42232505Y-97099204D01*
G37*
D15*
X41883000Y-97798000D03*
D14*
G36*
X44282505Y-97099204D02*
X44306773Y-97102804D01*
X44330572Y-97108765D01*
X44353671Y-97117030D01*
X44375850Y-97127520D01*
X44396893Y-97140132D01*
X44416599Y-97154747D01*
X44434777Y-97171223D01*
X44451253Y-97189401D01*
X44465868Y-97209107D01*
X44478480Y-97230150D01*
X44488970Y-97252329D01*
X44497235Y-97275428D01*
X44503196Y-97299227D01*
X44506796Y-97323495D01*
X44508000Y-97347999D01*
X44508000Y-98248001D01*
X44506796Y-98272505D01*
X44503196Y-98296773D01*
X44497235Y-98320572D01*
X44488970Y-98343671D01*
X44478480Y-98365850D01*
X44465868Y-98386893D01*
X44451253Y-98406599D01*
X44434777Y-98424777D01*
X44416599Y-98441253D01*
X44396893Y-98455868D01*
X44375850Y-98468480D01*
X44353671Y-98478970D01*
X44330572Y-98487235D01*
X44306773Y-98493196D01*
X44282505Y-98496796D01*
X44258001Y-98498000D01*
X43607999Y-98498000D01*
X43583495Y-98496796D01*
X43559227Y-98493196D01*
X43535428Y-98487235D01*
X43512329Y-98478970D01*
X43490150Y-98468480D01*
X43469107Y-98455868D01*
X43449401Y-98441253D01*
X43431223Y-98424777D01*
X43414747Y-98406599D01*
X43400132Y-98386893D01*
X43387520Y-98365850D01*
X43377030Y-98343671D01*
X43368765Y-98320572D01*
X43362804Y-98296773D01*
X43359204Y-98272505D01*
X43358000Y-98248001D01*
X43358000Y-97347999D01*
X43359204Y-97323495D01*
X43362804Y-97299227D01*
X43368765Y-97275428D01*
X43377030Y-97252329D01*
X43387520Y-97230150D01*
X43400132Y-97209107D01*
X43414747Y-97189401D01*
X43431223Y-97171223D01*
X43449401Y-97154747D01*
X43469107Y-97140132D01*
X43490150Y-97127520D01*
X43512329Y-97117030D01*
X43535428Y-97108765D01*
X43559227Y-97102804D01*
X43583495Y-97099204D01*
X43607999Y-97098000D01*
X44258001Y-97098000D01*
X44282505Y-97099204D01*
X44282505Y-97099204D01*
G37*
D15*
X43933000Y-97798000D03*
D14*
G36*
X42223505Y-101163204D02*
X42247773Y-101166804D01*
X42271572Y-101172765D01*
X42294671Y-101181030D01*
X42316850Y-101191520D01*
X42337893Y-101204132D01*
X42357599Y-101218747D01*
X42375777Y-101235223D01*
X42392253Y-101253401D01*
X42406868Y-101273107D01*
X42419480Y-101294150D01*
X42429970Y-101316329D01*
X42438235Y-101339428D01*
X42444196Y-101363227D01*
X42447796Y-101387495D01*
X42449000Y-101411999D01*
X42449000Y-102312001D01*
X42447796Y-102336505D01*
X42444196Y-102360773D01*
X42438235Y-102384572D01*
X42429970Y-102407671D01*
X42419480Y-102429850D01*
X42406868Y-102450893D01*
X42392253Y-102470599D01*
X42375777Y-102488777D01*
X42357599Y-102505253D01*
X42337893Y-102519868D01*
X42316850Y-102532480D01*
X42294671Y-102542970D01*
X42271572Y-102551235D01*
X42247773Y-102557196D01*
X42223505Y-102560796D01*
X42199001Y-102562000D01*
X41548999Y-102562000D01*
X41524495Y-102560796D01*
X41500227Y-102557196D01*
X41476428Y-102551235D01*
X41453329Y-102542970D01*
X41431150Y-102532480D01*
X41410107Y-102519868D01*
X41390401Y-102505253D01*
X41372223Y-102488777D01*
X41355747Y-102470599D01*
X41341132Y-102450893D01*
X41328520Y-102429850D01*
X41318030Y-102407671D01*
X41309765Y-102384572D01*
X41303804Y-102360773D01*
X41300204Y-102336505D01*
X41299000Y-102312001D01*
X41299000Y-101411999D01*
X41300204Y-101387495D01*
X41303804Y-101363227D01*
X41309765Y-101339428D01*
X41318030Y-101316329D01*
X41328520Y-101294150D01*
X41341132Y-101273107D01*
X41355747Y-101253401D01*
X41372223Y-101235223D01*
X41390401Y-101218747D01*
X41410107Y-101204132D01*
X41431150Y-101191520D01*
X41453329Y-101181030D01*
X41476428Y-101172765D01*
X41500227Y-101166804D01*
X41524495Y-101163204D01*
X41548999Y-101162000D01*
X42199001Y-101162000D01*
X42223505Y-101163204D01*
X42223505Y-101163204D01*
G37*
D15*
X41874000Y-101862000D03*
D14*
G36*
X44273505Y-101163204D02*
X44297773Y-101166804D01*
X44321572Y-101172765D01*
X44344671Y-101181030D01*
X44366850Y-101191520D01*
X44387893Y-101204132D01*
X44407599Y-101218747D01*
X44425777Y-101235223D01*
X44442253Y-101253401D01*
X44456868Y-101273107D01*
X44469480Y-101294150D01*
X44479970Y-101316329D01*
X44488235Y-101339428D01*
X44494196Y-101363227D01*
X44497796Y-101387495D01*
X44499000Y-101411999D01*
X44499000Y-102312001D01*
X44497796Y-102336505D01*
X44494196Y-102360773D01*
X44488235Y-102384572D01*
X44479970Y-102407671D01*
X44469480Y-102429850D01*
X44456868Y-102450893D01*
X44442253Y-102470599D01*
X44425777Y-102488777D01*
X44407599Y-102505253D01*
X44387893Y-102519868D01*
X44366850Y-102532480D01*
X44344671Y-102542970D01*
X44321572Y-102551235D01*
X44297773Y-102557196D01*
X44273505Y-102560796D01*
X44249001Y-102562000D01*
X43598999Y-102562000D01*
X43574495Y-102560796D01*
X43550227Y-102557196D01*
X43526428Y-102551235D01*
X43503329Y-102542970D01*
X43481150Y-102532480D01*
X43460107Y-102519868D01*
X43440401Y-102505253D01*
X43422223Y-102488777D01*
X43405747Y-102470599D01*
X43391132Y-102450893D01*
X43378520Y-102429850D01*
X43368030Y-102407671D01*
X43359765Y-102384572D01*
X43353804Y-102360773D01*
X43350204Y-102336505D01*
X43349000Y-102312001D01*
X43349000Y-101411999D01*
X43350204Y-101387495D01*
X43353804Y-101363227D01*
X43359765Y-101339428D01*
X43368030Y-101316329D01*
X43378520Y-101294150D01*
X43391132Y-101273107D01*
X43405747Y-101253401D01*
X43422223Y-101235223D01*
X43440401Y-101218747D01*
X43460107Y-101204132D01*
X43481150Y-101191520D01*
X43503329Y-101181030D01*
X43526428Y-101172765D01*
X43550227Y-101166804D01*
X43574495Y-101163204D01*
X43598999Y-101162000D01*
X44249001Y-101162000D01*
X44273505Y-101163204D01*
X44273505Y-101163204D01*
G37*
D15*
X43924000Y-101862000D03*
D14*
G36*
X44291505Y-86939204D02*
X44315773Y-86942804D01*
X44339572Y-86948765D01*
X44362671Y-86957030D01*
X44384850Y-86967520D01*
X44405893Y-86980132D01*
X44425599Y-86994747D01*
X44443777Y-87011223D01*
X44460253Y-87029401D01*
X44474868Y-87049107D01*
X44487480Y-87070150D01*
X44497970Y-87092329D01*
X44506235Y-87115428D01*
X44512196Y-87139227D01*
X44515796Y-87163495D01*
X44517000Y-87187999D01*
X44517000Y-88088001D01*
X44515796Y-88112505D01*
X44512196Y-88136773D01*
X44506235Y-88160572D01*
X44497970Y-88183671D01*
X44487480Y-88205850D01*
X44474868Y-88226893D01*
X44460253Y-88246599D01*
X44443777Y-88264777D01*
X44425599Y-88281253D01*
X44405893Y-88295868D01*
X44384850Y-88308480D01*
X44362671Y-88318970D01*
X44339572Y-88327235D01*
X44315773Y-88333196D01*
X44291505Y-88336796D01*
X44267001Y-88338000D01*
X43616999Y-88338000D01*
X43592495Y-88336796D01*
X43568227Y-88333196D01*
X43544428Y-88327235D01*
X43521329Y-88318970D01*
X43499150Y-88308480D01*
X43478107Y-88295868D01*
X43458401Y-88281253D01*
X43440223Y-88264777D01*
X43423747Y-88246599D01*
X43409132Y-88226893D01*
X43396520Y-88205850D01*
X43386030Y-88183671D01*
X43377765Y-88160572D01*
X43371804Y-88136773D01*
X43368204Y-88112505D01*
X43367000Y-88088001D01*
X43367000Y-87187999D01*
X43368204Y-87163495D01*
X43371804Y-87139227D01*
X43377765Y-87115428D01*
X43386030Y-87092329D01*
X43396520Y-87070150D01*
X43409132Y-87049107D01*
X43423747Y-87029401D01*
X43440223Y-87011223D01*
X43458401Y-86994747D01*
X43478107Y-86980132D01*
X43499150Y-86967520D01*
X43521329Y-86957030D01*
X43544428Y-86948765D01*
X43568227Y-86942804D01*
X43592495Y-86939204D01*
X43616999Y-86938000D01*
X44267001Y-86938000D01*
X44291505Y-86939204D01*
X44291505Y-86939204D01*
G37*
D15*
X43942000Y-87638000D03*
D14*
G36*
X42241505Y-86939204D02*
X42265773Y-86942804D01*
X42289572Y-86948765D01*
X42312671Y-86957030D01*
X42334850Y-86967520D01*
X42355893Y-86980132D01*
X42375599Y-86994747D01*
X42393777Y-87011223D01*
X42410253Y-87029401D01*
X42424868Y-87049107D01*
X42437480Y-87070150D01*
X42447970Y-87092329D01*
X42456235Y-87115428D01*
X42462196Y-87139227D01*
X42465796Y-87163495D01*
X42467000Y-87187999D01*
X42467000Y-88088001D01*
X42465796Y-88112505D01*
X42462196Y-88136773D01*
X42456235Y-88160572D01*
X42447970Y-88183671D01*
X42437480Y-88205850D01*
X42424868Y-88226893D01*
X42410253Y-88246599D01*
X42393777Y-88264777D01*
X42375599Y-88281253D01*
X42355893Y-88295868D01*
X42334850Y-88308480D01*
X42312671Y-88318970D01*
X42289572Y-88327235D01*
X42265773Y-88333196D01*
X42241505Y-88336796D01*
X42217001Y-88338000D01*
X41566999Y-88338000D01*
X41542495Y-88336796D01*
X41518227Y-88333196D01*
X41494428Y-88327235D01*
X41471329Y-88318970D01*
X41449150Y-88308480D01*
X41428107Y-88295868D01*
X41408401Y-88281253D01*
X41390223Y-88264777D01*
X41373747Y-88246599D01*
X41359132Y-88226893D01*
X41346520Y-88205850D01*
X41336030Y-88183671D01*
X41327765Y-88160572D01*
X41321804Y-88136773D01*
X41318204Y-88112505D01*
X41317000Y-88088001D01*
X41317000Y-87187999D01*
X41318204Y-87163495D01*
X41321804Y-87139227D01*
X41327765Y-87115428D01*
X41336030Y-87092329D01*
X41346520Y-87070150D01*
X41359132Y-87049107D01*
X41373747Y-87029401D01*
X41390223Y-87011223D01*
X41408401Y-86994747D01*
X41428107Y-86980132D01*
X41449150Y-86967520D01*
X41471329Y-86957030D01*
X41494428Y-86948765D01*
X41518227Y-86942804D01*
X41542495Y-86939204D01*
X41566999Y-86938000D01*
X42217001Y-86938000D01*
X42241505Y-86939204D01*
X42241505Y-86939204D01*
G37*
D15*
X41892000Y-87638000D03*
D14*
G36*
X44291505Y-116911204D02*
X44315773Y-116914804D01*
X44339572Y-116920765D01*
X44362671Y-116929030D01*
X44384850Y-116939520D01*
X44405893Y-116952132D01*
X44425599Y-116966747D01*
X44443777Y-116983223D01*
X44460253Y-117001401D01*
X44474868Y-117021107D01*
X44487480Y-117042150D01*
X44497970Y-117064329D01*
X44506235Y-117087428D01*
X44512196Y-117111227D01*
X44515796Y-117135495D01*
X44517000Y-117159999D01*
X44517000Y-118060001D01*
X44515796Y-118084505D01*
X44512196Y-118108773D01*
X44506235Y-118132572D01*
X44497970Y-118155671D01*
X44487480Y-118177850D01*
X44474868Y-118198893D01*
X44460253Y-118218599D01*
X44443777Y-118236777D01*
X44425599Y-118253253D01*
X44405893Y-118267868D01*
X44384850Y-118280480D01*
X44362671Y-118290970D01*
X44339572Y-118299235D01*
X44315773Y-118305196D01*
X44291505Y-118308796D01*
X44267001Y-118310000D01*
X43616999Y-118310000D01*
X43592495Y-118308796D01*
X43568227Y-118305196D01*
X43544428Y-118299235D01*
X43521329Y-118290970D01*
X43499150Y-118280480D01*
X43478107Y-118267868D01*
X43458401Y-118253253D01*
X43440223Y-118236777D01*
X43423747Y-118218599D01*
X43409132Y-118198893D01*
X43396520Y-118177850D01*
X43386030Y-118155671D01*
X43377765Y-118132572D01*
X43371804Y-118108773D01*
X43368204Y-118084505D01*
X43367000Y-118060001D01*
X43367000Y-117159999D01*
X43368204Y-117135495D01*
X43371804Y-117111227D01*
X43377765Y-117087428D01*
X43386030Y-117064329D01*
X43396520Y-117042150D01*
X43409132Y-117021107D01*
X43423747Y-117001401D01*
X43440223Y-116983223D01*
X43458401Y-116966747D01*
X43478107Y-116952132D01*
X43499150Y-116939520D01*
X43521329Y-116929030D01*
X43544428Y-116920765D01*
X43568227Y-116914804D01*
X43592495Y-116911204D01*
X43616999Y-116910000D01*
X44267001Y-116910000D01*
X44291505Y-116911204D01*
X44291505Y-116911204D01*
G37*
D15*
X43942000Y-117610000D03*
D14*
G36*
X42241505Y-116911204D02*
X42265773Y-116914804D01*
X42289572Y-116920765D01*
X42312671Y-116929030D01*
X42334850Y-116939520D01*
X42355893Y-116952132D01*
X42375599Y-116966747D01*
X42393777Y-116983223D01*
X42410253Y-117001401D01*
X42424868Y-117021107D01*
X42437480Y-117042150D01*
X42447970Y-117064329D01*
X42456235Y-117087428D01*
X42462196Y-117111227D01*
X42465796Y-117135495D01*
X42467000Y-117159999D01*
X42467000Y-118060001D01*
X42465796Y-118084505D01*
X42462196Y-118108773D01*
X42456235Y-118132572D01*
X42447970Y-118155671D01*
X42437480Y-118177850D01*
X42424868Y-118198893D01*
X42410253Y-118218599D01*
X42393777Y-118236777D01*
X42375599Y-118253253D01*
X42355893Y-118267868D01*
X42334850Y-118280480D01*
X42312671Y-118290970D01*
X42289572Y-118299235D01*
X42265773Y-118305196D01*
X42241505Y-118308796D01*
X42217001Y-118310000D01*
X41566999Y-118310000D01*
X41542495Y-118308796D01*
X41518227Y-118305196D01*
X41494428Y-118299235D01*
X41471329Y-118290970D01*
X41449150Y-118280480D01*
X41428107Y-118267868D01*
X41408401Y-118253253D01*
X41390223Y-118236777D01*
X41373747Y-118218599D01*
X41359132Y-118198893D01*
X41346520Y-118177850D01*
X41336030Y-118155671D01*
X41327765Y-118132572D01*
X41321804Y-118108773D01*
X41318204Y-118084505D01*
X41317000Y-118060001D01*
X41317000Y-117159999D01*
X41318204Y-117135495D01*
X41321804Y-117111227D01*
X41327765Y-117087428D01*
X41336030Y-117064329D01*
X41346520Y-117042150D01*
X41359132Y-117021107D01*
X41373747Y-117001401D01*
X41390223Y-116983223D01*
X41408401Y-116966747D01*
X41428107Y-116952132D01*
X41449150Y-116939520D01*
X41471329Y-116929030D01*
X41494428Y-116920765D01*
X41518227Y-116914804D01*
X41542495Y-116911204D01*
X41566999Y-116910000D01*
X42217001Y-116910000D01*
X42241505Y-116911204D01*
X42241505Y-116911204D01*
G37*
D15*
X41892000Y-117610000D03*
D16*
X40272000Y-171478000D03*
X128272000Y-171478000D03*
X128272000Y-101478000D03*
D11*
X56956000Y-91587000D03*
D12*
X54416000Y-91587000D03*
X51876000Y-91587000D03*
D17*
X44002000Y-140735000D03*
X44002000Y-137435000D03*
D18*
X53654000Y-87147000D03*
X53654000Y-89047000D03*
X55654000Y-88097000D03*
D14*
G36*
X52350505Y-86423204D02*
X52374773Y-86426804D01*
X52398572Y-86432765D01*
X52421671Y-86441030D01*
X52443850Y-86451520D01*
X52464893Y-86464132D01*
X52484599Y-86478747D01*
X52502777Y-86495223D01*
X52519253Y-86513401D01*
X52533868Y-86533107D01*
X52546480Y-86554150D01*
X52556970Y-86576329D01*
X52565235Y-86599428D01*
X52571196Y-86623227D01*
X52574796Y-86647495D01*
X52576000Y-86671999D01*
X52576000Y-87322001D01*
X52574796Y-87346505D01*
X52571196Y-87370773D01*
X52565235Y-87394572D01*
X52556970Y-87417671D01*
X52546480Y-87439850D01*
X52533868Y-87460893D01*
X52519253Y-87480599D01*
X52502777Y-87498777D01*
X52484599Y-87515253D01*
X52464893Y-87529868D01*
X52443850Y-87542480D01*
X52421671Y-87552970D01*
X52398572Y-87561235D01*
X52374773Y-87567196D01*
X52350505Y-87570796D01*
X52326001Y-87572000D01*
X51425999Y-87572000D01*
X51401495Y-87570796D01*
X51377227Y-87567196D01*
X51353428Y-87561235D01*
X51330329Y-87552970D01*
X51308150Y-87542480D01*
X51287107Y-87529868D01*
X51267401Y-87515253D01*
X51249223Y-87498777D01*
X51232747Y-87480599D01*
X51218132Y-87460893D01*
X51205520Y-87439850D01*
X51195030Y-87417671D01*
X51186765Y-87394572D01*
X51180804Y-87370773D01*
X51177204Y-87346505D01*
X51176000Y-87322001D01*
X51176000Y-86671999D01*
X51177204Y-86647495D01*
X51180804Y-86623227D01*
X51186765Y-86599428D01*
X51195030Y-86576329D01*
X51205520Y-86554150D01*
X51218132Y-86533107D01*
X51232747Y-86513401D01*
X51249223Y-86495223D01*
X51267401Y-86478747D01*
X51287107Y-86464132D01*
X51308150Y-86451520D01*
X51330329Y-86441030D01*
X51353428Y-86432765D01*
X51377227Y-86426804D01*
X51401495Y-86423204D01*
X51425999Y-86422000D01*
X52326001Y-86422000D01*
X52350505Y-86423204D01*
X52350505Y-86423204D01*
G37*
D15*
X51876000Y-86997000D03*
D14*
G36*
X52350505Y-88473204D02*
X52374773Y-88476804D01*
X52398572Y-88482765D01*
X52421671Y-88491030D01*
X52443850Y-88501520D01*
X52464893Y-88514132D01*
X52484599Y-88528747D01*
X52502777Y-88545223D01*
X52519253Y-88563401D01*
X52533868Y-88583107D01*
X52546480Y-88604150D01*
X52556970Y-88626329D01*
X52565235Y-88649428D01*
X52571196Y-88673227D01*
X52574796Y-88697495D01*
X52576000Y-88721999D01*
X52576000Y-89372001D01*
X52574796Y-89396505D01*
X52571196Y-89420773D01*
X52565235Y-89444572D01*
X52556970Y-89467671D01*
X52546480Y-89489850D01*
X52533868Y-89510893D01*
X52519253Y-89530599D01*
X52502777Y-89548777D01*
X52484599Y-89565253D01*
X52464893Y-89579868D01*
X52443850Y-89592480D01*
X52421671Y-89602970D01*
X52398572Y-89611235D01*
X52374773Y-89617196D01*
X52350505Y-89620796D01*
X52326001Y-89622000D01*
X51425999Y-89622000D01*
X51401495Y-89620796D01*
X51377227Y-89617196D01*
X51353428Y-89611235D01*
X51330329Y-89602970D01*
X51308150Y-89592480D01*
X51287107Y-89579868D01*
X51267401Y-89565253D01*
X51249223Y-89548777D01*
X51232747Y-89530599D01*
X51218132Y-89510893D01*
X51205520Y-89489850D01*
X51195030Y-89467671D01*
X51186765Y-89444572D01*
X51180804Y-89420773D01*
X51177204Y-89396505D01*
X51176000Y-89372001D01*
X51176000Y-88721999D01*
X51177204Y-88697495D01*
X51180804Y-88673227D01*
X51186765Y-88649428D01*
X51195030Y-88626329D01*
X51205520Y-88604150D01*
X51218132Y-88583107D01*
X51232747Y-88563401D01*
X51249223Y-88545223D01*
X51267401Y-88528747D01*
X51287107Y-88514132D01*
X51308150Y-88501520D01*
X51330329Y-88491030D01*
X51353428Y-88482765D01*
X51377227Y-88476804D01*
X51401495Y-88473204D01*
X51425999Y-88472000D01*
X52326001Y-88472000D01*
X52350505Y-88473204D01*
X52350505Y-88473204D01*
G37*
D15*
X51876000Y-89047000D03*
D14*
G36*
X57938505Y-86423204D02*
X57962773Y-86426804D01*
X57986572Y-86432765D01*
X58009671Y-86441030D01*
X58031850Y-86451520D01*
X58052893Y-86464132D01*
X58072599Y-86478747D01*
X58090777Y-86495223D01*
X58107253Y-86513401D01*
X58121868Y-86533107D01*
X58134480Y-86554150D01*
X58144970Y-86576329D01*
X58153235Y-86599428D01*
X58159196Y-86623227D01*
X58162796Y-86647495D01*
X58164000Y-86671999D01*
X58164000Y-87322001D01*
X58162796Y-87346505D01*
X58159196Y-87370773D01*
X58153235Y-87394572D01*
X58144970Y-87417671D01*
X58134480Y-87439850D01*
X58121868Y-87460893D01*
X58107253Y-87480599D01*
X58090777Y-87498777D01*
X58072599Y-87515253D01*
X58052893Y-87529868D01*
X58031850Y-87542480D01*
X58009671Y-87552970D01*
X57986572Y-87561235D01*
X57962773Y-87567196D01*
X57938505Y-87570796D01*
X57914001Y-87572000D01*
X57013999Y-87572000D01*
X56989495Y-87570796D01*
X56965227Y-87567196D01*
X56941428Y-87561235D01*
X56918329Y-87552970D01*
X56896150Y-87542480D01*
X56875107Y-87529868D01*
X56855401Y-87515253D01*
X56837223Y-87498777D01*
X56820747Y-87480599D01*
X56806132Y-87460893D01*
X56793520Y-87439850D01*
X56783030Y-87417671D01*
X56774765Y-87394572D01*
X56768804Y-87370773D01*
X56765204Y-87346505D01*
X56764000Y-87322001D01*
X56764000Y-86671999D01*
X56765204Y-86647495D01*
X56768804Y-86623227D01*
X56774765Y-86599428D01*
X56783030Y-86576329D01*
X56793520Y-86554150D01*
X56806132Y-86533107D01*
X56820747Y-86513401D01*
X56837223Y-86495223D01*
X56855401Y-86478747D01*
X56875107Y-86464132D01*
X56896150Y-86451520D01*
X56918329Y-86441030D01*
X56941428Y-86432765D01*
X56965227Y-86426804D01*
X56989495Y-86423204D01*
X57013999Y-86422000D01*
X57914001Y-86422000D01*
X57938505Y-86423204D01*
X57938505Y-86423204D01*
G37*
D15*
X57464000Y-86997000D03*
D14*
G36*
X57938505Y-88473204D02*
X57962773Y-88476804D01*
X57986572Y-88482765D01*
X58009671Y-88491030D01*
X58031850Y-88501520D01*
X58052893Y-88514132D01*
X58072599Y-88528747D01*
X58090777Y-88545223D01*
X58107253Y-88563401D01*
X58121868Y-88583107D01*
X58134480Y-88604150D01*
X58144970Y-88626329D01*
X58153235Y-88649428D01*
X58159196Y-88673227D01*
X58162796Y-88697495D01*
X58164000Y-88721999D01*
X58164000Y-89372001D01*
X58162796Y-89396505D01*
X58159196Y-89420773D01*
X58153235Y-89444572D01*
X58144970Y-89467671D01*
X58134480Y-89489850D01*
X58121868Y-89510893D01*
X58107253Y-89530599D01*
X58090777Y-89548777D01*
X58072599Y-89565253D01*
X58052893Y-89579868D01*
X58031850Y-89592480D01*
X58009671Y-89602970D01*
X57986572Y-89611235D01*
X57962773Y-89617196D01*
X57938505Y-89620796D01*
X57914001Y-89622000D01*
X57013999Y-89622000D01*
X56989495Y-89620796D01*
X56965227Y-89617196D01*
X56941428Y-89611235D01*
X56918329Y-89602970D01*
X56896150Y-89592480D01*
X56875107Y-89579868D01*
X56855401Y-89565253D01*
X56837223Y-89548777D01*
X56820747Y-89530599D01*
X56806132Y-89510893D01*
X56793520Y-89489850D01*
X56783030Y-89467671D01*
X56774765Y-89444572D01*
X56768804Y-89420773D01*
X56765204Y-89396505D01*
X56764000Y-89372001D01*
X56764000Y-88721999D01*
X56765204Y-88697495D01*
X56768804Y-88673227D01*
X56774765Y-88649428D01*
X56783030Y-88626329D01*
X56793520Y-88604150D01*
X56806132Y-88583107D01*
X56820747Y-88563401D01*
X56837223Y-88545223D01*
X56855401Y-88528747D01*
X56875107Y-88514132D01*
X56896150Y-88501520D01*
X56918329Y-88491030D01*
X56941428Y-88482765D01*
X56965227Y-88476804D01*
X56989495Y-88473204D01*
X57013999Y-88472000D01*
X57914001Y-88472000D01*
X57938505Y-88473204D01*
X57938505Y-88473204D01*
G37*
D15*
X57464000Y-89047000D03*
D11*
X57210000Y-154579000D03*
D12*
X57210000Y-152039000D03*
X57210000Y-149499000D03*
X57210000Y-146959000D03*
X57210000Y-144419000D03*
X57210000Y-141879000D03*
X57210000Y-139339000D03*
M02*
